<?xml version="1.0" encoding="UTF-8" standalone="no"?>
<!DOCTYPE svg PUBLIC "-//W3C//DTD SVG 1.1//EN" "http://www.w3.org/Graphics/SVG/1.1/DTD/svg11.dtd">
<svg width="100%" height="100%" viewBox="0 0 653 444" version="1.1" xmlns="http://www.w3.org/2000/svg" xmlns:xlink="http://www.w3.org/1999/xlink" xml:space="preserve" xmlns:serif="http://www.serif.com/" style="fill-rule:evenodd;clip-rule:evenodd;stroke-linejoin:round;stroke-miterlimit:2;">
    <g transform="matrix(1.31824,0,0,1.31824,-98.0771,-95.058)">
        <g>
            <g>
                <path d="M163.6,298.1L163.6,395.3L177.6,395.3C201.7,395.3 219.6,383.6 219.6,343.2C219.6,310.6 204.8,298.1 180,298.1L163.6,298.1ZM137.2,288.1L196.3,288.1C233.6,289.7 248.4,315.3 248.4,343.3C248.4,382.2 221.2,405.5 185.5,405.5L137.3,405.5L137.3,288.1L137.2,288.1ZM370.7,386.4C361.3,392.5 348,398.5 334,398.5C309.9,396.2 296.6,375.9 296.6,347.9C296.6,322.2 307.5,295 336.3,295C347.4,295 364.4,301 370.7,307L370.7,293.7C362.1,288.3 348,285 336.3,285C298.9,285 267.8,305.2 267.8,350.4C267.8,386.2 295.8,408.8 332.4,408.8C344.1,408.8 356.2,406.2 370.6,399.3L370.7,386.4ZM500.1,286L500.1,349.5C499.3,368.9 499.3,386.8 481.4,399.2C472.1,406.2 459.1,408.5 447.4,408.5C427.2,408.5 402.5,402.3 396.3,379.8C394.7,372.8 394,365 394,358L394,305.5L419.6,286.2L419.6,337.1C419.6,346.4 419.6,360.4 421.2,369.7C422.8,378.3 423.5,383.7 429.7,389.1C435.1,394.5 443.5,396.9 451.3,396.9C466.8,396.9 476.8,390.7 483,375.9C486.1,368.1 486.1,348.7 486.1,340.2L486.1,294.9L500.1,286Z" style="fill:rgb(0,39,93);fill-rule:nonzero;"/>
                <path d="M227.4,159.8C169.2,186.7 115.2,221 74.4,255.3L74.6,255.6L75.3,256.4C114.7,224.3 167,193.5 221.8,168.7C359.8,105.4 489.1,90.6 510.1,135.6C520.8,159.9 499.5,198 450.8,239.6L452,241.1C497.8,204 522.9,170 522.9,143.8C522.9,138.5 521.9,133.5 519.8,128.9C497.8,82.1 366.7,95.9 227.4,159.8" style="fill:rgb(255,176,49);fill-rule:nonzero;"/>
                <path d="M242.8,167.5C214.9,179.9 190,195 166.8,208.9L167.6,210.4C187.9,199.3 205.1,191.4 220.9,184.1C331.1,133.6 434.1,121.9 450.7,157.9C462.9,183.7 426.7,230 357.8,275.2L358.8,276.8C433.5,233.4 479.2,186.8 479.2,155C479.2,150.6 478.3,146.5 476.6,142.8C473.1,135.1 466,129.3 455.5,125.4C414.6,110.4 329.2,127.3 242.8,167.5" style="fill:rgb(255,176,49);fill-rule:nonzero;"/>
                <path d="M318.7,102.5L319.3,104.5C358.8,92.7 391.5,85.3 419.3,81.1C490.7,70.3 535.2,78.8 547.8,105.7C553.7,117.4 553.9,130.8 548.5,146.9C534.8,187.2 487,238.3 417.4,287C410.5,292.4 341,338.5 310.3,353.7L311.1,355.8C338.9,342.6 368.3,326.8 398.3,308.8L423.7,292.6C515.4,232.6 569,171.6 569,129.9C569,122.8 567.5,116.3 564.3,110.5C538.7,62.1 449.3,59.5 318.7,102.5" style="fill:rgb(255,176,49);fill-rule:nonzero;"/>
            </g>
        </g>
    </g>
</svg>
