<svg xmlns="http://www.w3.org/2000/svg" viewBox="0 0 500 500"><g id="freepik--background-complete--inject-7"><rect y="382.4" width="500" height="0.25" style="fill:#ebebeb"/><rect x="416.78" y="398.49" width="33.12" height="0.25" style="fill:#ebebeb"/><rect x="322.53" y="401.21" width="8.69" height="0.25" style="fill:#ebebeb"/><rect x="396.59" y="389.21" width="19.19" height="0.25" style="fill:#ebebeb"/><rect x="52.46" y="390.89" width="43.19" height="0.25" style="fill:#ebebeb"/><rect x="104.56" y="390.89" width="6.33" height="0.25" style="fill:#ebebeb"/><rect x="131.47" y="395.11" width="93.68" height="0.25" style="fill:#ebebeb"/><path d="M237,337.8H43.91a5.71,5.71,0,0,1-5.7-5.71V60.66A5.71,5.71,0,0,1,43.91,55H237a5.71,5.71,0,0,1,5.71,5.71V332.09A5.71,5.71,0,0,1,237,337.8ZM43.91,55.2a5.46,5.46,0,0,0-5.45,5.46V332.09a5.46,5.46,0,0,0,5.45,5.46H237a5.47,5.47,0,0,0,5.46-5.46V60.66A5.47,5.47,0,0,0,237,55.2Z" style="fill:#ebebeb"/><path d="M453.31,337.8H260.21a5.72,5.72,0,0,1-5.71-5.71V60.66A5.72,5.72,0,0,1,260.21,55h193.1A5.71,5.71,0,0,1,459,60.66V332.09A5.71,5.71,0,0,1,453.31,337.8ZM260.21,55.2a5.47,5.47,0,0,0-5.46,5.46V332.09a5.47,5.47,0,0,0,5.46,5.46h193.1a5.47,5.47,0,0,0,5.46-5.46V60.66a5.47,5.47,0,0,0-5.46-5.46Z" style="fill:#ebebeb"/><path d="M369.33,166.27V163h5.37a62.8,62.8,0,0,1-2-31.46s-.08,13.73,5.23,13.83c8.11.15,8.72-13.83,8.72-13.83s2,20-5.32,31.46h5.56v3.31Z" style="fill:#e0e0e0"/><circle cx="379.74" cy="140.67" r="4.68" style="fill:#e0e0e0"/><polygon points="404.75 166.97 411.16 134.4 430.79 134.4 426.14 152.87 433.02 166.27 404.75 166.97" style="fill:#e0e0e0"/><polygon points="329.75 166.97 336.16 134.4 355.79 134.4 351.14 152.87 358.02 166.27 329.75 166.97" style="fill:#e0e0e0"/><rect x="313.81" y="163.99" width="115.2" height="219.65" transform="translate(742.81 547.64) rotate(180)" style="fill:#f0f0f0"/><rect x="317.88" y="171.62" width="107.06" height="44.74" transform="translate(742.81 387.98) rotate(180)" style="fill:#e0e0e0"/><rect x="418.85" y="178.86" width="6.08" height="37.5" transform="translate(843.79 395.22) rotate(180)" style="fill:#ebebeb"/><rect x="389.45" y="178.86" width="6.08" height="37.5" transform="translate(784.97 395.22) rotate(180)" style="fill:#ebebeb"/><polygon points="351.62 214.88 357.62 216.36 362.06 179.41 356.06 177.93 351.62 214.88" style="fill:#ebebeb"/><rect x="411.32" y="183.8" width="6.08" height="32.55" transform="translate(828.71 400.16) rotate(180)" style="fill:#ebebeb"/><rect x="397.34" y="183.8" width="6.08" height="32.55" transform="translate(800.76 400.16) rotate(180)" style="fill:#ebebeb"/><rect x="362.06" y="183.8" width="6.08" height="32.55" transform="translate(730.19 400.16) rotate(180)" style="fill:#ebebeb"/><polygon points="376.53 214.47 382.47 216.36 387.39 184.58 381.46 182.69 376.53 214.47" style="fill:#ebebeb"/><rect x="406.06" y="177" width="3.04" height="39.36" transform="translate(815.16 393.36) rotate(180)" style="fill:#ebebeb"/><rect x="369.89" y="177" width="3.04" height="39.36" transform="translate(742.81 393.36) rotate(180)" style="fill:#ebebeb"/><rect x="317.88" y="223.44" width="107.06" height="44.74" style="fill:#e0e0e0"/><rect x="317.88" y="230.68" width="6.08" height="37.5" style="fill:#ebebeb"/><rect x="347.28" y="230.68" width="6.08" height="37.5" style="fill:#ebebeb"/><polygon points="391.19 266.7 385.2 268.18 380.75 231.23 386.75 229.75 391.19 266.7" style="fill:#ebebeb"/><rect x="325.41" y="235.63" width="6.08" height="32.55" style="fill:#ebebeb"/><rect x="339.39" y="235.63" width="6.08" height="32.55" style="fill:#ebebeb"/><rect x="374.67" y="235.63" width="6.08" height="32.55" style="fill:#ebebeb"/><polygon points="366.28 266.29 360.34 268.18 355.42 236.4 361.35 234.51 366.28 266.29" style="fill:#ebebeb"/><rect x="333.71" y="228.82" width="3.04" height="39.36" style="fill:#ebebeb"/><rect x="369.89" y="228.82" width="3.04" height="39.36" style="fill:#ebebeb"/><rect x="418.85" y="230.68" width="6.08" height="37.5" transform="translate(843.79 498.86) rotate(180)" style="fill:#ebebeb"/><rect x="411.32" y="235.63" width="6.08" height="32.55" transform="translate(828.71 503.8) rotate(180)" style="fill:#ebebeb"/><rect x="397.34" y="235.63" width="6.08" height="32.55" transform="translate(800.76 503.8) rotate(180)" style="fill:#ebebeb"/><rect x="406.06" y="228.82" width="3.04" height="39.36" transform="translate(815.16 497) rotate(180)" style="fill:#ebebeb"/><rect x="317.88" y="275.26" width="107.06" height="44.74" transform="translate(742.81 595.26) rotate(180)" style="fill:#e0e0e0"/><rect x="357.41" y="282.51" width="6.08" height="37.5" transform="translate(720.89 602.51) rotate(180)" style="fill:#ebebeb"/><polygon points="319.58 318.52 325.57 320 330.01 283.05 324.02 281.57 319.58 318.52" style="fill:#ebebeb"/><rect x="379.28" y="287.45" width="6.08" height="32.55" transform="translate(764.63 607.45) rotate(180)" style="fill:#ebebeb"/><rect x="365.3" y="287.45" width="6.08" height="32.55" transform="translate(736.68 607.45) rotate(180)" style="fill:#ebebeb"/><rect x="330.02" y="287.45" width="6.08" height="32.55" transform="translate(666.11 607.45) rotate(180)" style="fill:#ebebeb"/><polygon points="344.49 318.11 350.43 320 355.35 288.22 349.42 286.33 344.49 318.11" style="fill:#ebebeb"/><rect x="374.02" y="280.64" width="3.04" height="39.36" transform="translate(751.08 600.65) rotate(180)" style="fill:#ebebeb"/><rect x="337.84" y="280.64" width="3.04" height="39.36" transform="translate(678.73 600.65) rotate(180)" style="fill:#ebebeb"/><polygon points="389.55 318.52 395.54 320 399.98 283.05 393.99 281.57 389.55 318.52" style="fill:#ebebeb"/><rect x="399.98" y="287.45" width="6.08" height="32.55" transform="translate(806.04 607.45) rotate(180)" style="fill:#ebebeb"/><polygon points="414.46 318.11 420.4 320 425.32 288.22 419.38 286.33 414.46 318.11" style="fill:#ebebeb"/><rect x="407.81" y="280.64" width="3.04" height="39.36" transform="translate(818.66 600.65) rotate(180)" style="fill:#ebebeb"/><rect x="429.01" y="163.99" width="19.87" height="220.28" style="fill:#e0e0e0"/><circle cx="383.54" cy="92.27" r="23.55" transform="translate(47.09 298.23) rotate(-45)" style="fill:#e0e0e0"/><circle cx="383.54" cy="92.27" r="20.03" transform="matrix(0.84, -0.55, 0.55, 0.84, 12.31, 225.72)" style="fill:#f0f0f0"/><polyline points="384.48 78.54 384.48 92.54 393.76 87.29" style="fill:#f0f0f0;stroke:#e0e0e0;stroke-linecap:round;stroke-linejoin:round;stroke-width:2px"/><rect x="51.12" y="87.96" width="189.96" height="89.04" style="fill:#ebebeb"/><rect x="104.58" y="40.5" width="83.04" height="183.96" transform="translate(278.58 -13.62) rotate(90)" style="fill:#f0f0f0"/><path d="M133.8,131.43c2.54-4.6,7.89-3.14,10.78.21,2.55-3.61,7.74-5.58,10.71-1.23,5,7.32-4.24,14.77-8.63,17.73l-1.25.84c-.37-.19-.8-.43-1.33-.72C139.42,145.74,129.51,139.21,133.8,131.43Z" style="fill:#fafafa"/><path d="M103.65,116.48a4.81,4.81,0,0,0-6.22-4.62,10.45,10.45,0,0,0,.11-1.49,10.23,10.23,0,0,0-10.23-10.22,10.63,10.63,0,0,0-1.89.17,8.94,8.94,0,0,0-16.57,4.52H68.7a8.24,8.24,0,1,0,0,16.48H99A4.83,4.83,0,0,0,103.65,116.48Z" style="fill:#f5f5f5"/><path d="M140.14,106.76a1.92,1.92,0,0,0-1.91-1.91,2,2,0,0,0-.55.08,3.81,3.81,0,0,0,0-.59,4,4,0,0,0-4-4,4.76,4.76,0,0,0-.75.07,3.53,3.53,0,0,0-6.55,1.79h-.06a3.26,3.26,0,1,0,0,6.52h12A1.91,1.91,0,0,0,140.14,106.76Z" style="fill:#f5f5f5"/><path d="M184.77,161.85A4.83,4.83,0,0,1,189.6,157a4.92,4.92,0,0,1,1.39.2,10.21,10.21,0,0,1,10.12-11.71,10.6,10.6,0,0,1,1.88.17,8.94,8.94,0,0,1,16.58,4.52h.15a8.24,8.24,0,0,1,0,16.48H189.46A4.82,4.82,0,0,1,184.77,161.85Z" style="fill:#f5f5f5"/><path d="M143.36,161.19a2.41,2.41,0,0,1,2.42-2.41,2.26,2.26,0,0,1,.69.1,6,6,0,0,1-.05-.74,5.11,5.11,0,0,1,5.11-5.12,4.83,4.83,0,0,1,.94.09,4.47,4.47,0,0,1,8.29,2.26h.08a4.12,4.12,0,1,1,0,8.24H145.71A2.41,2.41,0,0,1,143.36,161.19Z" style="fill:#f5f5f5"/><path d="M107.54,145.89c-2.44-5-4.22-16.81-1.47-22.23s2.13.34,2.13.34,2-6.33,4.21-7.42,1.46,2.66,1.46,2.66,3-5.25,5.13-6.28,1.4,2.55,1.4,2.55,2.24-4.69,4.44-4.24-11,25.44-10.29,32.26S110,151,107.54,145.89Z" style="fill:#fafafa"/><path d="M124.92,135.43l3.74.26a.26.26,0,0,1,.09.49l-3,1.37,1.47,2.09a.28.28,0,0,1-.33.43l-2.71-1Z" style="fill:#e0e0e0"/><path d="M80.11,145.71s2.35-4.75,9.09-6.19c0,0,5.84,6.73,11.78,6.78,3.26,0,9.32-3.44,13.29-7.66,4.73-5,7.54-6.55,9.76-5s2.29,4.46-1.53,7.9-3.11,13-11,17.48S95,157.84,93.12,149.7A24.14,24.14,0,0,0,80.11,145.71Z" style="fill:#fafafa"/><path d="M122.63,136.32a.46.46,0,0,1-.18.6.45.45,0,0,1-.61-.18.46.46,0,0,1,.18-.6A.45.45,0,0,1,122.63,136.32Z" style="fill:#e0e0e0"/><path d="M106.14,153.7c-4,3.87-14.69,9.21-20.69,8.27s-.35-2.14-.35-2.14-6.62.1-8.35-1.71,2.08-2.21,2.08-2.21-5.92-1.22-7.55-2.94,2-2.12,2-2.12-5.15-.68-5.4-2.91,27.59,2.63,33.85-.17S110.19,149.79,106.14,153.7Z" style="fill:#fafafa"/><path d="M184.79,126c-.26-5.57-4.38-16.78-9.39-20.21s-1.71,1.32-1.71,1.32-4.75-4.61-7.26-4.48,0,3,0,3-5.14-3.17-7.51-3,0,2.9,0,2.9-4.22-3-5.94-1.58,21.89,17,24.53,23.34S185.06,131.65,184.79,126Z" style="fill:#fafafa"/><path d="M164.52,125.19l-3.15,2a.26.26,0,0,0,.16.48l3.31-.26-.28,2.54a.28.28,0,0,0,.49.22L167,128Z" style="fill:#e0e0e0"/><path d="M208.76,112.67s-4.35-3-10.94-1c0,0-1.9,8.7-7.08,11.6-2.85,1.59-9.82,1.46-15.34-.33-6.55-2.12-9.76-2.12-10.94.33s.13,5,5.14,6.2,9,9.89,18.06,10,13.89-9,11.61-17A24.17,24.17,0,0,1,208.76,112.67Z" style="fill:#fafafa"/><path d="M167,124.87a.45.45,0,1,0,.45-.45A.45.45,0,0,0,167,124.87Z" style="fill:#e0e0e0"/><path d="M189.78,132.19c5.37,1.47,17.3,1,22.11-2.7s-.72-2-.72-2,5.85-3.1,6.5-5.52-2.89-.94-2.89-.94,4.61-3.91,5.21-6.21-2.76-.89-2.76-.89,4.19-3.08,3.34-5.16-22.94,15.57-29.77,16.13S184.34,130.71,189.78,132.19Z" style="fill:#fafafa"/></g><g id="freepik--Shadow--inject-7"><ellipse id="freepik--path--inject-7" cx="250" cy="416.24" rx="193.89" ry="11.32" style="fill:#f5f5f5"/></g><g id="freepik--character-1--inject-7"><path d="M252.5,302H291l.41,0a9.9,9.9,0,0,1,9.9,9.9V419.92H243.19V311.86A9.75,9.75,0,0,1,252.5,302Z" style="fill:#FFC100"/><path d="M252.5,302H291l.41,0a9.9,9.9,0,0,1,9.9,9.9V419.92H243.19V311.86A9.75,9.75,0,0,1,252.5,302Z" style="fill:#fff;opacity:0.5;isolation:isolate"/><path d="M291.37,302h0a9.9,9.9,0,0,1,9.9,9.9V419.92h-19.8V311.86A9.9,9.9,0,0,1,291.37,302Z" style="fill:#fff;opacity:0.6000000000000001;isolation:isolate"/><path d="M64.51,276.44H232a8.12,8.12,0,0,1,8.12,8.11l11,70.25H67.42l-11-70.25A8.11,8.11,0,0,1,64.51,276.44Z" style="fill:#FFC100"/><path d="M64.51,276.44H232a8.12,8.12,0,0,1,8.12,8.11l11,70.25H67.42l-11-70.25A8.11,8.11,0,0,1,64.51,276.44Z" style="fill:#fff;opacity:0.4;isolation:isolate"/><path d="M83.65,355.84H67.42l-11-71.29a8.11,8.11,0,0,1,8.12-8.11h0a8.11,8.11,0,0,1,8.11,8.11Z" style="opacity:0.2;isolation:isolate"/><rect x="109.29" y="346.88" width="165.71" height="73.04" transform="translate(384.3 766.8) rotate(180)" style="fill:#FFC100"/><rect x="109.29" y="346.88" width="165.71" height="73.04" transform="translate(384.3 766.8) rotate(180)" style="fill:#fff;opacity:0.4;isolation:isolate"/><path d="M93.16,361.58H269.48a10.43,10.43,0,0,0,10.43-10.43h0a10.43,10.43,0,0,0-10.43-10.43H93.16Z" style="fill:#FFC100"/><path d="M93.16,361.58H269.48a10.43,10.43,0,0,0,10.43-10.43h0a10.43,10.43,0,0,0-10.43-10.43H93.16Z" style="fill:#fff;opacity:0.6000000000000001;isolation:isolate"/><path d="M121.71,211.22s4.44-.36,8.75,8.38-2.81,32.53-2.81,32.53l-29.54,1.55s-1.32-1.73-3-16.24-.27-29.67,12.49-33.34C117,201.38,121.71,211.22,121.71,211.22Z" style="fill:#263238"/><path d="M132.53,290.19l-30.32,2.32c-.23-3.55-.33-7.14-.75-10.43a97.2,97.2,0,0,0-2.36-12.26c-.72-2.9-1.63-6.15-2.8-9.9-.16-.5-.31-1-.48-1.53-.49-1.55-1-3.2-1.6-4.93s-1.21-3.62-1.9-5.59a91.22,91.22,0,0,1,12.59-3,95.6,95.6,0,0,1,13.62-1.43c5.89-.05,12.67.61,12.67.61s1,.23,1.58,6.49C133.33,256.37,133.74,268.83,132.53,290.19Z" style="fill:#FFC100"/><path d="M122.43,277.31c-8.2,8.1-15.82,7.18-21,4.77a97.2,97.2,0,0,0-2.36-12.26c-.72-2.9-1.63-6.15-2.8-9.9-.16-.5-.31-1-.48-1.53.79-1.78,2-2.93,3.67-2.89,7.39.18,19.05,13.09,19.05,13.09Z" style="opacity:0.2;isolation:isolate"/><path d="M131.21,244c4.49.71,6.5,3.58,12,16.13,4.21,9.62,2.46,12.69-.89,14.14-8.45,3.66-27.45,1.14-27.45,1.14L133.39,264s-3-10.61-3-12.66A24.94,24.94,0,0,1,131.21,244Z" style="fill:#FFC100"/><path d="M142.31,274.27c-3.2,1.39-7.91,1.89-12.52,2l-1.34,0a113.44,113.44,0,0,1-13.59-.85L133.39,264s-.73-2.55-1.47-5.37a50.33,50.33,0,0,1-1.56-7.29,24.86,24.86,0,0,1,.85-7.37c4.49.71,6.5,3.57,12,16.13C147.41,269.76,145.66,272.83,142.31,274.27Z" style="fill:#fff;opacity:0.1;isolation:isolate"/><path d="M138.43,264.77a19.46,19.46,0,0,1-10,11.49,113.44,113.44,0,0,1-13.59-.85L133.39,264s-.73-2.55-1.47-5.37C135.16,263.46,136.74,261.39,138.43,264.77Z" style="opacity:0.2;isolation:isolate"/><path d="M92.33,247.87c-9.29,3.92,7.51,30,16.93,33.09s29.38-16.33,29.38-16.33a24.85,24.85,0,0,0-9.54-.06c-11.49,2.6-14.69,4.26-17,1.83S98.93,245.08,92.33,247.87Z" style="fill:#FFC100"/><path d="M92.33,247.87c-9.29,3.92,7.51,30,16.93,33.09s29.38-16.33,29.38-16.33a24.85,24.85,0,0,0-9.54-.06c-11.49,2.6-14.69,4.26-17,1.83S98.93,245.08,92.33,247.87Z" style="fill:#fff;opacity:0.1;isolation:isolate"/><path d="M119.07,267s-5.64-3-7.13-3.45-4.63,2.06-4.83,2.69,6.52,4.18,7,4S119.07,267,119.07,267Z" style="fill:#e9b176"/><path d="M100.09,246.48a33.26,33.26,0,0,0,16,5.2,29,29,0,0,0,10.07-7.08S114.9,241.09,100.09,246.48Z" style="fill:#e9b176"/><path d="M116,250.09c-7.48-1-9.72-4.15-9.72-4.15a7.26,7.26,0,0,0,2.17-4,13.91,13.91,0,0,0-1-7.28c-.24-.58-.41-.92-.41-.92l9.57-2.74c-.08.52-.22,1.57-.37,2.74v0c-.26,2.16-.54,4.74-.55,5.42-.07,5.46,2.4,5.52,2.4,5.52C119.73,247.65,116,250.09,116,250.09Z" style="fill:#e9b176"/><polygon points="199.31 388.65 193.27 390.1 190.22 381.76 187.44 374.18 194.32 371.24 196.97 380.45 199.31 388.65" style="fill:#e4897b"/><polygon points="196.97 380.45 190.22 381.76 187.44 374.18 194.32 371.24 196.97 380.45" style="opacity:0.2;isolation:isolate"/><path d="M196.36,376,188,379.16S165.63,323.27,161,323.08s-51.37,21.3-63.09,9.38,4.27-39.95,4.27-39.95c-.8.25,29-6.27,30.32-2.32.41,1.23,1.82,7.61,2.15,9.68s.54,3.58.54,3.58h0c.88-.22,29.18-7.52,40.34,0C186.9,311.12,196.36,376,196.36,376Z" style="fill:#263238"/><path d="M196.36,376,188,379.16S165.63,323.27,161,323.08s-51.37,21.3-63.09,9.38,4.27-39.95,4.27-39.95c-.8.25,29-6.27,30.32-2.32.41,1.23,1.82,7.61,2.15,9.68s.54,3.58.54,3.58h0c.88-.22,29.18-7.52,40.34,0C186.9,311.12,196.36,376,196.36,376Z" style="fill:#fff;opacity:0.1"/><polygon points="149.62 405.56 143.06 404.1 143.3 402.31 144.38 394.39 151.82 395.06 149.89 404.29 149.62 405.56" style="fill:#e4897b"/><polygon points="151.18 398.12 143.99 397.17 144.36 394.47 151.81 395.1 151.18 398.12" style="opacity:0.2;isolation:isolate"/><path d="M118.19,335.33s1.91,0,31.49-1.34c0,0-4.39,33.34-6.8,61l10.29,1.28s19.65-55.41,19.42-64.82-11-12.18-11-12.18S140.49,331.47,118.19,335.33Z" style="fill:#263238"/><path d="M118.19,335.33s1.91,0,31.49-1.34c0,0-4.39,33.34-6.8,61l10.29,1.28s19.65-55.41,19.42-64.82-11-12.18-11-12.18S140.49,331.47,118.19,335.33Z" style="fill:#fff;opacity:0;isolation:isolate"/><path d="M135.22,303.45l-16.49,3.44s9.12-5,16-7C135,301.82,135.22,303.45,135.22,303.45Z" style="opacity:0.2;isolation:isolate"/><path d="M210,399.22a8.44,8.44,0,0,0-2.91-.74h0s-3.49-2.05-7-10l-3.89,0a3.2,3.2,0,0,0-3,2.14,1.92,1.92,0,0,0-.11.54,22,22,0,0,0,.3,2.8,77.75,77.75,0,0,0,2.27,9.15l.66-.17-1.2-5.8c-.39-2,1.68-.07,2.64,1.92s2.43,4,6.73,3C209.55,400.84,211.57,400.12,210,399.22Z" style="fill:#263238"/><path d="M193.15,390.67c-.73-1.89-1.67-5.25-1.67-5.25l8.33-1.17s0,4.1,1.54,6.78C197,391,193.15,390.67,193.15,390.67Z" style="fill:#263238"/><path d="M155.81,418.77a8.13,8.13,0,0,0-2.49-1.69h0s-2.58-3.12-3.11-11.8l-3.65-1.35a3.18,3.18,0,0,0-3.53,1,1.75,1.75,0,0,0-.29.47,23.33,23.33,0,0,0-.68,2.74,77.88,77.88,0,0,0-1,9.37l.68.07.85-5.86c.3-2,1.6.5,1.82,2.7s.93,4.58,5.3,5.12C154.84,420.14,157,420.15,155.81,418.77Z" style="fill:#263238"/><path d="M142.89,405c0-2,.22-5.51.22-5.51l8.23,1.75s-1.4,3.85-.87,6.9C146.39,406.61,142.89,405,142.89,405Z" style="fill:#263238"/><polygon points="102.01 289.09 102.21 292.51 132.53 290.19 132.8 285.91 102.01 289.09" style="fill:#263238"/><polygon points="125.94 290.69 119.3 291.2 118.87 287.35 125.49 286.67 125.94 290.69" style="fill:#fff"/><polygon points="112.67 291.71 111.17 291.83 110.93 288.17 112.43 288.02 112.67 291.71" style="fill:#FFC100"/><polygon points="131.22 290.29 129.72 290.4 129.46 286.26 130.96 286.1 131.22 290.29" style="fill:#FFC100"/><g style="opacity:0.5"><polygon points="112.67 291.71 111.17 291.83 110.93 288.17 112.43 288.02 112.67 291.71" style="fill:#fff"/></g><g style="opacity:0.5"><polygon points="131.22 290.29 129.72 290.4 129.46 286.26 130.96 286.1 131.22 290.29" style="fill:#fff"/></g><polygon points="102.01 289.09 102.21 292.51 132.53 290.19 132.8 285.91 102.01 289.09" style="fill:#fff;opacity:0.2"/><path d="M116.32,233.72v0c-.17.57-2.33,7.16-7.82,8.16a13.91,13.91,0,0,0-1-7.28l8.79-.92Z" style="opacity:0.2;isolation:isolate"/><path d="M120.56,211.34s-6.93-11.77-18.92-5.44-8.32,31.15-8.32,31.15" style="fill:none;stroke:#263238;stroke-linecap:round;stroke-linejoin:round;stroke-width:0.5px"/><path d="M97.64,234.38s-2.22,9.05,4.7,15.93A36.29,36.29,0,0,1,110,262.37s1.79-3.7-4.58-20.45c-3.17-8.35-1.81-10.16-1.81-10.16Z" style="fill:#263238"/><path d="M103.2,233.72a52.92,52.92,0,0,0,3.9,11.34c2.77,5.68,3.9,7.6,3.51,11.87" style="fill:none;stroke:#263238;stroke-linecap:round;stroke-linejoin:round;stroke-width:0.5px"/><path d="M111.29,211.84c-7.82-.43-10.56,3.62-11.58,11.64-1.26,10,.58,17.31,10.47,15.7C123.62,237,124.28,212.55,111.29,211.84Z" style="fill:#e9b176"/><path d="M104.79,223.32a16.19,16.19,0,0,1-2.45,3.12,2.15,2.15,0,0,0,2,1Z" style="fill:#d38545"/><path d="M109.61,223c0,.64.26,1.18.69,1.22s.81-.46.86-1.1-.25-1.19-.68-1.22S109.66,222.3,109.61,223Z" style="fill:#263238"/><path d="M110.65,221.89l-1.35-.66S109.91,222.46,110.65,221.89Z" style="fill:#263238"/><path d="M101.65,222.19c-.05.64.25,1.19.68,1.22s.82-.46.87-1.1-.26-1.19-.69-1.22S101.7,221.55,101.65,222.19Z" style="fill:#263238"/><path d="M102.69,221.13l-1.35-.65S101.94,221.7,102.69,221.13Z" style="fill:#263238"/><path d="M109.08,219.6a11.29,11.29,0,0,0,4.37-1.06.33.33,0,0,0,.17-.44.33.33,0,0,0-.44-.17c-3.49,1.5-5.14.87-5.16.87a.33.33,0,0,0-.25.61A3.4,3.4,0,0,0,109.08,219.6Z" style="fill:#263238"/><path d="M103.22,218.84a2.6,2.6,0,0,0,1.28-.33.33.33,0,0,0-.35-.56,2.05,2.05,0,0,1-2.72-.78.33.33,0,1,0-.52.42A2.92,2.92,0,0,0,103.22,218.84Z" style="fill:#263238"/><path d="M119.12,225.48s-3.31-6.62-2.48-11.55c0,0-15.15-7.18-16.78,8.51,0,0-.75-14.05,12.71-13.63s12.33,20.09,5.07,25.57C117.64,234.38,121.16,229.63,119.12,225.48Z" style="fill:#263238"/><path d="M117.75,227.06a3.45,3.45,0,0,1,3.87-2.93c2.4.4,3.29,5.44-2.81,6.3C117.94,230.56,117.5,229.69,117.75,227.06Z" style="fill:#e9b176"/><path d="M105.77,230.41a.32.32,0,0,0,.25-.12c1.91-2.36,3.76-1.27,3.83-1.22a.33.33,0,0,0,.36-.56s-2.41-1.47-4.7,1.36a.33.33,0,0,0,0,.47A.31.31,0,0,0,105.77,230.41Z" style="fill:#263238"/><path d="M75.51,302H114l.4,0a9.91,9.91,0,0,1,9.91,9.9V419.92H66.2V311.86A9.75,9.75,0,0,1,75.51,302Z" style="fill:#FFC100"/><path d="M75.51,302H114l.4,0a9.91,9.91,0,0,1,9.91,9.9V419.92H66.2V311.86A9.75,9.75,0,0,1,75.51,302Z" style="fill:#fff;opacity:0.5;isolation:isolate"/><path d="M114.38,302h0a9.91,9.91,0,0,1,9.91,9.9V419.92H104.48V311.86A9.9,9.9,0,0,1,114.38,302Z" style="fill:#fff;opacity:0.6000000000000001;isolation:isolate"/></g><g id="freepik--character-2--inject-7"><path d="M267.14,301.9l4,6.05s9.86,4.54,10.37,5.72,2.06,5.13,0,5.33-13.08-4.73-14.33-5,0-2.47,0-2.47L262,304.36Z" style="fill:#e2877b"/><path d="M249.86,248.19c6,6.52,7.59,32.94,10.16,37.44s10.29,19.94,10.29,19.94L263.76,308s-9.37-12.69-13.68-20.8S244.69,266,243,262.54,249.86,248.19,249.86,248.19Z" style="fill:#FFC100"/><polygon points="266.96 417.08 274.57 417.88 277.7 401.46 270.1 400.65 266.96 417.08" style="fill:#e2877b"/><polygon points="230.89 418.56 238.33 418.27 240.05 401.09 232.6 401.38 230.89 418.56" style="fill:#e2877b"/><path d="M275.94,411.44h-9.05a.66.66,0,0,0-.63.51l-1.47,6.64a1.09,1.09,0,0,0,.85,1.3,1,1,0,0,0,.24,0c2.93,0,5.06-.22,8.74-.22,2.26,0,9.09.23,12.22.23s3.54-3.09,2.26-3.37c-5.75-1.25-10.07-3-11.91-4.63A1.75,1.75,0,0,0,275.94,411.44Z" style="fill:#263238"/><path d="M276.46,412.47a.16.16,0,0,1-.14-.15.17.17,0,0,1,.09-.17c.26-.17,2.67-1.65,3.49-1.22a.54.54,0,0,1,.31.49,1,1,0,0,1-.37.95,2.21,2.21,0,0,1-1.43.38A8.5,8.5,0,0,1,276.46,412.47Zm.51-.24a3.67,3.67,0,0,0,2.65-.13.74.74,0,0,0,.24-.64c0-.14-.07-.21-.12-.21a.42.42,0,0,0-.22-.05A7.29,7.29,0,0,0,277,412.23Z" style="fill:#FFC100"/><path d="M276.41,412.51a.17.17,0,0,1-.09-.16c0-.1.19-2.25,1.05-3a.94.94,0,0,1,.75-.22.57.57,0,0,1,.57.46c.15.79-1.33,2.43-2.1,2.84h-.09A.14.14,0,0,1,276.41,412.51Zm1.19-2.9a4.2,4.2,0,0,0-.88,2.33c.77-.57,1.72-1.82,1.62-2.3,0-.05,0-.18-.25-.18H278A.64.64,0,0,0,277.6,409.61Z" style="fill:#FFC100"/><path d="M239.27,411.21h-9.05a.67.67,0,0,0-.63.52l-1.47,6.63a1.09,1.09,0,0,0,.85,1.3l.24,0c2.93-.05,5.06-.23,8.74-.23,2.26,0,9.09.23,12.22.23s3.54-3.08,2.26-3.37c-5.75-1.25-10.07-3-11.91-4.63A1.8,1.8,0,0,0,239.27,411.21Z" style="fill:#263238"/><path d="M239.79,412.25a.18.18,0,0,1-.14-.15.19.19,0,0,1,.09-.18c.26-.17,2.67-1.64,3.49-1.22a.55.55,0,0,1,.31.49,1,1,0,0,1-.37.95,2.21,2.21,0,0,1-1.43.38A9.07,9.07,0,0,1,239.79,412.25Zm.51-.25a3.62,3.62,0,0,0,2.65-.13.74.74,0,0,0,.24-.64c0-.14-.07-.21-.12-.21a.43.43,0,0,0-.22,0A7.08,7.08,0,0,0,240.3,412Z" style="fill:#FFC100"/><path d="M239.74,412.28a.17.17,0,0,1-.09-.16c0-.1.19-2.24,1-2.94a.94.94,0,0,1,.75-.23.57.57,0,0,1,.57.46c.15.79-1.33,2.43-2.1,2.85h-.09A.1.1,0,0,1,239.74,412.28Zm1.19-2.9a4.23,4.23,0,0,0-.88,2.34c.77-.58,1.72-1.82,1.62-2.31,0,0,0-.18-.25-.18h-.09A.64.64,0,0,0,240.93,409.38Z" style="fill:#FFC100"/><polygon points="270.1 400.65 277.7 401.46 276.08 409.93 268.48 409.13 270.1 400.65" style="opacity:0.2;isolation:isolate"/><polygon points="232.6 401.39 240.05 401.1 239.16 409.96 231.71 410.25 232.6 401.39" style="opacity:0.2;isolation:isolate"/><path d="M190.25,290.94s-17,51.89,19.7,51.89,39.64-14.31,36.54-31.15l-15-1.36s-2-10.89-.56-19.58Z" style="fill:#263238"/><path d="M278.33,408.69l-12.56-1.81s11.29-52,7.32-57.75c-3.35-4.8-22.89-4.61-45.3-5.73l-13.17-.66c-29.21-1.53,31.86-31.17,31.86-31.17s39.12,1.64,49.32,15.1C305.18,339,278.33,408.69,278.33,408.69Z" style="fill:#263238"/><path d="M265.64,407.07l.13-.19s11.29-52,7.32-57.75c-3.35-4.8-22.89-4.61-45.3-5.73l-2.63-7.68,16.73-19.47s27.28,1.21,34.43,15.52S265.64,407.07,265.64,407.07Z" style="opacity:0.2;isolation:isolate"/><path d="M261,326.67c-5.72-7.54-20.51-11.37-32.41-13.28l-17.2,29.43c18,.74,25.62,3.54,26,5.21,1.94,8-9.33,59.67-9.33,59.67h13.09S271.21,340.13,261,326.67Z" style="fill:#263238"/><path d="M209.62,243.5s26.56-9.79,40.24,4.69c0,0-17,43.78-18.33,50.53l-45.28-1.78S196.89,265.71,209.62,243.5Z" style="fill:#FFC100"/><path d="M249.86,248.19s-5.65,14.55-10.69,28.16c-2.57,6.95-5,13.66-6.41,18.07-.62,1.94-1.06,3.43-1.23,4.3l-45.28-1.78s1.83-5.36,4.87-13.22c1.11-2.86,2.38-6.05,3.78-9.44a279,279,0,0,1,14.72-30.78S236.18,233.71,249.86,248.19Z" style="fill:#fff;opacity:0.6000000000000001;isolation:isolate"/><path d="M239.17,276.35c-2.57,6.95-5,13.66-6.41,18.07l-3.29-7.94-12.6,7.4-5.47-9.37-16.85,8-3.43-8.79c1.11-2.86,2.38-6.05,3.78-9.44l9.94-4.79,6.56,11.19,14.6-8.41,3.76,11.32Z" style="fill:#fff;opacity:0.6000000000000001;isolation:isolate"/><path d="M238.27,249c-8.55,6.38-14.31-7.37-14.31-7.37a15.37,15.37,0,0,0,4.72-1.88c1.28-.89,2.88-4.25,4.64-10v0h11.38c-2.46,3.58-6,9.56-6.78,14.52A8.78,8.78,0,0,0,238.27,249Z" style="fill:#e2877b"/><path d="M225.16,240.38s3.66,6.45,9.18,9.62c0,0,3.64-4.09,4.18-8.29,0,0,4,6.59.47,17.63L234.34,252,229,257.79S215.61,245.73,225.16,240.38Z" style="fill:#FFC100"/><path d="M229.69,303.93l3.95,6s9.87,4.55,10.37,5.73,2.07,5.13,0,5.33-13.07-4.73-14.32-5,0-2.47,0-2.47l-5.19-7.21Z" style="fill:#e2877b"/><path d="M209.62,243.5c8.78-1.27,10.37,39.66,12.95,44.15s10.28,20,10.28,20L226.3,310s-10.59-13.15-14.9-21.26-8.79-23.13-9-31.27C202.26,253.52,204.27,244.28,209.62,243.5Z" style="fill:#FFC100"/><path d="M244.71,229.65c-2.46,3.58-6,9.56-6.78,14.52a19.17,19.17,0,0,1-4.61-14.49v0Z" style="opacity:0.2;isolation:isolate"/><path d="M253.58,211.45s3.61,10.43-1.32,15.61-8.63-14.8-8.63-14.8Z" style="fill:#263238"/><path d="M237.28,238.65a9.89,9.89,0,0,0,11.89,1.71,11.05,11.05,0,0,0,5.27-6.18c.12-.37.23-.74.32-1.13,1.6-7.08.37-18.72-7.36-21.74a10.72,10.72,0,0,0-13.94,6,10.55,10.55,0,0,0-.73,4.94C233.29,230.07,233.25,234.7,237.28,238.65Z" style="fill:#e2877b"/><path d="M244.67,224.28c0,.63.35,1.15.77,1.14s.75-.53.74-1.17-.35-1.15-.77-1.14S244.66,223.63,244.67,224.28Z" style="fill:#263238"/><path d="M251.89,224.18c0,.64.36,1.15.78,1.15s.74-.54.74-1.17-.36-1.15-.77-1.15S251.89,223.58,251.89,224.18Z" style="fill:#263238"/><path d="M249.6,224.53a22.7,22.7,0,0,0,3.13,5.42,3.73,3.73,0,0,1-3.07.62Z" style="fill:#dc5753"/><path d="M246.45,220.21a.42.42,0,0,0-.39,0,3,3,0,0,1-2.65.54.37.37,0,0,0-.48.22.37.37,0,0,0,.22.48h0a3.72,3.72,0,0,0,3.36-.63.37.37,0,0,0,.09-.52h0A.87.87,0,0,0,246.45,220.21Z" style="fill:#263238"/><path d="M243.78,231.84h0a5.79,5.79,0,0,1,5,1.79.2.2,0,0,1,0,.28.19.19,0,0,1-.27,0h0a5.53,5.53,0,0,0-4.65-1.65.2.2,0,0,1-.22-.16v0a.19.19,0,0,1,.16-.22Z" style="fill:#263238"/><path d="M251.2,219.84a.4.4,0,0,0-.2.09.38.38,0,0,0,.09.53h0a3.73,3.73,0,0,0,3.39.52.39.39,0,0,0,.21-.49h0a.38.38,0,0,0-.48-.2h0a3,3,0,0,1-2.68-.46A.4.4,0,0,0,251.2,219.84Z" style="fill:#263238"/><path d="M232.44,231.89l1.83-.06c-.38-2.16-.31-4,.23-4.22,1.05-.37,1.19.89,1.19.89,2.12-1.93,3.49-6.54,2.2-9.38a2.58,2.58,0,0,1,1.1-3.32l-.63-3.42s-6.83-1.47-8.83,1.62-.63,7.83,1.39,14.1A29.24,29.24,0,0,0,232.44,231.89Z" style="fill:#263238"/><path d="M229.39,228.72a7.44,7.44,0,0,0,4.33,3.72c2.49.8,3.83-1.41,3.23-3.82-.56-2.13-2.51-5.19-5.06-4.92S228.31,226.54,229.39,228.72Z" style="fill:#e2877b"/><path d="M231.83,213.58s-1.64-4.2,3.24-7.43a15.75,15.75,0,0,1,16.23-.52c4.67,2.78,6.48,8.89,6.48,8.89a3.52,3.52,0,0,0-3.39.15l.66,2.12a7.23,7.23,0,0,0-4.11-1.58l1.58,2A38.5,38.5,0,0,0,239,215.8Z" style="fill:#263238"/></g><g id="freepik--character-3--inject-7"><polygon points="317.66 352.88 309.44 373.46 304.54 385.72 298.6 385.72 302.51 371.25 308.89 347.63 317.66 352.88" style="fill:#eec1bb"/><polygon points="317.66 352.88 309.44 373.46 302.51 371.25 308.89 347.63 317.66 352.88" style="opacity:0.2;isolation:isolate"/><polygon points="343.86 371.22 346.95 393.16 348.79 406.23 343.63 409.19 339.84 394.69 333.64 371.02 343.86 371.22" style="fill:#eec1bb"/><polygon points="343.86 371.22 346.95 393.16 339.84 394.69 333.64 371.02 343.86 371.22" style="opacity:0.2;isolation:isolate"/><polygon points="333.98 255.93 306.3 255.36 330.39 282.77 356.29 281.05 333.98 255.93" style="fill:#FFC100"/><polygon points="333.98 255.93 306.3 255.36 330.39 282.77 356.29 281.05 333.98 255.93" style="fill:#fff;opacity:0.30000000000000004"/><polygon points="333.36 258.92 312 258.49 330.6 279.64 350.59 278.31 333.36 258.92" style="fill:#fff"/><rect x="322.23" y="251.74" width="21.84" height="0.9" transform="translate(-14.36 484.2) rotate(-70.85)" style="fill:#263238"/><path d="M329,264.27l1-1.61a.86.86,0,0,0-.85-.3Z" style="fill:#FFC100"/><path d="M329.21,263.88c0-.11-.11-.13-.2-.07l-.05.46Z" style="fill:#263238"/><path d="M348,265.69l-5.75-6.53a9.66,9.66,0,0,0-.78-2.07c-.59-1.19-6-4.55-7.94-5.24s-7.59,4.55-7.09,5.34,7.71,5.47,9.39,5.35l1.68-.11,6.53,8.11Z" style="fill:#eec1bb"/><path d="M367.86,215.92a3.59,3.59,0,1,1,3.63-3.58A3.6,3.6,0,0,1,367.86,215.92Zm0-6.23a2.65,2.65,0,1,0,2.62,2.65A2.63,2.63,0,0,0,367.86,209.69Z" style="fill:#263238"/><path d="M380.87,227.63a12.71,12.71,0,0,1-3.43.69h0c-2.38,0-4.26-.29-5.74-1.32-3.34-2.32-4.55-7.45-4.64-13.8-.14-8.28,2.23-12.78,10.82-13.47C392.13,198.59,395.17,223.48,380.87,227.63Z" style="fill:#eec1bb"/><path d="M384.54,223.8a17.34,17.34,0,0,1-7.1,4.52h0c-2.38,0-4.26-.28-5.74-1.31C376,223.74,384.54,223.8,384.54,223.8Z" style="opacity:0.2;isolation:isolate"/><path d="M372.08,204.05s-4.38,8.3,3.09,13c0,0,5.11,7.9,13.35,6.84s13.13-13,7.68-23.45C391,190.52,373.47,196,373.47,196c-7.5-3.16-10.55,5.91-5,8.74A6.24,6.24,0,0,1,372.08,204.05Z" style="fill:#2e353a"/><path d="M372.16,214.58a3.67,3.67,0,0,1,3.68-3.86c2.71.13,4.59,5.75-1.9,7.56C373,218.54,372.37,217.6,372.16,214.58Z" style="fill:#eec1bb"/><path d="M367,200.3s-.84,4,5.12,10.42a41.19,41.19,0,0,0,13.66,9.34l-1.28-25.58-14.05.86Z" style="fill:#2e353a"/><rect x="364.67" y="211.66" width="7.49" height="0.99" style="fill:#263238"/><path d="M380.13,241.65c6.26.72,14.4-3.75,14.4-3.75-5.91-3.79-6.81-14.1-6.81-14.1-5.73-2.22-10.15,3-10.15,3a24.49,24.49,0,0,1,1,3.78c1,5.51-1.69,6-1.69,6C375.69,239.76,378.54,241.47,380.13,241.65Z" style="fill:#eec1bb"/><path d="M375.25,235.18l2.86-4.3c5.05-3.88,12.09-2.51,12.09-2.51l3.94,6.91S381,235.82,375.25,235.18Z" style="fill:#FFC100"/><path d="M373.37,273.84c-7.65-1.45-14.73-3.62-14.73-3.62l-2,4.84a147.09,147.09,0,0,0,16.75,6.63Z" style="fill:#eec1bb"/><path d="M407.1,250.88c-.06-7.51-2.37-9.35-2.37-9.35l-4.22,10.74,1.23,29.43S407.15,258.4,407.1,250.88Z" style="fill:#FFC100"/><path d="M403,281.48c1.58.41-1.49-25.33,1.77-40,0,0-2.47-4.27-12.11-7-11.2-3.16-25.06,2.26-29.29,3.86,0,0-2.89,23.74,6.27,45.46C369.6,283.87,381.8,283.59,403,281.48Z" style="fill:#FFC100"/><path d="M403,281.48c1.14.19-1.2-25.54,1.77-40,0,0-2.47-4.27-12.11-7-11.2-3.16-25.06,2.26-29.29,3.86,0,0-2.89,23.74,6.27,45.46C369.6,283.87,381.8,283.59,403,281.48Z" style="opacity:0.2;isolation:isolate"/><path d="M359.87,270.59s-8-3.44-10.83-4.17-3,8.14-1.79,9.45,12,1.27,12.76,0S359.87,270.59,359.87,270.59Z" style="fill:#eec1bb"/><path d="M287.39,394.39a9.73,9.73,0,0,1,3.2-.76h0s3.84-2.1,7.65-10.27l4.28,0a3.51,3.51,0,0,1,3.28,2.2,1.69,1.69,0,0,1,.12.55,21.36,21.36,0,0,1-.32,2.87,75.4,75.4,0,0,1-2.51,9.37l-.72-.17,1.32-5.95c.44-2-1.84-.07-2.9,2s-2.68,4.09-7.4,3.08C287.88,396.05,285.66,395.31,287.39,394.39Z" style="fill:#2e353a"/><path d="M305.92,385.63c.81-1.93,1.84-5.38,1.84-5.38l-9.16-1.19s0,4.19-1.7,6.94C301.69,386,305.92,385.63,305.92,385.63Z" style="fill:#2e353a"/><path d="M386.86,221.58a8.56,8.56,0,0,1,8.46-6.59c7.24-.24,6.06,6,8.09,7.29s3.28.32,4.8,2.28-.84,4.23-.76,6.19,2.7,2.36,2.7,5-3,2.9-4.13,6.12.92,3.47.92,5.34-.67,3.05-3.2,3c0,0,2.09-1.1.71-2.35s-4.95-2.43-5.95-4.94,3.47-5.26-.65-7.92-6.32-.87-7.84-6.12S386.86,221.58,386.86,221.58Z" style="fill:#2e353a"/><path d="M363.33,238.41c9.52,4.11,6.76,41.34-2.7,43.81s-21.48-15.84-21.48-15.84l5.64-5.54s9,8.4,10.88,8.22,3.1-18.11,3.62-21.92C360.33,239.48,363.33,238.41,363.33,238.41Z" style="fill:#FFC100"/><path d="M403,281.48s-31-4.13-33.36,2.39c-.45,1.27-1,8.74-1.31,10.86s-.6,3.67-.6,3.67h0c-1-.23-28.06-7.71-40.33,0-8.89,5.6-19,45.36-24.61,69.42l8.54,3c9.67-20.92,24.66-52.19,28-52.32,5.05-.2,56.51,21.82,69.41,9.61S403,281.48,403,281.48Z" style="fill:#FFC100"/><g style="opacity:0.6000000000000001;isolation:isolate"><path d="M403,281.48s-31-4.13-33.36,2.39c-.45,1.27-1,8.74-1.31,10.86s-.6,3.67-.6,3.67h0c-1-.23-28.06-7.71-40.33,0-8.89,5.6-19,45.36-24.61,69.42l8.54,3c9.67-20.92,24.66-52.19,28-52.32,5.05-.2,56.51,21.82,69.41,9.61S403,281.48,403,281.48Z" style="fill:#fff"/></g><path d="M333.58,418.54a9.25,9.25,0,0,1,2.89-1.5h0s3.13-2.94,4.57-11.75l4.13-1a3.65,3.65,0,0,1,3.78,1.34,1.62,1.62,0,0,1,.27.5,21.58,21.58,0,0,1,.47,2.86,72.86,72.86,0,0,1,.15,9.65h-.75l-.35-6.06c-.13-2.06-1.8.37-2.26,2.59s-1.47,4.59-6.32,4.74C334.51,420,332.16,419.84,333.58,418.54Z" style="fill:#2e353a"/><path d="M349.1,405.66c.25-2.06.3-5.64.3-5.64l-9.19,1s1.15,4.06.27,7.12C345.1,407,349.1,405.66,349.1,405.66Z" style="fill:#2e353a"/><path d="M347.19,388.41c-2.76-25.31-6.29-51.25-6.51-53,.95.39,32.79-4.13,47-4.78,0,0-23.48-3.94-36.32-9.7-3.34-1.5-12.69-6.32-12.69-6.32h0s-18.95.94-19.21,10.59c-.16,6.41,10.66,42,17.95,65.2Z" style="fill:#FFC100"/><g style="opacity:0.5"><path d="M347.19,388.41c-2.76-25.31-6.29-51.25-6.51-53,.95.39,32.79-4.13,47-4.78,0,0-23.48-3.94-36.32-9.7-3.34-1.5-12.69-6.32-12.69-6.32h0s-18.95.94-19.21,10.59c-.16,6.41,10.66,42,17.95,65.2Z" style="fill:#fff"/></g><polygon points="371.13 338.27 371.46 352.49 372.96 419 377.9 419 379.39 352.49 379.72 338.27 371.13 338.27" style="fill:#263238"/><polygon points="371.13 338.27 371.46 352.49 372.96 419 377.9 419 379.39 352.49 379.72 338.27 371.13 338.27" style="fill:#fff;opacity:0.1;isolation:isolate"/><polygon points="371.13 338.27 371.46 352.88 379.39 352.88 379.72 338.27 371.13 338.27" style="opacity:0.2;isolation:isolate"/><polygon points="386.53 338.27 386.86 352.49 388.36 419 393.3 419 394.79 352.49 395.12 338.27 386.53 338.27" style="fill:#263238"/><polygon points="386.53 338.27 386.86 352.49 388.36 419 393.3 419 394.79 352.49 395.12 338.27 386.53 338.27" style="fill:#fff;opacity:0.2;isolation:isolate"/><polygon points="386.53 338.27 386.86 352.88 394.79 352.88 395.12 338.27 386.53 338.27" style="opacity:0.2;isolation:isolate"/><polygon points="344.3 418.77 348.86 339.27 356.32 339.27 349.94 418.77 344.3 418.77" style="fill:#263238"/><polygon points="349.95 418.77 344.31 418.77 348.45 346.21 348.86 339.18 356.32 339.18 355.75 346.21 349.95 418.77" style="fill:#fff;opacity:0.2;isolation:isolate"/><polygon points="356.32 339.18 355.75 346.49 348.45 346.49 348.86 339.18 356.32 339.18" style="opacity:0.2;isolation:isolate"/><polygon points="417.87 418.77 411.48 339.27 418.94 339.27 423.51 418.77 417.87 418.77" style="fill:#263238"/><polygon points="417.86 418.77 412.06 346.21 411.49 339.18 418.95 339.18 419.36 346.21 423.5 418.77 417.86 418.77" style="fill:#fff;opacity:0.1;isolation:isolate"/><polygon points="411.49 339.18 412.06 346.49 419.36 346.49 418.95 339.18 411.49 339.18" style="opacity:0.2;isolation:isolate"/><path d="M344.87,331.26h78.08a0,0,0,0,1,0,0v5.68a5,5,0,0,1-5,5H349.87a5,5,0,0,1-5-5v-5.68A0,0,0,0,1,344.87,331.26Z" transform="translate(767.81 673.21) rotate(180)" style="fill:#FFC100"/><rect x="341.94" y="336.6" width="83.93" height="5.34" rx="2.01" transform="translate(767.81 678.55) rotate(-180)" style="fill:#263238"/><rect x="341.94" y="336.6" width="83.93" height="5.34" rx="2.01" transform="translate(767.81 678.55) rotate(-180)" style="fill:#fff;opacity:0.4;isolation:isolate"/><path d="M379.72,277l2.64-21.38a4.7,4.7,0,0,1,4.7-4.7h6.29l-2.64,30.78h-6.29A4.69,4.69,0,0,1,379.72,277Z" style="fill:#FFC100"/><polygon points="385.54 336.85 396.75 254.99 391.04 254.21 379.72 336.87 385.54 336.85" style="fill:#263238"/><polygon points="421.29 336.87 432.51 254.99 426.79 254.21 415.48 336.87 421.29 336.87" style="fill:#263238"/><g style="opacity:0.2;isolation:isolate"><polygon points="385.54 336.85 396.75 254.99 391.04 254.21 379.72 336.87 385.54 336.85" style="fill:#fff"/></g><g style="opacity:0.2;isolation:isolate"><polygon points="421.29 336.87 432.51 254.99 426.79 254.21 415.48 336.87 421.29 336.87" style="fill:#fff"/></g><polygon points="383.04 282.22 434.37 282.22 438.47 250.21 387.14 250.21 383.04 282.22" style="fill:#263238"/><polygon points="383.04 282.22 434.37 282.22 438.47 250.21 387.14 250.21 383.04 282.22" style="fill:#fff;opacity:0.6000000000000001;isolation:isolate"/></g></svg>