<?xml version="1.0" encoding="UTF-8" standalone="no"?>
<svg id="svg4" height="155.19501" viewBox="0 0 643.9998 155.19501" width="643.99982" xmlns="http://www.w3.org/2000/svg">
   <path id="path2" d="m221.65231 142.53283l-2.17478-4.33032h-12.08636v-7.75604h11.7977v-4.31108h-11.7977v-7.27489h12.08636l2.17478-4.31107h-19.16881v27.9834zm-37.83724 0v-23.67233h6.62056l1.86685-4.31107h-21.86325v4.31107h8.46817v23.67233zm87.97254 0v-27.9834h-4.90767v11.45126h-14.56907v-11.45126h-4.88843v27.9834h4.88843v-12.22109h14.56907v12.22109zm32.179.0191l-2.15554-4.31108h-12.10561v-7.77528h11.79767v-4.31108h-11.79767v-7.2749h12.10561l2.15554-4.31106h-19.16883v27.9834zm33.31446-.0191l-6.83225-10.98937c3.34876-.53887 6.62056-3.23327 6.62056-8.21794 0-5.15788-3.59897-8.75684-9.14176-8.75684h-12.29806v27.9834h4.90768v-10.45047h4.86917l6.21641 10.45047h5.65825zm-10.02706-14.76153h-6.71677v-8.89156h6.71677c2.7714 0 4.7922 1.77062 4.7922 4.44578 0 2.67517-2.0208 4.44578-4.7922 4.44578m41.62867 14.78078l-2.15554-4.31108h-12.1056v-7.77528h11.79768v-4.31108h-11.79768v-7.2749h12.1056l2.15554-4.31106h-19.16882v27.9834zm37.56779-.0191v-27.98342h-4.90767v19.41901l-14.29964-19.41901h-5.04238v27.9834h4.90766v-19.97715l14.60757 19.97715zm35.73945-24.07648c-2.25176-2.50197-5.42731-4.36881-10.00782-4.36881-8.10247 0-14.68453 5.69675-14.68453 14.47285 0 8.77608 6.58206 14.51133 14.68453 14.51133 4.86919 0 8.7761-2.00157 11.52824-5.06166v-10.48898h-11.2203v4.31106h6.33187v4.36879c-1.25097 1.174-3.77218 2.52121-6.63981 2.52121-5.54278 0-9.64214-4.27257-9.64214-10.16178 0-5.86997 4.1186-10.12329 9.64214-10.12329 2.88688 0 5.29261 1.40493 6.79377 3.23329zm40.06975 24.07648l-10.98935-27.98339h-6.12016l-10.98935 27.98339h5.58129l2.0593-5.36957h12.83694l2.0593 5.36957zm-9.02627-9.69988h-10.06555l5.04239-13.33734zm58.00683 9.69988l7.02472-27.98339h-5.5043l-4.44578 20.97792-5.79298-20.97792h-3.90689l-5.793 20.97792-4.5035-20.97792h-5.48506l7.0632 27.98339h5.23486l5.40807-20.65074 5.46582 20.65074zm41.35923 0l-10.98935-27.98339h-6.12016l-10.98935 27.98339h5.58127l2.0593-5.36957h12.83695l2.0593 5.36957zm-9.00703-9.69988h-10.06556l5.0424-13.33734zm41.33997 9.69988l-12.20184-14.76152 11.37427-13.22187h-6.08167l-10.95086 13.33731v-13.33734h-4.90767v27.9834h4.90767v-8.9493l2.42497-2.84839 9.39195 11.79769zm35.73945 0l-10.98935-27.98339h-6.12016l-10.98935 27.98339h5.58129l2.05929-5.36957h12.83694l2.0593 5.36957zm-9.02627-9.69988h-10.06556l5.0424-13.33734zm10.35424-36.952091v-50.847402h-10.89313v31.948027l-23.71083-31.948027h-11.20105v50.847402h10.91237v-33.160513l24.38443 33.160513zm-419.86637-.307934l12.47129-50.8474h-12.27883l-6.79377 35.662465-9.66138-35.662465h-8.52589l-9.73837 35.662465-6.87075-35.662465h-12.1826l12.52902 50.8474h11.58597l8.91081-34.911878 8.96854 34.911878zm56.69814.384917l-4.19559-9.526671h-21.13189v-11.508989h20.593v-9.545915h-20.593v-10.739157h21.13189l4.19559-9.52667h-36.2206v50.847402zm208.93239-43.822685c-4.04161-4.599746-10.10405-8.179465-18.86088-8.179465-15.10796 0-27.48302 10.315749-27.48302 26.539957 0 16.147226 11.18183 26.61694 26.27052 26.61694 9.37271 0 17.93711-3.849159 23.19121-9.699882v-19.688453h-22.53684v9.545916h11.52823v6.158656c-2.09779 1.92458-6.42809 3.926143-10.98935 3.926143-9.3727 0-16.18572-7.159437-16.18572-16.840074 0-9.699882 6.81302-16.840075 16.18572-16.840075 5.04239 0 9.10326 2.636675 11.54748 5.850723zm73.49971 44.6695c15.49287 0 27.32903-10.970106 27.32903-26.309008 0-15.319656-11.27804-26.309008-26.77091-26.309008-15.41588 0-26.69392 10.970106-26.69392 26.309008-.0191 15.338902 10.7199 26.309008 26.1358 26.309008m.53887-9.603654c-9.43044 0-15.49286-7.236421-15.49286-16.686108 0-9.526671 6.06242-16.686108 15.49286-16.686108 9.43046 0 15.56985 7.159437 15.56985 16.686108.0191 9.449687-6.12016 16.686108-15.56985 16.686108m-42.16754 8.679856v-41.301485h12.79846l4.19558-9.545917h-42.91813v9.545917h14.95399v41.301485zm-154.06262-50.847402h10.89312v50.847402h-10.89312zm-47.96053 50.847402v-9.526671h-19.34203v-41.320731h-10.89312v50.847402zm39.10746 0v-9.526671h-19.34204v-41.320731h-10.91235v50.847402zm76.71376 0v-50.847402h-10.89313v31.948027l-23.71082-31.948027h-11.20105v50.847402h10.91236v-33.160513l24.38443 33.160513zm-169.4785-67.591247c6.42809 0 10.95085-4.676729 10.95085-11.085581 0-6.389604-4.52276-11.0855802-10.95085-11.0855802-6.42811 0-10.95087 4.6767302-10.95087 11.0855802 0 6.408852 4.52276 11.085581 10.95087 11.085581m0-3.329523c-4.33032 0-7.1017-3.34877-7.1017-7.736811 0-4.426534 2.75214-7.7368123 7.1017-7.7368123 4.31105 0 7.10169 3.3102783 7.10169 7.7368123 0 4.388041-2.79064 7.736811-7.10169 7.736811m-82.21807 2.944607l7.65983-21.4205744h-4.27257l-5.73524 17.3404644-5.716-17.3404644h-4.27256l7.65981 21.4205744zm157.93104 0l-8.41042-21.4205744h-4.69597l-8.41042 21.4205744h4.27258l1.57814-4.1186h9.8346l1.57816 4.1186zm-6.90925-7.409633h-7.71755l3.84915-10.219519zm-135.70212-14.0109414h3.75291v21.4205744h-3.75291zm27.42526 5.6390184l2.5212-2.5404455c-1.63589-1.9438251-4.02238-3.4449971-7.54437-3.4449971-6.33186 0-11.23954 4.4842706-11.23954 11.0855806 0 6.582063 4.90768 11.085581 11.23954 11.085581 3.52199 0 5.88923-1.501174 7.54437-3.444999l-2.5212-2.5212c-1.09702 1.539664-2.9446 2.636675-5.02317 2.636675-4.23406 0-7.39037-3.233295-7.39037-7.736812 0-4.503516 3.15631-7.7368108 7.39037-7.7368108 2.07857-.03849 3.92615 1.0970108 5.02317 2.6174278m18.20653 15.781556v-18.110298h5.08088l1.42419-3.3102764h-16.74384v3.3102764h6.48583v18.110298zm56.02452 0l-5.23486-8.410415c2.55969-.423407 5.08089-2.463462 5.08089-6.293375 0-3.9453891-2.75216-6.7167844-7.00547-6.7167844h-9.4112v21.4205744h3.75292v-7.987007h3.73369l4.75372 7.987007zm-7.65983-11.297284h-5.13864v-6.813014h5.13864c2.11703 0 3.65671 1.347206 3.65671 3.406508 0 2.0593-1.53968 3.406506-3.65671 3.406506m16.18571-10.1232904h3.75293v21.4205744h-3.75293zm60.35484 21.8054904c6.19714 0 9.23798-3.521982 9.23798-8.853067v-12.9524234h-3.79143v12.8369474c0 3.406507-1.90533 5.619774-5.4658 5.619774-3.59898 0-5.48505-2.213267-5.48505-5.619774v-12.8369474h-3.79142v12.9716684c.0191 5.273349 3.06006 8.833822 9.29572 8.833822m36.8557-.384916v-21.4205744h-3.75293v14.8770024l-10.97011-14.8770024h-3.82991v21.4205744h3.73368v-15.281164l11.18182 15.281164zm9.96932-21.4205744h3.75292v21.4205744h-3.75292zm24.40367 21.4205744l7.64058-21.4205744h-4.27257l-5.71599 17.3404644-5.71601-17.3404644h-4.27256l7.64057 21.4205744zm30.69706 0l-1.65515-3.310278h-9.25723v-5.927707h9.02628v-3.310277h-9.02628v-5.562036h9.25723l1.65515-3.3102764h-14.6653v21.4205744zm25.63539 0l-5.23485-8.410415c2.55968-.423407 5.08089-2.463462 5.08089-6.293375 0-3.9453891-2.75215-6.7167844-7.00547-6.7167844h-9.4112v21.4205744h3.75293v-7.987007h3.73369l4.75372 7.987007zm-7.67907-11.297284h-5.13863v-6.813014h5.13863c2.11704 0 3.6567 1.347206 3.6567 3.406508 0 2.0593-1.53966 3.406506-3.6567 3.406506m28.92643-4.965417l2.50196-2.521199c-1.98232-1.905334-4.67673-2.963853-8.00625-2.963853-4.69598 0-7.79455 2.7329031-7.79455 6.254884 0 7.910023 12.49052 5.100137 12.49052 9.603654 0 1.404943-1.21248 2.925362-4.31105 2.925362-2.75216 0-4.88844-1.19324-6.37036-2.598183l-2.42497 2.463462-.0577.07698c1.88609 2.020809 4.75371 3.406507 8.6991 3.406507 5.77374 0 8.27569-3.040836 8.27569-6.620554 0-8.006253-12.45203-5.523546-12.45203-9.507426 0-1.597402 1.40494-2.6751663 3.63745-2.6751663 2.09779.01925 4.19559.7120943 5.81223 2.1555293m11.83616-5.1578744h3.75292v21.4205734h-3.75292zm22.05563 21.4205734v-18.110298h5.0809l1.40494-3.3102764h-16.72459v3.3102764h6.48583v18.110298zm22.88328 0v-8.89156l7.52509-12.5290144h-4.31106l-5.08089 9.1994924-5.13862-9.1994924h-4.29182l7.54435 12.5290144v8.89156zm33.91108.384916c6.4281 0 10.95087-4.676729 10.95087-11.085581 0-6.389604-4.52277-11.0855801-10.95087-11.0855801-6.42809 0-10.95086 4.6767301-10.95086 11.0855801 0 6.408852 4.52277 11.085581 10.95086 11.085581m0-3.329523c-4.33031 0-7.10171-3.34877-7.10171-7.736811 0-4.426534 2.75215-7.7368123 7.10171-7.7368123 4.31107 0 7.1017 3.3102783 7.1017 7.7368123 0 4.388041-2.80988 7.736811-7.1017 7.736811m23.13346 2.944607v-9.237985h8.96854v-3.310277h-8.96854v-5.562036h9.23799l1.67437-3.3102764h-14.6653v21.4205744zm-604.510567 81.563699c6.254889-.0962 9.045526-4.71521 15.300414-4.84993 6.716779-.15397 9.796109 4.88841 16.493647 4.88841 6.716784 0 9.776866-4.88841 16.49365-4.88841 6.716783 0 9.776865 4.88841 16.49365 4.88841 6.716784 0 9.776876-5.04238 16.493656-4.88841 6.25487.15396 9.00703 4.77295 15.26193 4.84993.0191 0 .0385-.0191.0577-.0191-14.87701 16.10875-39.396168 29.04192-48.383957 33.00656-7.178681-2.88688-34.219035-16.22423-50.058327-33.35297.615865.15397 1.212493.36565 1.847598.36565m100.058976-31.851935l-16.51289 16.686107-16.532152-16.686107zm-50.654949-18.899375h33.045049l-16.512907 16.686108zm15.415885 18.899375l-16.512895 16.686107-16.532147-16.686107zm-33.045042-37.798749h33.045042l-16.512895 16.686107zm-2.21326 37.798749l-16.512896 16.686107-16.532145-16.686107zm-15.415892-18.899375h33.045042l-16.512895 16.686108zm94.439158-46.517097v17.1865h-122.172349v-17.1865zm-132.2763905-10.200273l-.0192495 82.949395c0 37.413825 64.800604 66.244045 70.786049 67.822185l1.616648.42342 1.539664-.61587c.673603-.26944 68.457319-29.65777 68.457319-67.629735v-82.949395z" fill="#004b34" stroke-width="1.92457998"/>
</svg>
