<?xml version="1.0" encoding="utf-8"?>
<!-- Generator: Adobe Illustrator 16.0.0, SVG Export Plug-In . SVG Version: 6.00 Build 0)  -->
<!DOCTYPE svg PUBLIC "-//W3C//DTD SVG 1.1//EN" "http://www.w3.org/Graphics/SVG/1.1/DTD/svg11.dtd">
<svg version="1.1" id="Capa_1" xmlns="http://www.w3.org/2000/svg" xmlns:xlink="http://www.w3.org/1999/xlink" x="0px" y="0px"
	 width="562.28px" height="218.89px" viewBox="0 0 562.28 218.89" enable-background="new 0 0 562.28 218.89" xml:space="preserve">
<g>
	<path fill-rule="evenodd" clip-rule="evenodd" d="M149.565,116.404c0.574-0.297,0.899-0.562,1.263-0.631
		c0.604-0.114,1.234-0.15,1.851-0.136c3.195,0.079,6.389,0.236,9.584,0.259c2.046,0.015,4.093-0.182,6.142-0.235
		c0.998-0.025,2.001,0.064,3.001,0.092c0.415,0.012,0.815,0.105,0.804,0.588c-0.011,0.484-0.432,0.515-0.833,0.573
		c-0.892,0.13-1.792,0.261-2.661,0.494c-1.394,0.373-1.822,1.066-1.37,2.422c1.039,3.113,2.161,6.197,3.251,9.293
		c0.267,0.758,0.529,1.519,0.812,2.272c1.837,4.904,3.682,9.807,5.519,14.712c1.585,4.232,3.153,8.473,4.748,12.702
		c1.276,3.381,2.583,6.751,3.878,10.124c0.082,0.213,0.192,0.415,0.34,0.728c0.261-0.471,0.503-0.813,0.653-1.192
		c1.228-3.097,2.423-6.205,3.656-9.3c1.797-4.512,3.658-8.999,5.417-13.526c1.397-3.591,2.677-7.229,4.018-10.841
		c1.243-3.348,2.524-6.682,3.734-10.042c0.562-1.561,1.071-3.149,1.458-4.76c0.388-1.616-0.085-2.293-1.693-2.676
		c-0.875-0.207-1.784-0.272-2.671-0.436c-0.289-0.053-0.559-0.214-0.871-0.633c0.348-0.17,0.685-0.448,1.047-0.488
		c0.897-0.102,1.809-0.143,2.712-0.118c2.287,0.063,4.573,0.231,6.859,0.248c1.664,0.012,3.33-0.177,4.995-0.231
		c0.974-0.032,1.992-0.233,2.87,0.391c-0.013,0.606-0.355,0.746-0.822,0.851c-1.107,0.249-2.21,0.526-3.297,0.851
		c-1.25,0.371-2.075,1.255-2.776,2.329c-2.151,3.308-3.276,7.079-4.867,10.639c-1.301,2.911-2.489,5.87-3.696,8.82
		c-0.901,2.201-1.738,4.429-2.632,6.634c-0.912,2.254-1.848,4.498-2.791,6.74c-1.605,3.818-3.21,7.638-4.842,11.445
		c-1.256,2.93-2.548,5.844-3.831,8.761c-0.94,2.135-1.889,4.266-2.842,6.394c-0.234,0.522-0.484,1.04-0.766,1.539
		c-0.587,1.041-1.287,1.107-1.913,0.103c-0.575-0.925-1.085-1.907-1.492-2.918c-1.439-3.578-2.802-7.187-4.229-10.771
		c-1.11-2.784-2.294-5.539-3.404-8.322c-1.181-2.964-2.291-5.955-3.474-8.918c-1.181-2.959-2.438-5.889-3.614-8.85
		c-1.074-2.701-2.052-5.44-3.13-8.139c-0.953-2.384-1.998-4.73-2.979-7.104c-0.473-1.145-0.938-2.297-1.332-3.471
		c-1.043-3.109-3.177-4.877-6.407-5.358c-0.798-0.119-1.596-0.257-2.387-0.424C150.307,116.835,150.084,116.663,149.565,116.404z"/>
	<path fill-rule="evenodd" clip-rule="evenodd" d="M53.226,37.029c-0.42,0.102-0.835,0.238-1.262,0.298
		c-0.8,0.112-1.626,0.101-2.406,0.285c-1.123,0.265-1.566,1.013-1.354,2.134c0.133,0.701,0.288,1.409,0.54,2.074
		c1.665,4.412,3.367,8.81,5.034,13.221c0.42,1.11,0.719,2.267,1.136,3.379c0.937,2.498,1.919,4.979,2.867,7.473
		c0.507,1.331,0.967,2.682,1.473,4.014c1.102,2.896,2.229,5.783,3.327,8.682c0.454,1.199,0.837,2.425,1.293,3.623
		c0.964,2.533,1.956,5.057,3.012,7.78c0.18-0.348,0.31-0.553,0.399-0.774c2.313-5.741,4.656-11.47,6.92-17.229
		c1.916-4.875,3.764-9.777,5.598-14.685c1.752-4.685,3.469-9.382,5.153-14.091c0.398-1.113,0.656-2.284,0.887-3.446
		c0.243-1.218-0.34-2.055-1.557-2.257c-0.795-0.132-1.614-0.138-2.423-0.172c-0.648-0.028-1.093-0.247-1.117-1.182
		c0.732-0.083,1.469-0.238,2.206-0.238c1.813-0.001,3.625,0.107,5.438,0.102c2.912-0.01,5.823-0.09,8.735-0.104
		c0.637-0.003,1.275,0.149,1.94,0.234c-0.019,0.921-0.429,1.137-1.087,1.196c-0.846,0.076-1.692,0.207-2.526,0.375
		c-1.629,0.328-2.628,1.468-3.439,2.804c-1.963,3.237-3.155,6.825-4.624,10.285c-1.453,3.419-2.868,6.854-4.286,10.287
		c-0.4,0.968-0.728,1.967-1.132,2.933c-1.029,2.459-2.097,4.9-3.123,7.361c-2.126,5.099-4.183,10.228-6.367,15.302
		c-2.053,4.77-4.231,9.483-6.362,14.219c-0.238,0.53-0.57,1.172-1.206,1.016c-0.472-0.116-1.004-0.591-1.22-1.044
		c-1.001-2.109-1.955-4.245-2.828-6.411c-1.566-3.886-3.06-7.803-4.589-11.704c-1.511-3.858-3.014-7.72-4.548-11.568
		c-1.128-2.832-2.309-5.645-3.454-8.47c-0.5-1.236-0.959-2.49-1.456-3.728c-2.002-4.993-4.008-9.985-6.024-14.974
		c-0.443-1.097-0.852-2.219-1.416-3.253c-0.893-1.635-2.373-2.602-4.155-3.008c-1.154-0.263-2.362-0.279-3.536-0.472
		c-0.266-0.044-0.489-0.357-0.732-0.546c0.216-0.268,0.414-0.554,0.658-0.793c0.079-0.078,0.275-0.05,0.417-0.049
		c1.957,0.018,3.915,0.05,5.873,0.053c3.102,0.006,6.204-0.017,9.306-0.012c1.622,0.003,3.245,0.004,4.863,0.078
		c0.405,0.02,0.799,0.318,1.198,0.489C53.255,36.687,53.241,36.858,53.226,37.029z"/>
	<path fill-rule="evenodd" clip-rule="evenodd" d="M58.561,181.267c0.529-0.224,0.841-0.423,1.179-0.486
		c0.653-0.121,1.32-0.161,1.98-0.245c1.005-0.127,1.628-0.662,1.893-1.668c0.614-2.342,0.922-4.716,0.92-7.136
		c-0.006-10.604,0.011-21.209-0.019-31.812c-0.004-1.348-0.21-2.696-0.363-4.041c-0.148-1.312-1-2.034-2.211-2.31
		c-0.919-0.209-1.869-0.303-2.812-0.392c-0.615-0.059-1.257,0.017-1.583-0.96c0.439-0.076,0.82-0.2,1.201-0.198
		c6.493,0.018,12.989,0.166,19.48,0.043c5.489-0.103,10.974-0.251,16.399,0.688c2.763,0.478,5.538,1.09,8.181,2.005
		c4.23,1.463,7.976,3.829,10.877,7.3c1.178,1.408,2.143,3.021,3.035,4.637c1.107,2.004,1.943,4.128,2.098,6.468
		c0.231,3.522,0.359,7.058-0.841,10.431c-1.249,3.514-3.096,6.684-5.708,9.434c-1.494,1.573-3.087,3.036-4.898,4.111
		c-2.984,1.771-6.2,3.092-9.603,3.967c-4.766,1.226-9.599,1.49-14.473,1.337c-4.142-0.13-8.279-0.421-12.422-0.533
		c-3.389-0.092-6.783-0.023-10.174-0.029c-0.429-0.001-0.867,0.03-1.285-0.045C59.181,181.788,58.982,181.556,58.561,181.267z
		 M71.33,154.307c0.032,0,0.064,0,0.097,0c0,5.725-0.036,11.451,0.021,17.175c0.017,1.652,0.19,3.306,0.695,4.921
		c0.248,0.794,0.625,1.426,1.296,1.783c0.918,0.488,1.885,0.985,2.89,1.191c4.573,0.938,9.221,0.741,13.833,0.533
		c4.011-0.181,7.904-1.199,11.636-2.716c1.581-0.643,3.212-1.251,4.64-2.16c4.618-2.943,6.679-7.499,7.621-12.688
		c0.126-0.699,0.266-1.413,0.26-2.119c-0.014-1.928,0.04-3.854-0.307-5.777c-0.303-1.681-0.541-3.354-1.444-4.85
		c-1.325-2.19-2.695-4.294-4.456-6.229c-2.463-2.706-5.391-4.535-8.668-5.823c-3.053-1.2-6.263-2.004-9.538-2.404
		c-2.076-0.253-4.167-0.436-6.256-0.528c-3.423-0.149-6.846-0.486-10.275,0.03c-1.734,0.262-1.83,0.578-1.93,2.052
		c-0.109,1.614-0.105,3.238-0.11,4.859C71.321,145.807,71.33,150.056,71.33,154.307z"/>
	<path fill-rule="evenodd" clip-rule="evenodd" d="M300.136,102.168c-0.379,0.089-0.759,0.254-1.136,0.256
		c-4.778,0.017-9.558,0.015-14.336,0.001c-0.346-0.001-0.693-0.136-1.396-0.281c0.529-0.377,0.744-0.629,1.006-0.695
		c0.503-0.128,1.035-0.141,1.554-0.221c1.094-0.166,1.596-0.874,1.846-1.901c0.594-2.433,0.555-4.91,0.559-7.38
		c0.021-10.655,0.028-21.311-0.012-31.967c-0.005-1.506,0.138-3.036-0.413-4.528c-0.297-0.803-0.735-1.325-1.509-1.547
		c-0.728-0.209-1.483-0.328-2.227-0.48c-0.498-0.102-0.998-0.192-1.473-0.284c-0.027-0.624,0.245-0.835,0.678-0.866
		c0.381-0.027,0.764-0.024,1.146-0.024c4.388-0.001,8.777,0.057,13.162-0.021c3.023-0.053,5.983,0.307,8.938,0.875
		c3.079,0.592,5.353,2.327,7.188,4.796c1.943,2.614,2.485,5.599,1.89,8.647c-0.504,2.575-1.217,5.148-2.845,7.39
		c-1.188,1.634-2.604,3.03-3.909,4.539c-0.245,0.283-0.502,0.555-0.832,0.921c0.503,0.303,0.911,0.62,1.372,0.814
		c2.67,1.123,4.668,3.092,6.591,5.16c0.392,0.42,0.812,0.816,1.151,1.273c1.725,2.324,3.33,4.725,4.831,7.202
		c1.053,1.741,1.952,3.614,3.601,4.927c0.295,0.235,0.592,0.484,0.924,0.657c2.53,1.325,5.203,1.708,8.024,1.235
		c1.688-0.282,3.395-0.455,5.091-0.69c1.328-0.184,2.607-0.472,3.715-1.334c0.571-0.444,1.201-0.916,2.119-0.827
		c-0.051,0.672-0.163,1.202-0.651,1.682c-1.523,1.496-3.267,2.59-5.273,3.331c-3.707,1.368-7.516,1.779-11.41,1.316
		c-2.928-0.349-5.57-1.457-8.038-3.112c-1.66-1.113-3.036-2.483-4.229-4.01c-1.836-2.349-3.504-4.831-5.212-7.279
		c-1.666-2.39-3.589-4.525-5.837-6.389c-0.673-0.558-1.106-1.411-1.995-1.721c-0.483-0.168-0.985-0.389-1.481-0.399
		c-2.149-0.044-4.301-0.033-6.45-0.012c-0.995,0.01-1.164,0.157-1.154,1.185c0.03,3.291,0.105,6.581,0.171,9.871
		c0.023,1.189,0.014,2.383,0.114,3.566c0.103,1.224,0.282,2.444,0.497,3.654c0.157,0.881,0.741,1.447,1.631,1.589
		c0.939,0.15,1.893,0.21,2.835,0.333c0.401,0.053,0.792,0.171,1.188,0.259C300.138,101.842,300.136,102.005,300.136,102.168z
		 M293.688,66.434c0,3.247-0.005,6.494,0.004,9.741c0.003,1.741,0.253,2.107,1.928,2.426c2.493,0.477,5.017,0.609,7.544,0.298
		c2.278-0.281,4.087-1.542,5.084-3.475c1.101-2.134,1.741-4.479,1.76-6.985c0.028-3.904-0.542-7.545-3.243-10.601
		c-0.843-0.953-1.826-1.664-2.943-2.209c-2.881-1.403-5.904-1.248-8.968-0.846c-0.814,0.107-1.044,0.541-1.131,1.195
		c-0.049,0.376-0.032,0.763-0.032,1.144C293.688,60.227,293.688,63.331,293.688,66.434z"/>
	<path fill-rule="evenodd" clip-rule="evenodd" d="M145.064,102.306c-0.895,0.147-1.41-0.357-1.86-0.809
		c-2.558-2.562-5.074-5.169-7.608-7.755c-1.535-1.565-3.09-3.11-4.612-4.688c-1.253-1.3-2.471-2.635-3.704-3.954
		c-0.941-1.006-1.887-2.006-2.82-3.019c-5.042-5.467-10.082-10.935-15.115-16.41c-1.16-1.262-2.282-2.56-3.43-3.833
		c-0.117-0.131-0.29-0.212-0.615-0.441c0,0.992-0.021,1.81,0.004,2.625c0.074,2.521,0.161,5.042,0.252,7.563
		c0.085,2.366,0.198,4.733,0.266,7.101c0.04,1.382-0.014,2.767,0.025,4.148c0.101,3.557,0.183,7.114,0.368,10.668
		c0.081,1.547,0.348,3.09,0.616,4.621c0.283,1.618,1.41,2.426,2.948,2.697c0.919,0.162,1.856,0.231,2.769,0.34
		c0.035,0.613-0.234,0.81-0.684,0.815c-0.669,0.009-1.338,0.009-2.008,0.009c-3.864,0.002-7.729,0.006-11.595-0.006
		c-0.483-0.001-1.08,0.187-1.349-0.628c0.588-0.43,1.298-0.445,1.976-0.517c2.081-0.218,2.599-0.612,2.828-2.677
		c0.224-2.033,0.375-4.086,0.38-6.131c0.034-12.426,0.013-24.853,0.025-37.278c0.001-0.996,0.096-1.994,0.198-2.986
		c0.092-0.894,0.531-1.085,1.201-0.49c1.104,0.982,2.205,1.979,3.216,3.054c3.003,3.196,5.97,6.428,8.936,9.659
		c2.063,2.248,4.088,4.53,6.158,6.771c1.128,1.221,2.317,2.384,3.47,3.582c0.986,1.027,1.977,2.053,2.937,3.104
		c4.273,4.678,8.536,9.365,12.798,14.052c0.255,0.279,0.485,0.582,0.874,1.054c0.387-0.938,0.258-1.636,0.246-2.3
		c-0.027-1.508-0.143-3.013-0.172-4.52c-0.053-2.913-0.048-5.827-0.108-8.739c-0.068-3.273-0.181-6.545-0.276-9.818
		c-0.096-3.333-0.187-6.668-0.298-10.001c-0.022-0.662-0.051-1.341-0.212-1.978c-0.229-0.906-0.693-1.679-1.744-1.851
		c-1.03-0.17-2.062-0.33-3.09-0.508c-0.386-0.067-0.765-0.174-1.291-0.295c0.544-0.884,1.25-0.849,1.878-0.849
		c1.479,0,2.958,0.105,4.435,0.104c2.235-0.002,4.47-0.028,6.704-0.102c1.178-0.037,1.421-0.035,2.438,0.654
		c-0.405,0.197-0.689,0.392-1.003,0.476c-0.642,0.173-1.309,0.252-1.947,0.433c-0.85,0.242-1.399,0.815-1.54,1.704
		c-0.133,0.842-0.305,1.69-0.31,2.536c-0.026,6.166,0.014,12.331-0.021,18.496c-0.042,7.57-0.124,15.141-0.22,22.71
		C145.365,99.881,145.178,101.059,145.064,102.306z"/>
	<path fill-rule="evenodd" clip-rule="evenodd" d="M384.219,172.701c0-1.75,0.025-3.117-0.007-4.483
		c-0.034-1.569-0.147-3.136-0.17-4.705c-0.033-2.319,0.028-4.64-0.031-6.957c-0.061-2.279-0.264-4.555-0.327-6.835
		c-0.061-2.13,0.038-4.266-0.037-6.395c-0.086-2.462-0.28-4.922-0.435-7.382c-0.109-1.74-1.086-2.669-2.771-2.912
		c-0.563-0.082-1.134-0.137-1.703-0.192c-0.285-0.028-0.585,0.019-0.853-0.062c-0.189-0.057-0.335-0.267-0.5-0.409
		c0.18-0.18,0.354-0.509,0.537-0.514c1.336-0.036,2.673-0.002,4.011,0c2.238,0.003,4.477-0.003,6.715-0.005
		c1.186-0.002,2.372-0.001,3.531-0.001c0.279,0.774-0.143,0.885-0.676,0.995c-0.735,0.153-1.477,0.33-2.176,0.6
		c-0.917,0.354-1.413,1.109-1.555,2.067c-0.082,0.564-0.108,1.141-0.11,1.712c-0.009,3.823,0.012,7.646-0.009,11.468
		c-0.053,10.059-0.117,20.117-0.195,30.176c-0.011,1.219-0.14,2.438-0.237,4.032c-0.979-0.71-1.736-1.116-2.313-1.7
		c-4.093-4.142-8.151-8.317-12.217-12.488c-1.299-1.332-2.572-2.689-3.881-4.013c-0.469-0.471-1.004-0.874-1.509-1.307
		c-0.145-0.124-0.371-0.211-0.43-0.365c-0.694-1.791-2.334-2.789-3.501-4.18c-1.163-1.386-2.465-2.654-3.679-3.999
		c-3.218-3.563-6.421-7.143-9.634-10.711c-0.791-0.878-1.6-1.739-2.661-2.895c0,1.109-0.019,1.879,0.008,2.646
		c0.016,0.424,0.203,0.856,0.149,1.263c-0.245,1.848,0.252,3.68,0.164,5.484c-0.106,2.235,0.296,4.437,0.121,6.667
		c-0.099,1.269,0.121,2.562,0.166,3.846c0.046,1.225,0.058,2.451,0.074,3.678c0.037,2.573-0.023,5.151,0.127,7.719
		c0.113,1.937,0.46,3.862,0.761,5.783c0.229,1.465,1.189,2.211,2.624,2.417c1.027,0.147,2.051,0.323,3.135,0.496
		c-0.195,0.833-0.789,0.934-1.423,0.916c-1.668-0.048-3.334-0.17-5.001-0.173c-2.189-0.005-4.377,0.078-6.566,0.119
		c-0.618,0.011-1.24,0.047-1.853-0.007c-0.422-0.037-0.866-0.174-0.841-0.812c0.995-0.229,1.991-0.5,3.007-0.683
		c0.877-0.158,1.342-0.688,1.514-1.495c0.129-0.601,0.204-1.221,0.227-1.836c0.106-3.235,0.251-6.471,0.27-9.707
		c0.061-11.178,0.07-22.356,0.114-33.535c0.002-0.757,0.101-1.516,0.206-2.267c0.086-0.607,0.465-0.818,1.007-0.54
		c0.462,0.237,0.939,0.516,1.287,0.89c1.683,1.812,3.32,3.666,4.98,5.498c0.637,0.704,1.286,1.397,1.946,2.082
		c1.218,1.269,2.456,2.519,3.671,3.789c0.724,0.756,1.416,1.542,2.128,2.308c4.61,4.956,9.231,9.901,13.829,14.869
		c2.486,2.687,4.933,5.41,7.399,8.116C381.743,169.997,382.864,171.219,384.219,172.701z"/>
	<path fill-rule="evenodd" clip-rule="evenodd" d="M495.579,181.825c-0.16,0.14-0.301,0.337-0.487,0.405
		c-0.215,0.078-0.471,0.055-0.708,0.056c-4.151,0.002-8.302,0.005-12.453-0.001c-0.722-0.001-0.72-0.017-1.295-0.677
		c0.47-0.47,1.066-0.267,1.596-0.301c1.844-0.117,3.617-1.252,4.075-2.683c0.259-0.809,0.502-1.631,0.656-2.464
		c0.47-2.521,0.914-5.048,1.327-7.581c0.535-3.282,1.047-6.569,1.538-9.858c0.576-3.858,1.09-7.726,1.682-11.58
		c0.439-2.863,0.983-5.71,1.437-8.572c0.311-1.971,0.545-3.953,0.813-5.931c0.014-0.095,0.009-0.192,0.025-0.286
		c0.08-0.489,0.233-1.064,0.775-1.047c0.389,0.013,0.87,0.355,1.122,0.692c0.594,0.794,1.084,1.666,1.601,2.517
		c1.654,2.723,3.329,5.433,4.941,8.18c1.272,2.165,2.453,4.385,3.701,6.563c0.542,0.946,1.16,1.849,1.729,2.781
		c1.432,2.348,2.869,4.69,4.277,7.052c1.795,3.011,3.545,6.048,5.346,9.055c1.802,3.01,3.334,6.194,5.666,8.865
		c1.222,1.398,2.361,2.908,4.208,3.537c0.938,0.319,1.918,0.514,2.881,0.752c0.348,0.086,0.702,0.135,1.294,0.245
		c-0.348,0.357-0.491,0.575-0.694,0.692c-0.149,0.086-0.373,0.051-0.564,0.048c-3.771-0.038-7.543-0.069-11.315-0.134
		c-0.441-0.009-0.877-0.204-1.461-0.348c0.357-0.51,0.592-0.844,0.933-1.328c-0.593-1.062-1.187-2.183-1.831-3.273
		c-1.835-3.108-3.689-6.207-5.547-9.303c-0.243-0.402-0.572-0.753-0.832-1.147c-0.346-0.526-0.794-0.856-0.806-1.722
		c-0.017-1.399-1.472-2.361-2.916-2.364c-3.967-0.009-7.932-0.01-11.897,0.001c-1.546,0.004-1.536,0.031-1.745,1.579
		c-0.438,3.248-0.94,6.489-1.326,9.745c-0.178,1.496-0.199,3.018-0.189,4.527c0.01,1.444,0.725,2.26,2.173,2.607
		c0.72,0.173,1.467,0.236,2.201,0.35C495.531,181.592,495.555,181.708,495.579,181.825z M495.729,141.292
		c-0.707,1.783-2.465,16.538-2.328,18.656c1.901,0.326,11.841,0.216,12.752-0.152c-1.667-3.085-3.29-6.192-5.008-9.245
		C499.437,147.516,497.634,144.539,495.729,141.292z"/>
	<path fill-rule="evenodd" clip-rule="evenodd" d="M442.502,50.725c0.472,0.391,0.829,0.573,1.019,0.864
		c0.78,1.189,1.508,2.413,2.258,3.622c1.001,1.615,2.019,3.219,2.997,4.847c1.219,2.029,2.401,4.079,3.603,6.119
		c0.601,1.021,1.2,2.043,1.811,3.058c1.418,2.354,2.867,4.69,4.259,7.061c1.316,2.243,2.565,4.526,3.863,6.779
		c0.569,0.987,1.187,1.947,1.789,2.916c0.878,1.415,1.771,2.822,2.64,4.243c0.61,0.999,1.239,1.99,1.775,3.029
		c1.078,2.099,2.547,3.902,4.213,5.532c1.355,1.326,2.974,2.195,4.953,2.22c0.542,0.006,1.171-0.078,1.559,0.668
		c-0.26,0.107-0.493,0.286-0.725,0.287c-3.965,0.018-7.93,0.022-11.895,0.001c-0.397-0.002-0.794-0.188-1.361-0.332
		c1.245-1.291,0.638-2.343-0.033-3.445c-0.932-1.526-1.764-3.112-2.67-4.653c-1.3-2.21-2.631-4.4-3.942-6.603
		c-0.729-1.222-1.448-2.447-2.168-3.675c-0.369-0.632-0.888-0.915-1.646-0.91c-4.299,0.022-8.598,0.011-12.897,0.018
		c-0.233,0-0.465,0.062-0.785,0.109c-0.114,0.409-0.277,0.804-0.329,1.212c-0.327,2.547-0.636,5.097-0.933,7.647
		c-0.217,1.877-0.415,3.757-0.595,5.639c-0.043,0.462,0.016,0.934,0.037,1.4c0.061,1.4,0.472,1.983,1.784,2.379
		c0.587,0.177,1.211,0.235,1.82,0.336c0.438,0.071,0.725,0.243,0.579,0.806c-0.262,0.028-0.541,0.083-0.819,0.083
		c-4.252,0.006-8.504,0.008-12.755-0.001c-0.488-0.001-1.098,0.147-1.221-0.789c0.434-0.066,0.831-0.153,1.232-0.184
		c3.059-0.23,4.357-1.46,5.045-4.666c0.438-2.044,0.73-4.121,1.046-6.19c0.662-4.366,1.286-8.739,1.952-13.104
		c0.222-1.457,0.549-2.896,0.777-4.352c0.486-3.094,0.921-6.194,1.413-9.287c0.37-2.345,0.805-4.68,1.194-7.021
		c0.225-1.357,0.391-2.726,0.629-4.081C442.059,51.83,442.28,51.375,442.502,50.725z M443.851,61.041
		c-0.286,0.433-0.463,0.58-0.483,0.745c-0.671,5.806-1.327,11.611-1.978,17.419c-0.019,0.174,0.055,0.358,0.101,0.627
		c4.255,0,8.467,0,12.897,0C451.046,73.432,447.273,67.474,443.851,61.041z"/>
	<path fill-rule="evenodd" clip-rule="evenodd" d="M249.509,181.15c-0.168,0.981-0.812,0.846-1.361,0.848
		c-2.771,0.007-5.541,0.014-8.312-0.003c-0.953-0.006-1.908-0.052-2.858-0.131c-0.404-0.034-0.797-0.2-1.157-0.297
		c0-0.235-0.037-0.38,0.006-0.411c0.859-0.611,1.046-1.354,0.649-2.354c-0.755-1.898-1.426-3.83-2.134-5.746
		c-1.005-2.717-2.002-5.438-3.024-8.149c-0.984-2.614-0.508-2.537-3.468-2.532c-3.631,0.005-7.263,0.034-10.895-0.019
		c-1.14-0.018-1.831,0.25-2.271,1.43c-0.909,2.437-1.799,4.86-2.32,7.421c-0.215,1.056-0.824,2.024-1.16,3.063
		c-0.467,1.442-1.052,2.854-1.005,4.433c0.043,1.433,0.129,1.653,1.464,2.021c0.409,0.112,0.841,0.158,1.264,0.201
		c0.38,0.038,0.867-0.01,0.866,0.505c0,0.593-0.521,0.57-0.955,0.568c-0.812-0.004-1.623-0.021-2.436-0.022
		c-2.145-0.004-4.288-0.005-6.432-0.001c-1.386,0.003-2.771,0.019-4.156,0.021c-0.188,0-0.404-0.001-0.552-0.092
		c-0.137-0.084-0.271-0.292-0.271-0.443c0.002-0.144,0.157-0.39,0.281-0.414c0.415-0.081,0.847-0.09,1.271-0.117
		c1.527-0.102,2.977-0.534,3.986-1.687c0.736-0.838,1.313-1.883,1.722-2.929c1.474-3.765,2.844-7.569,4.256-11.357
		c1.245-3.343,2.516-6.678,3.739-10.028c1.238-3.393,2.437-6.801,3.649-10.202c0.702-1.97,1.381-3.949,2.11-5.908
		c0.281-0.756,0.714-1.456,1.003-2.21c0.519-1.354,0.94-2.746,1.484-4.089c0.235-0.577,0.315-1.498,1.117-1.491
		c0.869,0.008,0.929,0.927,1.188,1.577c1.201,3.006,2.449,5.993,3.624,9.009c0.62,1.592,1.087,3.244,1.694,4.842
		c1.013,2.666,2.098,5.305,3.129,7.963c1.703,4.386,3.383,8.78,5.081,13.168c0.876,2.256,1.689,4.542,2.687,6.743
		c0.585,1.287,1.674,2.358,2.178,3.665c0.56,1.446,1.721,1.951,2.904,2.465c0.722,0.313,1.576,0.32,2.371,0.471
		C248.812,180.996,249.154,181.076,249.509,181.15z M216.192,159.665c2.859,0.341,12.028,0.198,12.972-0.198
		c-0.272-0.803-0.545-1.612-0.821-2.419c-1.049-3.048-2.105-6.094-3.146-9.145c-0.577-1.691-1.119-3.396-1.707-5.084
		c-0.206-0.593-0.273-1.302-1.01-1.684c-0.182,0.24-0.381,0.402-0.448,0.607C220.089,147.674,218.162,153.609,216.192,159.665z"/>
	<path fill-rule="evenodd" clip-rule="evenodd" d="M445.653,145.632c-0.214-1.141-0.494-2.004-0.516-2.872
		c-0.105-4.146-2.729-6.178-6.198-7.496c-2.923-1.112-5.979-1.688-9.091-1.696c-3.681-0.013-7.416,0.244-10.813,1.708
		c-3.499,1.506-6.396,3.846-8.163,7.446c-1.04,2.122-1.834,4.278-2.257,6.58c-0.153,0.838-0.156,1.702-0.262,2.55
		c-0.455,3.69-0.159,7.339,0.946,10.867c0.886,2.82,2.157,5.492,4.068,7.812c1.92,2.332,4.006,4.487,6.591,6.085
		c0.761,0.471,1.646,0.735,2.452,1.142c3.194,1.613,6.657,2.021,10.145,2.069c2.463,0.035,4.966-0.085,7.347-0.897
		c2.53-0.862,4.281-2.555,5.214-5.069c0.364-0.98,0.691-1.977,1.062-2.955c0.123-0.321,0.329-0.61,0.499-0.915
		c0.117,0.015,0.234,0.028,0.353,0.043c0.073,0.463,0.273,0.945,0.201,1.385c-0.301,1.876-0.678,3.739-1.037,5.604
		c-0.171,0.888-0.386,1.766-0.544,2.656c-0.199,1.141-0.972,1.749-1.988,1.998c-1.384,0.34-2.79,0.641-4.206,0.788
		c-2.462,0.254-4.938,0.531-7.408,0.522c-3.67-0.013-7.327-0.321-10.915-1.219c-2.554-0.638-5.026-1.458-7.33-2.741
		c-0.481-0.268-1.039-0.435-1.143-1.138c-0.032-0.211-0.396-0.385-0.625-0.553c-3.795-2.796-6.442-6.524-8.18-10.812
		c-0.855-2.116-1.015-4.517-1.468-6.793c-0.103-0.51-0.084-1.044-0.168-1.559c-0.472-2.893,0.227-5.683,0.806-8.464
		c0.865-4.153,2.913-7.758,5.771-10.831c2.075-2.232,4.436-4.192,7.381-5.272c1.562-0.572,3.087-1.272,4.683-1.72
		c1.317-0.369,2.71-0.504,4.077-0.649c5.494-0.586,10.943-0.138,16.373,0.749c1.126,0.185,2.271,0.267,3.404,0.404
		c0.472,0.058,0.945,0.121,1.411,0.211c0.714,0.137,1.048,0.542,0.992,1.311c-0.126,1.806-0.218,3.614-0.292,5.423
		c-0.056,1.334-0.059,2.671-0.091,4.007C446.71,144.383,446.643,144.539,445.653,145.632z"/>
	<path fill-rule="evenodd" clip-rule="evenodd" d="M210.326,102.945c-1.065-0.393-1.533-1.001-1.836-1.795
		c-1.067-2.805-2.122-5.614-3.238-8.401c-1.097-2.741-2.296-5.442-3.386-8.186c-1.196-3.011-2.29-6.062-3.483-9.074
		c-1.385-3.498-2.816-6.978-4.252-10.455c-1.198-2.902-2.472-5.774-3.638-8.691c-0.997-2.496-3.108-3.146-5.44-3.497
		c-0.451-0.067-0.91-0.079-1.473-0.125c0.14-0.647,0.418-0.895,0.893-0.923c0.761-0.047,1.524-0.129,2.284-0.104
		c1.762,0.061,3.52,0.246,5.281,0.249c1.952,0.003,3.903-0.154,5.856-0.212c0.759-0.021,1.525-0.005,2.278,0.081
		c0.312,0.034,0.598,0.295,1.148,0.586c-0.549,0.232-0.778,0.384-1.024,0.422c-0.422,0.063-0.862,0.011-1.281,0.088
		c-1.587,0.293-2.037,0.887-1.686,2.449c0.238,1.059,0.641,2.084,1.022,3.105c1.232,3.306,2.488,6.603,3.735,9.902
		c1.731,4.584,3.47,9.163,5.19,13.751c1.385,3.697,2.747,7.403,4.221,11.382c0.308-0.603,0.535-0.981,0.7-1.387
		c1.525-3.746,3.069-7.485,4.546-11.251c1.059-2.701,2.007-5.444,3.031-8.158c0.708-1.872,1.496-3.714,2.189-5.59
		c0.972-2.634,1.91-5.279,2.819-7.934c0.459-1.344,0.882-2.705,1.209-4.085c0.36-1.518-0.123-2.093-1.668-2.249
		c-0.689-0.069-1.447,0.207-2.163-0.482c0.258-0.197,0.47-0.491,0.721-0.527c0.704-0.104,1.428-0.173,2.135-0.125
		c3.141,0.214,6.276,0.301,9.419,0.01c0.639-0.059,1.296,0.071,1.974,0.116c0.079,0.9-0.396,1.001-0.958,1
		c-1.411-0.004-2.562,0.576-3.596,1.506c-1.023,0.92-1.659,2.078-2.172,3.308c-1.376,3.297-2.707,6.61-4.065,9.913
		c-1.121,2.729-2.249,5.456-3.391,8.179c-1.195,2.852-2.429,5.688-3.612,8.545c-1.33,3.208-2.591,6.445-3.943,9.644
		c-0.814,1.927-1.747,3.802-2.623,5.702c-0.26,0.562-0.487,1.139-0.771,1.688C211.001,101.856,210.669,102.365,210.326,102.945z"/>
	<path fill-rule="evenodd" clip-rule="evenodd" d="M326.224,173.141c0.747,0.019,0.933,0.326,0.908,0.756
		c-0.044,0.708-0.098,1.418-0.21,2.117c-0.262,1.631-0.567,3.255-0.848,4.883c-0.143,0.837-0.646,1.231-1.479,1.267
		c-0.666,0.028-1.332,0.115-1.998,0.118c-3.344,0.013-6.689,0.041-10.033-0.006c-2.287-0.033-4.571-0.23-6.858-0.259
		c-1.905-0.024-3.813,0.096-5.72,0.145c-0.57,0.014-1.176,0.072-1.409-0.782c0.243-0.08,0.483-0.182,0.734-0.231
		c0.326-0.065,0.663-0.062,0.987-0.132c1.685-0.368,2.312-0.995,2.456-2.663c0.182-2.123,0.385-4.254,0.391-6.383
		c0.039-11.563,0.019-23.127,0.019-34.691c0-0.287,0.018-0.575-0.01-0.859c-0.191-2.12-1.527-3.376-3.659-3.459
		c-0.476-0.018-0.965,0.014-1.42-0.099c-0.168-0.041-0.323-0.42-0.346-0.656c-0.008-0.112,0.315-0.361,0.488-0.36
		c0.663,0.002,1.327,0.123,1.992,0.124c6.881,0.011,13.762,0.024,20.642-0.011c1.136-0.006,2.271-0.241,3.405-0.373
		c0.362-0.042,0.724-0.09,1.31-0.164c-0.104,0.938-0.19,1.723-0.277,2.507c-0.149,1.367-0.295,2.735-0.456,4.101
		c-0.067,0.562-0.14,1.129-0.285,1.673c-0.044,0.17-0.336,0.382-0.512,0.378c-0.168-0.003-0.42-0.229-0.483-0.41
		c-0.158-0.446-0.269-0.918-0.327-1.388c-0.259-2.021-1.195-3.104-3.229-3.289c-2.275-0.208-4.567-0.234-6.854-0.306
		c-1.276-0.038-2.555-0.006-4.028-0.006c-0.075,6.481-0.015,12.812-0.04,19.299c0.554,0.029,1.01,0.074,1.466,0.075
		c2.63,0.007,5.257,0.017,7.885-0.001c1.933-0.013,3.822-0.204,5.292-1.694c0.084-0.086,0.252-0.092,0.582-0.202
		c0.095,1.711-0.273,3.278-0.473,4.868c-0.2,1.592-0.225,3.205-0.351,5.192c-0.474-0.421-0.794-0.568-0.845-0.78
		c-0.122-0.505-0.092-1.043-0.166-1.561c-0.183-1.294-0.884-2.189-2.143-2.585c-0.451-0.143-0.93-0.203-1.399-0.275
		c-0.328-0.051-0.664-0.085-0.996-0.086c-2.857-0.007-5.717-0.004-8.733-0.004c-0.032,0.31-0.107,0.716-0.109,1.124
		c-0.009,5.16-0.023,10.321,0.01,15.481c0.007,1.09,0.131,2.189,0.317,3.265c0.231,1.344,1.278,1.994,2.458,2.308
		c1.049,0.279,2.158,0.438,3.243,0.454c1.953,0.03,3.91-0.06,5.863-0.147c2.442-0.109,4.538-2.054,4.764-4.343
		C325.803,174.425,326.055,173.798,326.224,173.141z"/>
	<path fill-rule="evenodd" clip-rule="evenodd" d="M252.437,74.006c1.736,0.012,3.395,0.048,5.052,0.028
		c1.572-0.02,3.144-0.139,4.716-0.14c1.802,0,3.538-0.111,4.858-1.573c0.084-0.093,0.252-0.109,0.46-0.193
		c0.082,0.23,0.242,0.447,0.224,0.647c-0.261,2.648-0.537,5.296-0.827,7.94c-0.041,0.368-0.175,0.727-0.266,1.098
		c-0.663,0.071-0.729-0.302-0.79-0.763c-0.1-0.745-0.183-1.509-0.423-2.214c-0.353-1.034-1.182-1.608-2.248-1.757
		c-1.083-0.152-2.175-0.259-3.269-0.322c-2.093-0.121-4.188-0.199-6.282-0.292c-1.121-0.05-1.341,0.137-1.343,1.272
		c-0.01,5.351-0.033,10.701,0.016,16.052c0.013,1.518,0.152,3.043,1.255,4.294c0.505,0.573,1.057,0.945,1.802,1.036
		c3.472,0.421,6.941,0.557,10.393-0.156c1.311-0.271,2.214-1.088,2.675-2.336c0.344-0.933,0.607-1.896,0.908-2.847
		c0.114-0.361,0.198-0.758,0.896-0.665c0.037,0.364,0.146,0.768,0.105,1.154c-0.186,1.798-0.412,3.591-0.631,5.385
		c-0.028,0.234-0.073,0.475-0.16,0.692c-0.667,1.653-0.487,1.727-2.174,1.765c-3.332,0.076-6.668-0.037-10.001-0.076
		c-0.477-0.005-0.953-0.047-1.43-0.047c-4.103-0.005-8.205-0.003-12.308-0.004c-0.513,0-1.024,0-1.537,0
		c-0.054-0.105-0.106-0.213-0.158-0.319c0.169-0.2,0.302-0.511,0.515-0.581c0.446-0.148,0.937-0.243,1.405-0.229
		c1.049,0.03,1.591-0.618,1.911-1.443c0.287-0.744,0.509-1.551,0.561-2.343c0.156-2.376,0.294-4.758,0.302-7.138
		c0.032-9.649,0.019-19.3,0.011-28.95c-0.002-1.431-0.036-2.862-0.1-4.291c-0.108-2.387-1.091-3.403-3.458-3.698
		c-0.73-0.091-1.451-0.256-2.27-0.404c0.359-0.955,1.05-0.894,1.611-0.891c1.717,0.008,3.432,0.126,5.148,0.137
		c3.287,0.022,6.575,0.002,9.862-0.006c1.673-0.004,3.346,0.017,5.016-0.037c2.037-0.066,4.074-0.2,6.215-0.31
		c0,0.188,0.032,0.514-0.005,0.831c-0.297,2.499-0.603,4.997-0.923,7.493c-0.014,0.104-0.191,0.188-0.462,0.439
		c-0.278-0.948-0.631-1.768-0.743-2.618c-0.21-1.602-1.299-2.236-2.636-2.622c-0.636-0.184-1.311-0.287-1.974-0.318
		c-2.713-0.125-5.43-0.229-8.145-0.299c-1.4-0.036-1.491,0.067-1.493,1.425c-0.01,5.59-0.007,11.179,0,16.769
		C252.301,72.999,252.378,73.416,252.437,74.006z"/>
	<path fill-rule="evenodd" clip-rule="evenodd" d="M512.99,51.414c0.159,2.943-0.199,5.901-0.217,8.953
		c-1.096-0.118-1.055-0.829-1.107-1.387c-0.085-0.936-0.293-1.8-1.05-2.414c-1.219-0.991-2.696-1.48-4.2-1.571
		c-3.425-0.206-6.86-0.23-10.292-0.322c-0.227-0.006-0.455,0.049-0.759,0.084c-0.023,0.53-0.062,0.997-0.062,1.463
		c-0.004,11.561-0.035,23.12,0.023,34.68c0.012,2.417,0.253,4.847,0.577,7.245c0.257,1.913,1.166,2.555,3.084,2.692
		c0.896,0.064,1.785,0.2,2.722,0.31c-0.077,0.71-0.509,0.825-1.005,0.834c-0.623,0.012-1.244,0.006-1.864,0.006
		c-4.149,0.001-8.299,0.002-12.448,0c-0.88,0-0.88-0.007-1.574-0.732c0.727-0.154,1.337-0.375,1.956-0.396
		c1.111-0.039,1.645-0.711,1.898-1.632c0.25-0.913,0.444-1.858,0.508-2.801c0.161-2.373,0.322-4.751,0.329-7.127
		c0.035-10.892,0.015-21.782,0.015-32.674c0-0.572,0-1.144,0-1.911c-1.399-0.09-2.767-0.055-4.127-0.035
		c-1.668,0.023-3.336,0.078-5.002,0.159c-1.282,0.062-2.565,0.146-3.839,0.292c-1.826,0.21-3.214,1.06-4.012,2.804
		c-0.299,0.654-0.806,1.216-1.219,1.819c-0.104-0.035-0.21-0.069-0.313-0.104c-0.04-0.288-0.187-0.613-0.101-0.857
		c0.895-2.568,0.599-5.457,1.97-7.989c2.89,1.146,5.775,1.098,8.611,1.13c8.166,0.091,16.336,0.069,24.504,0.007
		C508.267,51.92,510.535,51.606,512.99,51.414z"/>
	<path fill-rule="evenodd" clip-rule="evenodd" d="M383.556,59.685c-0.11-0.282-0.364-0.598-0.309-0.842
		c0.557-2.458,1.157-4.905,1.767-7.352c0.052-0.21,0.24-0.386,0.401-0.633c2.767,1.092,5.654,1.038,8.49,1.07
		c8.124,0.093,16.248,0.069,24.371,0.009c2.278-0.017,4.552-0.318,6.986-0.501c0.103,2.905,0.132,5.902-0.214,8.935
		c-0.838-0.136-0.798-0.76-0.834-1.14c-0.19-2.029-1.306-3.073-3.205-3.707c-1.396-0.465-2.79-0.6-4.2-0.668
		c-2.716-0.131-5.438-0.135-8.157-0.187c-0.233-0.005-0.467,0.024-0.787,0.042c-0.047,0.343-0.124,0.656-0.124,0.972
		c-0.007,11.898-0.037,23.799,0.02,35.697c0.011,2.323,0.277,4.655,0.584,6.963c0.224,1.694,1.182,2.365,2.951,2.491
		c0.894,0.063,1.782,0.193,2.702,0.298c-0.006,0.669-0.364,0.83-0.822,0.844c-0.67,0.02-1.339,0.01-2.009,0.01
		c-4.056,0-8.11,0.001-12.166-0.001c-0.383,0-0.785,0.061-1.14-0.04c-0.255-0.071-0.446-0.364-0.812-0.688
		c0.84-0.162,1.44-0.291,2.048-0.393c1.386-0.231,1.928-0.649,2.119-2.043c0.27-1.979,0.55-3.975,0.568-5.965
		c0.114-12.226,0.156-24.451,0.224-36.678c0.001-0.426,0-0.853,0-1.451c-1.366-0.122-2.688-0.068-4.002-0.053
		c-1.908,0.023-3.815,0.071-5.72,0.162c-1.756,0.084-3.524,0.065-5.184,0.846c-0.823,0.387-1.421,0.911-1.834,1.71
		c-0.411,0.797-0.881,1.562-1.323,2.342C383.815,59.718,383.685,59.702,383.556,59.685z"/>
	<path fill-rule="evenodd" clip-rule="evenodd" d="M256.232,132.26c0.454-0.247,0.615-0.411,0.776-0.412
		c5.381-0.013,10.764-0.011,16.106-0.011c0.262,0.504,0.218,0.849-0.284,0.947c-0.512,0.102-1.042,0.103-1.561,0.18
		c-1.654,0.243-3.204,1.081-3.167,3.174c0.029,1.656-0.007,3.315-0.049,4.973c-0.021,0.853-0.168,1.705-0.17,2.558
		c-0.015,6.306-0.04,12.611,0.005,18.916c0.023,3.383,0.143,6.766,0.296,10.145c0.055,1.228,0.292,2.453,0.523,3.664
		c0.288,1.503,1.519,2.708,3.188,2.84c3.083,0.242,6.167,0.52,9.277,0.207c2.748-0.275,4.477-1.66,5.315-4.243
		c0.163-0.498,0.296-1.011,0.514-1.483c0.161-0.353,0.439-0.653,0.708-1.04c0.593,0.563,0.465,1.117,0.399,1.596
		c-0.238,1.738-0.521,3.471-0.82,5.199c-0.089,0.509-0.297,0.997-0.45,1.494c-0.243,0.791-0.822,1.167-1.605,1.184
		c-2.622,0.055-5.247,0.086-7.871,0.108c-0.666,0.005-1.332-0.068-1.998-0.089c-3.049-0.098-6.098-0.241-9.148-0.267
		c-1.998-0.017-3.996,0.146-5.995,0.221c-0.572,0.021-1.154,0.081-1.713-0.003c-0.355-0.054-0.678-0.338-1.015-0.52
		c0.023-0.104,0.047-0.208,0.07-0.312c0.716-0.151,1.43-0.311,2.147-0.453c0.885-0.175,1.488-0.677,1.659-1.562
		c0.284-1.485,0.703-2.979,0.72-4.474c0.128-11.312,0.184-22.625,0.23-33.937c0.007-1.567-0.072-3.143-0.243-4.699
		c-0.219-1.969-1.396-3.016-3.376-3.2c-0.476-0.045-0.958-0.05-1.42-0.151C256.995,132.745,256.742,132.535,256.232,132.26z"/>
	<path fill-rule="evenodd" clip-rule="evenodd" d="M350.183,42.102c0,1.237,0.013,2.42-0.004,3.603
		c-0.013,1.001-0.054,2.002-0.097,3.003c-0.014,0.281-0.011,0.595-0.133,0.832c-0.154,0.302-0.391,0.708-0.663,0.771
		c-0.517,0.121-0.715-0.321-0.804-0.785c-0.143-0.746-0.287-1.491-0.461-2.229c-0.259-1.097-0.969-1.822-1.962-2.305
		c-1.965-0.952-4.056-1.537-6.215-1.281c-1.675,0.199-3.443,0.582-4.568,2.055c-0.826,1.084-1.476,2.322-1.68,3.689
		c-0.21,1.398,0.216,2.712,0.748,4.012c0.883,2.148,2.806,3.319,4.399,4.778c1.715,1.568,3.629,2.919,5.341,4.491
		c1.604,1.475,3.26,2.97,4.53,4.719c1.962,2.697,2.89,5.765,2.509,9.22c-0.227,2.055-0.75,3.89-1.904,5.599
		c-1.48,2.193-3.401,3.784-5.838,4.819c-2.962,1.258-6.025,1.29-9.143,0.961c-1.572-0.166-3.119-0.417-4.542-1.15
		c-0.631-0.324-1.238-0.693-2.006-1.127c0.093-1.584,0.203-3.188,0.275-4.794c0.047-1.034,0.023-2.069,0.059-3.104
		c0.009-0.278,0.065-0.588,0.205-0.82c0.104-0.175,0.395-0.37,0.567-0.341c0.239,0.039,0.58,0.239,0.641,0.441
		c0.163,0.539,0.25,1.115,0.277,1.681c0.066,1.379,0.565,2.606,1.31,3.728c0.275,0.413,0.738,0.71,1.146,1.022
		c0.262,0.2,0.586,0.318,0.867,0.497c2.927,1.859,6.006,1.662,9.046,0.473c2.832-1.107,4.276-3.775,4.289-6.801
		c0.015-3.442-1.595-5.964-4.058-8.11c-1.217-1.061-2.423-2.133-3.656-3.176c-0.904-0.766-1.918-1.417-2.752-2.251
		c-1.739-1.737-3.54-3.439-4.835-5.56c-2.081-3.406-2.584-7.07-1.104-10.773c1.307-3.271,3.831-5.397,7.314-6.251
		c1.104-0.271,2.221-0.661,3.337-0.673c1.652-0.019,3.312,0.212,4.96,0.411C347.043,41.552,348.493,41.831,350.183,42.102z"/>
	<path fill-rule="evenodd" clip-rule="evenodd" d="M162.584,52.204c0.781-0.647,1.612-0.562,2.404-0.502
		c3.618,0.268,7.23,0.297,10.848-0.004c0.562-0.047,1.147,0.01,1.702,0.115c0.198,0.037,0.397,0.338,0.48,0.562
		c0.03,0.079-0.265,0.37-0.45,0.417c-0.459,0.118-0.94,0.14-1.41,0.22c-1.633,0.274-2.188,0.808-2.452,2.47
		c-0.142,0.889-0.26,1.792-0.269,2.689c-0.083,8.003-0.181,16.005-0.185,24.007c-0.001,4.322,0.145,8.645,0.292,12.965
		c0.038,1.132,0.289,2.262,0.512,3.379c0.287,1.437,1.189,2.172,2.681,2.308c0.899,0.082,1.797,0.181,2.694,0.281
		c0.086,0.011,0.166,0.089,0.271,0.147c0.002,0.559-0.381,0.703-0.833,0.718c-0.715,0.024-1.433,0.011-2.149,0.012
		c-4.148,0-8.298,0.008-12.446-0.011c-0.475-0.002-1.072,0.236-1.396-0.447c0.351-0.715,1.074-0.501,1.625-0.606
		c1.699-0.326,1.994-0.646,2.409-2.316c0.604-2.438,0.56-4.924,0.571-7.392c0.05-10.269,0.032-20.538,0.009-30.806
		c-0.002-1.567-0.126-3.137-0.249-4.699c-0.151-1.911-0.857-2.447-3.115-2.855C163.219,52.69,163.208,52.752,162.584,52.204z"/>
	<path fill-rule="evenodd" clip-rule="evenodd" d="M376.182,101.323c-0.332,0.81-0.965,0.662-1.504,0.657
		c-3.101-0.028-6.201-0.097-9.302-0.108c-1.621-0.007-3.242,0.08-4.862,0.11c-0.455,0.009-0.985,0.115-1.188-0.733
		c0.612-0.133,1.229-0.396,1.834-0.374c1.312,0.051,1.809-0.825,2.057-1.797c0.329-1.281,0.606-2.618,0.614-3.934
		c0.077-11.698,0.1-23.396,0.111-35.095c0.001-1.424-0.135-2.85-0.238-4.271c-0.136-1.849-0.819-2.591-3.193-2.933
		c-0.532-0.076-1.208,0.16-1.336-0.751c0.722-0.606,1.6-0.415,2.425-0.387c1.57,0.055,3.138,0.239,4.707,0.235
		c1.902-0.006,3.805-0.159,5.708-0.23c0.792-0.03,1.61-0.198,2.346,0.276c0.092,0.509-0.084,0.762-0.551,0.845
		c-0.605,0.107-1.206,0.27-1.817,0.351c-1.333,0.177-1.792,1.108-2.008,2.26c-0.054,0.28-0.077,0.568-0.088,0.854
		c-0.073,1.998-0.194,3.998-0.199,5.997c-0.021,9.455-0.047,18.911,0.017,28.366c0.017,2.465,0.272,4.937,0.572,7.386
		c0.222,1.807,1.109,2.686,3.324,2.795c0.757,0.036,1.51,0.173,2.264,0.274C375.953,101.127,376.025,101.215,376.182,101.323z"/>
	<path fill-rule="evenodd" clip-rule="evenodd" d="M474.008,132.121c-0.138,0.746-0.701,0.667-1.138,0.773
		c-0.411,0.1-0.846,0.126-1.245,0.256c-1.767,0.578-2.299,1.97-2.341,3.656c-0.063,2.563-0.157,5.129-0.164,7.694
		c-0.022,7.693-0.044,15.387,0.008,23.081c0.022,3.083,0.179,6.169,0.394,9.246c0.063,0.921,0.466,1.842,0.837,2.711
		c0.294,0.688,0.938,1.055,1.692,1.17c1.123,0.173,2.245,0.345,3.34,0.512c0.201,0.539-0.025,0.826-0.469,0.869
		c-0.662,0.065-1.337,0.103-2,0.056c-3.904-0.274-7.806-0.36-11.712-0.001c-0.607,0.056-1.239-0.024-1.842-0.14
		c-0.235-0.046-0.42-0.361-0.785-0.699c0.954-0.185,1.645-0.324,2.335-0.449c0.948-0.17,1.522-0.783,1.791-1.647
		c0.223-0.724,0.416-1.482,0.451-2.234c0.139-2.995,0.282-5.993,0.295-8.991c0.037-9.079,0.021-18.158,0.006-27.238
		c-0.004-1.572-0.006-3.156-0.188-4.713c-0.26-2.214-1.233-3.03-3.463-3.196c-0.747-0.055-0.747-0.055-1.29-0.712
		c0.273-0.108,0.52-0.286,0.77-0.291c1.194-0.021,2.388,0.012,3.582,0.012c2.381,0.002,4.762-0.004,7.144-0.009
		c1.099-0.003,2.197-0.028,3.295-0.002C473.55,131.84,473.784,132.025,474.008,132.121z"/>
	<path fill-rule="evenodd" clip-rule="evenodd" d="M301.061,120.879c0.414-0.198,0.812-0.447,1.246-0.585
		c1.269-0.403,2.562-0.723,3.821-1.153c0.577-0.198,0.929-0.085,1.397,0.292c1.317,1.063,2.689,2.062,4.068,3.046
		c1.621,1.158,3.275,2.27,4.905,3.416c0.213,0.15,0.362,0.392,0.788,0.866c-0.806-0.078-1.309-0.056-1.769-0.185
		c-2.014-0.563-4.03-1.124-6.014-1.781c-0.978-0.325-1.865-0.913-2.83-1.287c-1.331-0.515-2.705-0.914-4.041-1.416
		c-0.559-0.209-1.065-0.552-1.596-0.834C301.045,121.131,301.052,121.005,301.061,120.879z"/>
	<path fill-rule="evenodd" clip-rule="evenodd" d="M96.869,160.445c-0.144-0.38-0.385-0.753-0.414-1.142
		c-0.074-1.002-0.731-1.377-1.552-1.628c-0.091-0.027-0.183-0.07-0.276-0.074c-2.175-0.105-4.352-0.205-6.578-0.309
		c-0.08,0.443-0.167,0.711-0.169,0.979c-0.009,3.249-0.021,6.498,0,9.746c0.014,2.154,1,3.646,2.592,3.913
		c0.795,0.133,1.617,0.222,2.417,0.175c1.182-0.069,2.365-0.234,3.533-0.438c0.956-0.167,1.622-0.719,1.898-1.714
		c0.187-0.676,0.479-1.322,0.846-2.308c0.192,0.547,0.363,0.783,0.334,0.992c-0.175,1.27-0.377,2.535-0.609,3.796
		c-0.177,0.965-0.602,1.343-1.69,1.389c-1.287,0.053-2.579,0.015-3.867-0.003c-3.095-0.043-6.189-0.083-9.285-0.154
		c-0.862-0.019-1.77,0.237-2.883-0.385c0.592-0.181,0.915-0.342,1.247-0.366c0.799-0.062,1.208-0.499,1.321-1.244
		c0.156-1.03,0.399-2.064,0.407-3.099c0.06-7.821,0.076-15.643,0.094-23.465c0.005-2.042-0.773-2.499-2.2-2.78
		c-0.438-0.086-0.861-0.256-1.434-0.432c0.536-0.63,1.088-0.446,1.556-0.443c3.437,0.022,6.874,0.1,10.31,0.104
		c1.902,0.003,3.804-0.103,5.877-0.165c-0.133,1.647-0.275,3.406-0.432,5.342c-0.71-0.359-0.742-0.89-0.795-1.361
		c-0.122-1.068-0.758-1.677-1.755-1.752c-2.413-0.181-4.833-0.264-7.328-0.391c-0.069,0.481-0.152,0.796-0.153,1.11
		c-0.01,3.248-0.012,6.497-0.002,9.746c0.004,1.502,0.103,1.613,1.653,1.59c1.811-0.026,3.626-0.042,5.428-0.199
		c0.902-0.078,1.778-0.459,2.835-0.749c-0.156,1.854-0.318,3.785-0.48,5.716C97.166,160.442,97.018,160.444,96.869,160.445z"/>
</g>
</svg>
