<?xml version="1.0" encoding="UTF-8" standalone="no"?>
<svg id="svg84" height="213.92299" viewBox="0 0 467.00021 213.92298" width="467.00021" xmlns="http://www.w3.org/2000/svg">
   <g id="Layer_1-2" transform="matrix(1.1311725 0 0 1.1311725 2 2)">
      <path id="path8" d="m213.14 73.56h-5v13.94h-2.05v-13.94h-5v-1.68h12.08z" fill="#00684b"/>
      <path id="path10" d="m217.63 77.3a4.21 4.21 0 0 1 3.43-1.62q3.67 0 3.71 4.15v7.67h-2v-7.68a2.67 2.67 0 0 0-.58-1.86 2.29 2.29 0 0 0-1.75-.6 2.85 2.85 0 0 0-1.7.52 3.47 3.47 0 0 0-1.13 1.35v8.27h-2v-16.5h2z" fill="#00684b"/>
      <path id="path12" d="m232.93 87.71a5.06 5.06 0 0 1-3.84-1.55 5.72 5.72 0 0 1-1.48-4.16v-.37a6.93 6.93 0 0 1  .66-3.08 5.09 5.09 0 0 1  1.84-2.12 4.58 4.58 0 0 1  2.57-.77 4.35 4.35 0 0 1  3.52 1.49 6.44 6.44 0 0 1  1.26 4.27v.82h-7.87a4.16 4.16 0 0 0 1 2.78 3.16 3.16 0 0 0  2.44 1 3.53 3.53 0 0 0  1.78-.42 4.61 4.61 0 0 0  1.28-1.14l1.21.94a4.86 4.86 0 0 1-4.37 2.31zm-.25-10.4a2.64 2.64 0 0 0-2 .87 4.24 4.24 0 0 0-1 2.45h5.81v-.15a3.77 3.77 0 0 0-.81-2.34 2.52 2.52 0 0 0-2-.83z" fill="#00684b"/>
      <path id="path14" d="m246.38 87.5v-15.62h5.11a5.92 5.92 0 0 1 3.82 1.05 3.78 3.78 0 0 1  1.29 3.07 3.15 3.15 0 0 1-.6 2 4 4 0 0 1-1.69 1.3 3.67 3.67 0 0 1  2 1.35 3.85 3.85 0 0 1  .69 2.35 4.17 4.17 0 0 1-1.36 3.31 5.64 5.64 0 0 1-3.85 1.2zm2.06-9h3.11a3.26 3.26 0 0 0 2.16-.67 2.29 2.29 0 0 0  .81-1.84 2.24 2.24 0 0 0-.75-1.88 3.68 3.68 0 0 0-2.28-.59h-3.05zm0 1.65v5.63h3.4a3.25 3.25 0 0 0 2.27-.75 2.6 2.6 0 0 0  .83-2c0-1.89-1-2.83-3.06-2.83z" fill="#00684b"/>
      <path id="path16" d="m267.31 86.35a4.23 4.23 0 0 1-3.41 1.36 3.63 3.63 0 0 1-2.82-1.07 4.63 4.63 0 0 1-1-3.19v-7.56h2v7.5c0 1.76.72 2.64 2.15 2.64a3 3 0 0 0 3-1.69v-8.45h2v11.61h-1.89z" fill="#00684b"/>
      <path id="path18" d="m279.28 84.42a1.47 1.47 0 0 0-.61-1.25 5.85 5.85 0 0 0-2.11-.77 9.81 9.81 0 0 1-2.4-.77 3.39 3.39 0 0 1-1.3-1.07 2.53 2.53 0 0 1-.43-1.48 3 3 0 0 1  1.21-2.42 4.74 4.74 0 0 1  3.08-1 4.82 4.82 0 0 1  3.2 1 3.23 3.23 0 0 1  1.23 2.6h-2a1.78 1.78 0 0 0-.69-1.4 2.65 2.65 0 0 0-1.75-.59 2.72 2.72 0 0 0-1.69.47 1.49 1.49 0 0 0-.61 1.23 1.23 1.23 0 0 0  .59 1.13 7.41 7.41 0 0 0  2.06.7 10.62 10.62 0 0 1  2.41.79 3.52 3.52 0 0 1  1.36 1.11 2.7 2.7 0 0 1  .45 1.58 3 3 0 0 1-1.24 2.5 5.26 5.26 0 0 1-3.23.93 5.82 5.82 0 0 1-2.47-.49 4 4 0 0 1-1.68-1.38 3.36 3.36 0 0 1-.61-1.91h2a2 2 0 0 0  .8 1.58 3.08 3.08 0 0 0  2 .58 3.2 3.2 0 0 0  1.8-.45 1.41 1.41 0 0 0  .63-1.22z" fill="#00684b"/>
      <path id="path20" d="m284.09 72.81a1.16 1.16 0 0 1  .3-.81 1.33 1.33 0 0 1  1.75 0 1.16 1.16 0 0 1  .3.81 1.14 1.14 0 0 1-.3.81 1.36 1.36 0 0 1-1.75 0 1.14 1.14 0 0 1-.3-.81zm2.15 14.69h-2v-11.61h2z" fill="#00684b"/>
      <path id="path22" d="m291.6 75.89l.07 1.46a4.22 4.22 0 0 1 3.47-1.67q3.67 0 3.71 4.15v7.67h-2v-7.68a2.67 2.67 0 0 0-.58-1.86 2.29 2.29 0 0 0-1.75-.6 2.8 2.8 0 0 0-1.69.52 3.41 3.41 0 0 0-1.14 1.35v8.27h-2v-11.61z" fill="#00684b"/>
      <path id="path24" d="m307 87.71a5.06 5.06 0 0 1-3.84-1.55 5.72 5.72 0 0 1-1.46-4.16v-.37a6.93 6.93 0 0 1  .66-3.08 5.09 5.09 0 0 1  1.84-2.12 4.58 4.58 0 0 1  2.57-.77 4.35 4.35 0 0 1  3.52 1.49 6.44 6.44 0 0 1  1.26 4.27v.82h-7.87a4.16 4.16 0 0 0 1 2.78 3.16 3.16 0 0 0  2.44 1 3.53 3.53 0 0 0  1.78-.42 4.57 4.57 0 0 0  1.27-1.14l1.22.94a4.87 4.87 0 0 1-4.39 2.31zm-.25-10.4a2.64 2.64 0 0 0-2 .87 4.24 4.24 0 0 0-1 2.45h5.81v-.15a3.77 3.77 0 0 0-.81-2.34 2.52 2.52 0 0 0-1.98-.83z" fill="#00684b"/>
      <path id="path26" d="m320.89 84.42a1.47 1.47 0 0 0-.6-1.25 5.92 5.92 0 0 0-2.12-.77 9.87 9.87 0 0 1-2.39-.77 3.5 3.5 0 0 1-1.31-1.07 2.6 2.6 0 0 1-.42-1.48 3 3 0 0 1  1.21-2.42 4.74 4.74 0 0 1  3.08-1 4.84 4.84 0 0 1  3.2 1 3.23 3.23 0 0 1  1.23 2.6h-2a1.79 1.79 0 0 0-.7-1.4 2.6 2.6 0 0 0-1.74-.59 2.72 2.72 0 0 0-1.69.47 1.5 1.5 0 0 0-.64 1.26 1.22 1.22 0 0 0  .57 1.09 7.41 7.41 0 0 0  2.06.7 10.62 10.62 0 0 1  2.41.79 3.52 3.52 0 0 1  1.36 1.11 2.7 2.7 0 0 1  .45 1.58 3 3 0 0 1-1.25 2.5 5.24 5.24 0 0 1-3.23.93 5.78 5.78 0 0 1-2.46-.49 4 4 0 0 1-1.68-1.38 3.28 3.28 0 0 1-.61-1.91h2a2 2 0 0 0  .8 1.58 3.07 3.07 0 0 0  2 .58 3.21 3.21 0 0 0  1.81-.45 1.4 1.4 0 0 0  .66-1.21z" fill="#00684b"/>
      <path id="path28" d="m332.53 84.42a1.45 1.45 0 0 0-.61-1.25 5.85 5.85 0 0 0-2.11-.77 9.72 9.72 0 0 1-2.39-.77 3.42 3.42 0 0 1-1.31-1.07 2.53 2.53 0 0 1-.43-1.48 3 3 0 0 1  1.21-2.42 4.74 4.74 0 0 1  3.08-1 4.86 4.86 0 0 1  3.21 1 3.25 3.25 0 0 1  1.22 2.6h-2a1.78 1.78 0 0 0-.69-1.4 2.61 2.61 0 0 0-1.75-.59 2.74 2.74 0 0 0-1.69.47 1.49 1.49 0 0 0-.61 1.23 1.22 1.22 0 0 0  .57 1.09 7.31 7.31 0 0 0  2.05.7 10.62 10.62 0 0 1  2.41.79 3.63 3.63 0 0 1  1.37 1.11 2.77 2.77 0 0 1  .44 1.58 3 3 0 0 1-1.24 2.5 5.26 5.26 0 0 1-3.23.93 5.86 5.86 0 0 1-2.47-.49 4.1 4.1 0 0 1-1.68-1.38 3.35 3.35 0 0 1-.6-1.91h2a2.06 2.06 0 0 0  .8 1.58 3.1 3.1 0 0 0  2 .58 3.26 3.26 0 0 0  1.81-.45 1.42 1.42 0 0 0  .64-1.18z" fill="#00684b"/>
      <path id="path30" d="m348.33 80.54a9.75 9.75 0 0 1-3.86-1.87 3.61 3.61 0 0 1-1.21-2.75 3.81 3.81 0 0 1  1.48-3 5.87 5.87 0 0 1  3.83-1.2 6.31 6.31 0 0 1  2.87.62 4.68 4.68 0 0 1  2 1.71 4.41 4.41 0 0 1  .69 2.4h-2.13a2.86 2.86 0 0 0-.9-2.24 3.68 3.68 0 0 0-2.55-.81 3.73 3.73 0 0 0-2.37.67 2.24 2.24 0 0 0-.85 1.87 2 2 0 0 0  .81 1.61 7.79 7.79 0 0 0  2.75 1.21 12.92 12.92 0 0 1  3 1.21 4.58 4.58 0 0 1  1.63 1.54 4 4 0 0 1  .53 2.07 3.63 3.63 0 0 1-1.48 3 6.34 6.34 0 0 1-4 1.14 7.35 7.35 0 0 1-3-.61 5.06 5.06 0 0 1-2.15-1.69 4.11 4.11 0 0 1-.76-2.44h2.07a2.69 2.69 0 0 0 1.05 2.24 4.37 4.37 0 0 0  2.79.82 4 4 0 0 0  2.5-.67 2.34 2.34 0 0 0  .07-3.58 9.33 9.33 0 0 0-2.81-1.25z" fill="#00684b"/>
      <path id="path32" d="m361.67 86.09a2.81 2.81 0 0 0 1.85-.64 2.23 2.23 0 0 0  .88-1.61h1.88a3.55 3.55 0 0 1-.68 1.9 4.66 4.66 0 0 1-1.69 1.44 4.86 4.86 0 0 1-2.24.53 4.76 4.76 0 0 1-3.77-1.58 6.27 6.27 0 0 1-1.4-4.33v-.33a7 7 0 0 1  .62-3 4.66 4.66 0 0 1  1.79-2 5 5 0 0 1  2.75-.73 4.64 4.64 0 0 1  3.24 1.17 4.19 4.19 0 0 1  1.38 3h-1.88a2.72 2.72 0 0 0-.85-1.85 2.65 2.65 0 0 0-1.89-.72 2.78 2.78 0 0 0-2.35 1.09 5.12 5.12 0 0 0-.83 3.15v.37a5 5 0 0 0  .83 3.09 2.8 2.8 0 0 0  2.36 1.05z" fill="#00684b"/>
      <path id="path34" d="m371 77.3a4.21 4.21 0 0 1 3.43-1.62q3.67 0 3.71 4.15v7.67h-2v-7.68a2.67 2.67 0 0 0-.58-1.86 2.29 2.29 0 0 0-1.75-.6 2.83 2.83 0 0 0-1.7.52 3.47 3.47 0 0 0-1.11 1.35v8.27h-2v-16.5h2z" fill="#00684b"/>
      <path id="path36" d="m380.89 81.59a6.82 6.82 0 0 1  .67-3.07 5 5 0 0 1  1.87-2.1 5 5 0 0 1  2.73-.74 4.89 4.89 0 0 1  3.84 1.64 6.3 6.3 0 0 1  1.47 4.37v.14a7 7 0 0 1-.65 3 4.91 4.91 0 0 1-1.82 2.17 5.13 5.13 0 0 1-2.77.75 4.85 4.85 0 0 1-3.82-1.64 6.25 6.25 0 0 1-1.47-4.34zm2 .24a5 5 0 0 0  .89 3.1 2.89 2.89 0 0 0  2.4 1.16 2.83 2.83 0 0 0  2.4-1.18 5.39 5.39 0 0 0  .89-3.32 5 5 0 0 0-.9-3.1 2.89 2.89 0 0 0-2.41-1.18 2.85 2.85 0 0 0-2.37 1.17 5.39 5.39 0 0 0-.9 3.35z" fill="#00684b"/>
      <path id="path38" d="m393.8 81.59a6.82 6.82 0 0 1  .67-3.07 5 5 0 0 1  1.86-2.1 5 5 0 0 1  2.73-.74 4.92 4.92 0 0 1  3.84 1.64 6.29 6.29 0 0 1  1.46 4.37v.14a6.82 6.82 0 0 1-.65 3 5 5 0 0 1-1.85 2.17 5.16 5.16 0 0 1-2.77.75 4.87 4.87 0 0 1-3.83-1.64 6.25 6.25 0 0 1-1.46-4.34zm2 .24a5 5 0 0 0  .9 3.1 3 3 0 0 0  4.8 0 5.46 5.46 0 0 0  .89-3.32 4.94 4.94 0 0 0-.91-3.1 3 3 0 0 0-4.78 0 5.39 5.39 0 0 0-.91 3.32z" fill="#00684b"/>
      <path id="path40" d="m409.31 87.5h-2v-16.5h2z" fill="#00684b"/>
      <path id="path42" d="m206.52 113.86v-10.07h-1.84v-1.53h1.84v-1.19a3.94 3.94 0 0 1 1-2.89 3.75 3.75 0 0 1  2.82-1 5.3 5.3 0 0 1  1.36.18l-.11 1.6a6 6 0 0 0-1.07-.1 1.93 1.93 0 0 0-1.49.57 2.31 2.31 0 0 0-.53 1.62v1.23h2.5v1.53h-2.5v10.07z" fill="#00684b"/>
      <path id="path44" d="m212.63 108a7 7 0 0 1  .67-3.07 4.94 4.94 0 0 1  4.6-2.84 4.89 4.89 0 0 1  3.83 1.64 6.31 6.31 0 0 1  1.47 4.37v.14a7 7 0 0 1-.65 3 4.87 4.87 0 0 1-1.86 2.1 5.11 5.11 0 0 1-2.77.75 4.88 4.88 0 0 1-3.82-1.64 6.3 6.3 0 0 1-1.47-4.35zm2 .24a5 5 0 0 0  .89 3.1 2.88 2.88 0 0 0  2.4 1.17 2.84 2.84 0 0 0  2.4-1.19 5.37 5.37 0 0 0  .89-3.32 5 5 0 0 0-.9-3.09 2.9 2.9 0 0 0-2.41-1.19 2.85 2.85 0 0 0-2.37 1.17 5.41 5.41 0 0 0-.9 3.3z" fill="#00684b"/>
      <path id="path46" d="m231.66 104a6 6 0 0 0-1-.08 2.63 2.63 0 0 0-2.65 1.66v8.24h-2v-11.6h1.99v1.34a3.1 3.1 0 0 1 2.77-1.56 2 2 0 0 1  .88.15z" fill="#00684b"/>
      <path id="path48" d="m242.49 99.45v2.81h2.17v1.53h-2.17v7.21a1.61 1.61 0 0 0  .29 1 1.22 1.22 0 0 0  1 .35 4.48 4.48 0 0 0  .94-.13v1.6a5.48 5.48 0 0 1-1.52.22 2.45 2.45 0 0 1-2-.81 3.43 3.43 0 0 1-.68-2.28v-7.2h-2.12v-1.53h2.11v-2.77z" fill="#00684b"/>
      <path id="path50" d="m249.84 103.66a4.21 4.21 0 0 1 3.43-1.62c2.45 0 3.69 1.39 3.71 4.15v7.67h-2v-7.68a2.71 2.71 0 0 0-.57-1.85 2.31 2.31 0 0 0-1.76-.6 2.86 2.86 0 0 0-1.69.51 3.41 3.41 0 0 0-1.14 1.35v8.27h-2v-16.47h2z" fill="#00684b"/>
      <path id="path52" d="m265.14 114.08a5.09 5.09 0 0 1-3.84-1.55 5.8 5.8 0 0 1-1.48-4.15v-.38a7 7 0 0 1  .66-3.09 5.17 5.17 0 0 1  1.85-2.12 4.64 4.64 0 0 1  2.57-.77 4.33 4.33 0 0 1  3.51 1.49 6.45 6.45 0 0 1  1.26 4.27v.83h-7.86a4.12 4.12 0 0 0 1 2.77 3.13 3.13 0 0 0  2.44 1.06 3.43 3.43 0 0 0  1.75-.44 4.61 4.61 0 0 0  1.28-1.14l1.21 1a4.88 4.88 0 0 1-4.35 2.22zm-.24-10.41a2.63 2.63 0 0 0-2 .88 4.27 4.27 0 0 0-1 2.45h5.82v-.15a3.8 3.8 0 0 0-.82-2.35 2.5 2.5 0 0 0-2-.83z" fill="#00684b"/>
      <path id="path54" d="m282 108.94l.3 2.06.44-1.86 3.09-10.9h1.74l3 10.9.43 1.86.34-2.1 2.42-10.69h2.07l-3.83 15.65h-1.87l-3.22-11.38-.25-1.19-.24 1.19-3.34 11.38h-1.88l-3.77-15.62h2.06z" fill="#00684b"/>
      <path id="path56" d="m297.06 108a7 7 0 0 1  .67-3.07 4.94 4.94 0 0 1  4.6-2.84 4.89 4.89 0 0 1  3.83 1.64 6.31 6.31 0 0 1  1.47 4.37v.14a7 7 0 0 1-.65 3 4.87 4.87 0 0 1-1.86 2.1 5.11 5.11 0 0 1-2.77.75 4.88 4.88 0 0 1-3.82-1.64 6.3 6.3 0 0 1-1.47-4.35zm2 .24a5 5 0 0 0  .89 3.1 2.88 2.88 0 0 0  2.4 1.17 2.84 2.84 0 0 0  2.4-1.19 5.37 5.37 0 0 0  .89-3.32 5 5 0 0 0-.9-3.09 2.9 2.9 0 0 0-2.41-1.19 2.85 2.85 0 0 0-2.37 1.17 5.41 5.41 0 0 0-.9 3.3z" fill="#00684b"/>
      <path id="path58" d="m316.09 104a5.86 5.86 0 0 0-1-.08 2.61 2.61 0 0 0-2.65 1.66v8.24h-2v-11.6h1.93v1.34a3.1 3.1 0 0 1 2.77-1.56 2 2 0 0 1  .88.15z" fill="#00684b"/>
      <path id="path60" d="m320.42 113.86h-2v-16.47h2z" fill="#00684b"/>
      <path id="path62" d="m323.43 108a6.74 6.74 0 0 1 1.27-4.29 4.29 4.29 0 0 1  6.54-.23v-6h2v16.47h-1.84l-.09-1.24a4.06 4.06 0 0 1-3.32 1.46 4 4 0 0 1-3.29-1.65 7 7 0 0 1-1.27-4.32zm2 .23a5.2 5.2 0 0 0  .81 3.09 2.64 2.64 0 0 0  2.25 1.11 2.89 2.89 0 0 0  2.76-1.69v-5.33a2.9 2.9 0 0 0-2.73-1.64 2.64 2.64 0 0 0-2.28 1.12 5.72 5.72 0 0 0-.82 3.3z" fill="#00684b"/>
      <path id="path64" d="m336.94 101.84a4.36 4.36 0 0 1  .54-2.14 4 4 0 0 1  1.52-1.56 3.94 3.94 0 0 1  4.08 0 4 4 0 0 1  1.48 1.56 4.57 4.57 0 0 1  0 4.29 4.11 4.11 0 0 1-1.48 1.56 3.93 3.93 0 0 1-2 .56 3.83 3.83 0 0 1-2-.57 4 4 0 0 1-1.48-1.56 4.39 4.39 0 0 1-.66-2.14zm.7 0a3.66 3.66 0 0 0  .43 1.75 3.32 3.32 0 0 0  1.2 1.32 3.28 3.28 0 0 0  1.73.49 3.12 3.12 0 0 0  1.71-.49 3.39 3.39 0 0 0  1.21-1.31 3.82 3.82 0 0 0  0-3.52 3.32 3.32 0 0 0-1.21-1.31 3.25 3.25 0 0 0-3.4 0 3.36 3.36 0 0 0-1.22 1.29 3.7 3.7 0 0 0-.45 1.78zm2.54.43v1.92h-.87v-4.85h1.61a2.11 2.11 0 0 1 1.37.4 1.38 1.38 0 0 1  .48 1.11 1.06 1.06 0 0 1-.61 1 1 1 0 0 1  .47.5 2.25 2.25 0 0 1  .13.79 5.58 5.58 0 0 0  0 .67 1.18 1.18 0 0 0  .07.32v.09h-.83a4.31 4.31 0 0 1-.08-1.1.91.91 0 0 0-.18-.63.86.86 0 0 0-.63-.19zm0-.76h.73a1.25 1.25 0 0 0  .72-.19.54.54 0 0 0  .29-.48.71.71 0 0 0-.21-.57 1.18 1.18 0 0 0-.73-.17h-.8z" fill="#00684b"/>
      <path id="path66" d="m92.79 185.58a92.79 92.79 0 1 1 92.79-92.79 92.89 92.89 0 0 1-92.79 92.79z" fill="#00684b"/>
      <path id="path68" d="m107.09 91.39h-.93c-.15.87-.33 3.3-1.8 4.79-1.32 1.34-2.41 1.46-4.12 1.46h-4.77v-10.38h2.13c2.89 0 3.29 2.09 3.75 4.36h.83v-9.39h-.83c-.46 2.34-.77 4.09-4.17 4.09h-1.71v-9.59h4.63c4.39 0 4.84 3.13 5.37 5.08h.92v-6.11h-17.91v1h3.38v20.94h-3.38v1h18.61z" fill="#fff"/>
      <path id="path70" d="m68.34 97.64c1.25 0 2.15 1.64 6.25 1.64a8.12 8.12 0 0 0 5.83-2.39 7.3 7.3 0 0 0  2.18-5.13c0-8.41-13.24-5.94-13.24-11.83 0-2.61 2.29-3.85 4.49-3.85 3.42 0 5.11 2.79 5.69 5.77h.93v-6.15h-.88c-.11.71-.35.89-.65.89-.74 0-2.29-1.5-5.09-1.5a6.43 6.43 0 0 0-6.71 6.57c0 6.45 8 6 11.25 8.88a3.79 3.79 0 0 1 1.29 2.92 4.63 4.63 0 0 1-1.06 3.05 5 5 0 0 1-4 1.78c-4.51 0-6-2.79-6.94-6.9h-1v7.28h.88c.14-.91.6-1 .83-1" fill="#fff"/>
      <path id="path72" d="m89.45 115.93c1.89 1.91 2.32 4.84 2.55 6.25h1.2c.23-1.41.66-4.34 2.54-6.25 2-2.06 4.4-2.21 6.35-2.21h58.51v-1.27h-58.6c-3.15 0-5.09.4-7.22 2.57a8.19 8.19 0 0 0-2.22 4.57 8.19 8.19 0 0 0-2.18-4.59c-2.14-2.17-4.08-2.57-7.22-2.57h-58.93v1.27h58.88c2 0 4.32.15 6.34 2.21" fill="#fff"/>
      <polygon id="polygon74" fill="#fff" points="53.85 76.73 57.19 76.73 57.19 92.14 46.86 75.7 39.92 75.7 39.92 76.73 43.25 76.73 43.25 97.64 39.92 97.64 39.92 98.67 47.7 98.67 47.7 97.64 44.36 97.64 44.36 78.42 57.19 98.86 58.3 98.86 58.3 76.73 61.63 76.73 61.63 75.7 53.85 75.7"/>
      <polygon id="polygon76" fill="#fff" points="24.23 97.64 24.23 98.67 34.55 98.67 34.55 97.64 31.21 97.64 31.21 76.73 34.55 76.73 34.55 75.7 24.23 75.7 24.23 76.73 27.6 76.73 27.6 97.64"/>
      <path id="path78" d="m157 78.24a13.7 13.7 0 0 0-8.71-2.64c-1.89 0-3.8.1-5.69.1h-3.6v1h3.33v20.94h-3.33v1h3.1c3.36 0 5 .14 6.3.14 3.84 0 6.7-.55 9.49-3.38a11.34 11.34 0 0 0 3.29-8.08 11.18 11.18 0 0 0-4.18-9.08zm-2.64 17.61c-1.59 1.61-3.58 2-6 2-.87 0-2.4-.14-2.4-.14v-21c .37 0 1.39 0 2.31 0a8.29 8.29 0 0 1 6.81 3c1.52 2 2.08 5.1 2.08 7.8-.03 3.85-1.32 6.78-2.85 8.34z" fill="#fff"/>
      <path id="path80" d="m132.08 97.64l-8.19-22.36h-1.16l-8.14 22.36h-2.73v1h7.08v-1h-3.15l2.46-7h7.4l2.5 7h-3.15v1h9.82v-1zm-13.46-8l3.38-9.15 3.33 9.16z" fill="#fff"/>
   </g>
</svg>
