<?xml version="1.0" encoding="UTF-8"?>
<svg id="Calque_1" xmlns="http://www.w3.org/2000/svg" version="1.1" viewBox="0 0 150 61">
  <!-- Generator: Adobe Illustrator 30.0.0, SVG Export Plug-In . SVG Version: 2.1.1 Build 123)  -->
  <defs>
    <style>
      .st0 {
        fill: #0f0db0;
      }
    </style>
  </defs>
  <path class="st0" d="M76.2,17.3c.4.2.9.3,1.4.3s1-.1,1.4-.3c.4-.2.7-.5.9-.9.2-.4.3-.8.3-1.3v-4.6h-.7v4.5c0,.4,0,.7-.2,1-.2.3-.4.5-.7.7s-.6.2-1,.2-.7,0-1-.2c-.3-.2-.5-.4-.7-.7-.2-.3-.2-.6-.2-1v-4.5h-.7v4.6c0,.5.1.9.3,1.3.2.4.5.7.9.9Z"/>
  <rect class="st0" x="89.2" y="10.5" width=".7" height="6.9"/>
  <polygon class="st0" points="102.3 16.9 98.8 16.9 98.8 14.3 102 14.3 102 13.7 98.8 13.7 98.8 11.1 102.2 11.1 102.2 10.5 98.2 10.5 98.2 17.5 102.3 17.5 102.3 16.9"/>
  <path class="st0" d="M104.5,14.7h1.6c0,0,.2,0,.3,0l1.5,2.8h.8l-1.6-2.9c.1,0,.2,0,.3-.1.3-.2.6-.4.8-.7.2-.3.3-.7.3-1.1s0-.8-.3-1.1c-.2-.3-.4-.6-.8-.7-.3-.2-.7-.3-1.2-.3h-2.3v6.9h.7v-2.8ZM104.5,11.1h1.6c.4,0,.7,0,.9.2.2.1.4.3.5.5.1.2.2.5.2.8s0,.6-.2.8c-.1.2-.3.4-.5.5-.2.1-.5.2-.9.2h-1.6v-3Z"/>
  <path class="st0" d="M112.9,16.8c-.3.1-.6.2-.9.2s-.6,0-.8-.1c-.3,0-.5-.2-.6-.4-.2-.2-.2-.4-.3-.7h-.7c0,.4.1.7.3,1,.2.3.5.5.8.7.4.2.8.2,1.2.2s.9,0,1.3-.3c.4-.2.6-.4.8-.7.2-.3.3-.6.3-1s0-.5-.2-.7c-.1-.2-.3-.4-.4-.5-.2-.1-.4-.3-.6-.4-.2,0-.4-.2-.7-.2l-.7-.2c-.2,0-.4-.1-.6-.3-.2-.1-.4-.2-.5-.4-.1-.2-.2-.4-.2-.6s0-.5.2-.7.3-.3.6-.5c.2-.1.5-.2.8-.2.5,0,.8.1,1.1.3.3.2.5.5.5.9h.6c0-.4-.1-.7-.3-.9-.2-.3-.5-.5-.8-.7-.3-.2-.7-.2-1.2-.2s-.8,0-1.2.2-.6.4-.8.7c-.2.3-.3.6-.3,1s.1.8.4,1.1.7.5,1.3.7l.8.2c.3,0,.5.2.8.3.2.1.4.2.5.4.1.2.2.4.2.6s0,.5-.2.7c-.2.2-.4.4-.6.5Z"/>
  <rect class="st0" x="115.9" y="10.5" width=".7" height="6.9"/>
  <polygon class="st0" points="120.2 17.5 120.9 17.5 120.9 11.1 123.1 11.1 123.1 10.5 118 10.5 118 11.1 120.2 11.1 120.2 17.5"/>
  <polygon class="st0" points="125.2 14.3 128.3 14.3 128.3 13.7 125.2 13.7 125.2 11.1 128.6 11.1 128.6 10.5 124.5 10.5 124.5 17.5 128.6 17.5 128.6 16.9 125.2 16.9 125.2 14.3"/>
  <polygon class="st0" points="127.7 8.5 126.9 8.5 126.3 9.8 126.8 9.8 127.7 8.5"/>
  <path class="st0" d="M82.3,20.5l-2.3,6.9h1.8l.5-1.5h2.3l.5,1.5h1.8l-2.4-6.9h-2.2ZM82.6,24.7v-.3c.2-.5.4-1,.5-1.6,0-.3.2-.7.2-1,0,.3.2.7.2,1,.1.6.3,1.1.4,1.6v.3c0,0-1.4,0-1.4,0Z"/>
  <path class="st0" d="M89.3,25h.9l1.3,2.4h1.8l-1.4-2.7s0,0,0,0c.4-.2.7-.4.9-.8.2-.3.3-.7.3-1.2s-.1-.9-.3-1.2c-.2-.3-.5-.6-.9-.8s-.8-.3-1.4-.3h-2.8v6.9h1.6v-2.4ZM89.3,21.8h.8c.3,0,.5,0,.6.1.2,0,.3.2.4.3,0,.1.1.3.1.5s0,.4-.1.5c0,.1-.2.2-.4.3-.2,0-.4.1-.6.1h-.9v-1.9Z"/>
  <rect class="st0" x="94" y="20.5" width="1.6" height="6.9"/>
  <path class="st0" d="M97.2,23.8c.3.3.8.5,1.4.7l.7.2c.3,0,.5.1.6.2.2,0,.3.2.4.2,0,0,.1.2.1.3s0,.3-.1.4c0,.1-.2.2-.4.3s-.4,0-.6,0-.5,0-.7-.1-.3-.2-.4-.3c-.1-.2-.2-.3-.2-.6h-1.6c0,.5.1,1,.4,1.3s.6.6,1,.8c.4.2.9.3,1.5.3s1.1,0,1.5-.3c.4-.2.7-.4.9-.7.2-.3.3-.7.3-1.1s0-.5-.1-.8c0-.2-.2-.4-.4-.6-.2-.2-.4-.3-.7-.4-.3-.1-.6-.2-.9-.3h-.6c-.2-.2-.4-.2-.5-.3-.2,0-.3-.1-.4-.2,0,0-.1-.2-.1-.4s0-.2.1-.3.2-.2.3-.2c.1,0,.3,0,.6,0,.3,0,.6,0,.8.2.2.1.3.3.3.6h1.6c0-.4-.1-.8-.3-1.1-.2-.3-.5-.6-.9-.8-.4-.2-.9-.3-1.4-.3s-1,0-1.4.3c-.4.2-.7.4-1,.8s-.3.7-.3,1.1.2.9.5,1.2Z"/>
  <path class="st0" d="M78.2,35.9c-.2,0-.4,0-.6,0s-.5,0-.7-.1c-.2,0-.3-.2-.4-.3-.1-.2-.2-.3-.2-.6h-1.6c0,.5.1,1,.4,1.3.2.4.6.6,1,.8.4.2.9.3,1.5.3s1.1,0,1.5-.3c.4-.2.7-.4.9-.7.2-.3.3-.7.3-1.1s0-.5-.1-.8c0-.2-.2-.4-.4-.6-.2-.2-.4-.3-.7-.4-.3-.1-.6-.2-.9-.3h-.6c-.2-.2-.4-.2-.5-.3-.2,0-.3-.1-.4-.2,0,0-.1-.2-.1-.4s0-.2.1-.3.2-.2.3-.2c.1,0,.3,0,.6,0,.3,0,.6,0,.8.2s.3.3.3.6h1.6c0-.4-.1-.8-.3-1.1-.2-.3-.5-.6-.9-.8-.4-.2-.9-.3-1.4-.3s-1,0-1.4.3c-.4.2-.7.4-1,.8-.2.3-.3.7-.3,1.1s.2.9.5,1.2c.3.3.8.5,1.4.7l.7.2c.3,0,.5.1.6.2s.3.2.4.2c0,0,.1.2.1.3s0,.3-.1.4c0,.1-.2.2-.4.3Z"/>
  <path class="st0" d="M85.6,37.2c.4-.1.7-.3.9-.6.3-.2.5-.5.6-.8.1-.3.2-.6.3-.9h-1.7c0,.2,0,.3-.2.5,0,.1-.2.3-.3.3-.1,0-.3.2-.4.2-.2,0-.3,0-.5,0-.3,0-.6,0-.9-.2-.2-.2-.4-.4-.6-.7-.1-.3-.2-.7-.2-1.2s0-.8.2-1.1c.1-.3.3-.6.6-.7.2-.2.5-.3.9-.3s.4,0,.5,0,.3.1.4.2c.1,0,.2.2.3.3,0,.1.1.3.2.5h1.7c0-.4-.2-.8-.3-1.1-.2-.3-.4-.6-.7-.8-.3-.2-.6-.4-.9-.5-.4-.1-.7-.2-1.1-.2-.6,0-1.2.1-1.7.4s-.9.7-1.2,1.2c-.3.5-.4,1.2-.4,1.9s.1,1.4.4,1.9c.3.5.7.9,1.2,1.2.5.3,1.1.4,1.7.4s.9,0,1.3-.2Z"/>
  <rect class="st0" x="88.3" y="30.4" width="1.6" height="6.9"/>
  <polygon class="st0" points="95.9 31.7 95.9 30.4 91 30.4 91 37.3 95.8 37.3 95.8 36 92.7 36 92.7 34.4 95.6 34.4 95.6 33.1 92.7 33.1 92.7 31.7 95.9 31.7"/>
  <path class="st0" d="M107.3,30.3c-.6,0-1.2.1-1.7.4-.5.3-.9.7-1.2,1.2-.3.5-.4,1.2-.4,1.9s.1,1.4.4,1.9c.3.5.7.9,1.2,1.2.5.3,1.1.4,1.7.4s.9,0,1.3-.2c.4-.1.7-.3.9-.6.3-.2.5-.5.6-.8.1-.3.2-.6.3-.9h-1.7c0,.2,0,.3-.2.5,0,.1-.2.3-.3.3-.1,0-.3.2-.4.2-.2,0-.3,0-.5,0-.3,0-.6,0-.9-.2-.2-.2-.4-.4-.6-.7-.1-.3-.2-.7-.2-1.2s0-.8.2-1.1c.1-.3.3-.6.6-.7.2-.2.5-.3.9-.3s.4,0,.5,0,.3.1.4.2c.1,0,.2.2.3.3,0,.1.1.3.2.5h1.7c0-.4-.2-.8-.3-1.1-.2-.3-.4-.6-.7-.8-.3-.2-.6-.4-.9-.5s-.7-.2-1.1-.2Z"/>
  <polygon class="st0" points="116.1 31.7 116.1 30.4 111.3 30.4 111.3 37.3 116.1 37.3 116.1 36 112.9 36 112.9 34.4 115.8 34.4 115.8 33.1 112.9 33.1 112.9 31.7 116.1 31.7"/>
  <path class="st0" d="M121.2,37.1c.4-.2.7-.4.9-.7.2-.3.3-.7.3-1.1s0-.5-.1-.8c0-.2-.2-.4-.4-.6-.2-.2-.4-.3-.7-.4-.3-.1-.6-.2-.9-.3h-.6c-.2-.2-.4-.2-.5-.3-.2,0-.3-.1-.4-.2,0,0-.1-.2-.1-.4s0-.2.1-.3c0-.1.2-.2.3-.2.1,0,.3,0,.6,0,.3,0,.6,0,.8.2s.3.3.3.6h1.6c0-.4-.1-.8-.3-1.1-.2-.3-.5-.6-.9-.8-.4-.2-.9-.3-1.4-.3s-1,0-1.4.3c-.4.2-.7.4-1,.8-.2.3-.3.7-.3,1.1s.2.9.5,1.2c.3.3.8.5,1.4.7l.7.2c.3,0,.5.1.6.2s.3.2.4.2c0,0,.1.2.1.3s0,.3-.1.4c0,.1-.2.2-.4.3-.2,0-.4,0-.6,0s-.5,0-.7-.1c-.2,0-.3-.2-.4-.3-.1-.2-.2-.3-.2-.6h-1.6c0,.5.1,1,.4,1.3.2.4.6.6,1,.8.4.2.9.3,1.5.3s1.1,0,1.5-.3Z"/>
  <path class="st0" d="M80,45.8c.2-.3.3-.6.4-.9,0-.4.1-.7.1-1.2h-1.3c0,.3,0,.6-.2.9,0,0,0,.2-.1.3l-1-1.2.4-.3c.2-.1.4-.3.5-.5.1-.2.2-.3.3-.5,0-.2.1-.4.1-.6,0-.3,0-.6-.2-.9-.1-.3-.4-.5-.6-.6-.3-.2-.6-.2-1-.2s-.7,0-1,.2c-.3.2-.5.4-.7.7s-.2.6-.2.9,0,.6.2.9c.1.3.3.5.4.7,0,0,0,0,0,0-.2.2-.5.3-.7.5-.2.2-.3.4-.4.6-.1.2-.2.4-.2.7s0,.7.3,1c.2.3.5.5.8.7.4.2.8.3,1.3.3s.6,0,.9-.1c.3,0,.6-.2.8-.4l.4.4h1.7l-1.1-1.2c0,0,0-.1.1-.2ZM76.8,41.7c0,0,.1-.2.2-.2,0,0,.2,0,.3,0,.2,0,.3,0,.4.1,0,0,.1.2.1.4s0,.2,0,.2,0,.2-.2.2c0,0-.2.1-.3.2l-.3.2c-.1-.1-.2-.3-.3-.4,0-.1-.1-.3-.1-.4s0-.2,0-.3ZM77.9,45.9c-.2.1-.5.2-.7.2s-.3,0-.5,0c-.1,0-.2-.1-.3-.3,0-.1-.1-.2-.1-.4s0-.3.1-.4c0-.1.2-.2.3-.3l1.2,1.3s0,0,0,0Z"/>
  <polygon class="st0" points="84.5 40.3 82.9 40.3 82.9 47.2 87.4 47.2 87.4 45.9 84.5 45.9 84.5 40.3"/>
  <polygon class="st0" points="88.3 47.2 93.1 47.2 93.1 45.9 89.9 45.9 89.9 44.4 92.8 44.4 92.8 43 89.9 43 89.9 41.6 93.1 41.6 93.1 40.3 88.3 40.3 88.3 47.2"/>
  <polygon class="st0" points="93.9 41.6 95.9 41.6 95.9 47.2 97.5 47.2 97.5 41.6 99.5 41.6 99.5 40.3 93.9 40.3 93.9 41.6"/>
  <polygon class="st0" points="100.1 41.6 102.2 41.6 102.2 47.2 103.8 47.2 103.8 41.6 105.8 41.6 105.8 40.3 100.1 40.3 100.1 41.6"/>
  <path class="st0" d="M110.8,44.6c.4-.2.7-.4.9-.8s.3-.7.3-1.2-.1-.9-.3-1.2c-.2-.3-.5-.6-.9-.8s-.8-.3-1.4-.3h-2.8v6.9h1.6v-2.4h.9l1.3,2.4h1.8l-1.4-2.7s0,0,0,0ZM110.2,43.1c0,.1-.2.2-.4.3-.2,0-.4.1-.6.1h-.9v-1.9h.8c.3,0,.5,0,.6.1.2,0,.3.2.4.3,0,.1.1.3.1.5s0,.4-.1.5Z"/>
  <polygon class="st0" points="113.1 47.2 117.9 47.2 117.9 45.9 114.7 45.9 114.7 44.4 117.6 44.4 117.6 43 114.7 43 114.7 41.6 117.9 41.6 117.9 40.3 113.1 40.3 113.1 47.2"/>
  <path class="st0" d="M123.8,43.9c-.2-.2-.4-.3-.7-.4-.3-.1-.6-.2-.9-.3h-.6c-.2-.2-.4-.2-.5-.3-.2,0-.3-.1-.4-.2,0,0-.1-.2-.1-.4s0-.2.1-.3c0-.1.2-.2.3-.2.1,0,.3,0,.6,0,.3,0,.6,0,.8.2s.3.3.3.6h1.6c0-.4-.1-.8-.3-1.1-.2-.3-.5-.6-.9-.8-.4-.2-.9-.3-1.4-.3s-1,0-1.4.3c-.4.2-.7.4-1,.8-.2.3-.3.7-.3,1.1s.2.9.5,1.2c.3.3.8.5,1.4.7l.7.2c.3,0,.5.1.6.2s.3.2.4.2c0,0,.1.2.1.3s0,.3-.1.4c0,.1-.2.2-.4.3-.2,0-.4,0-.6,0s-.5,0-.7-.1c-.2,0-.3-.2-.4-.3-.1-.2-.2-.3-.2-.6h-1.6c0,.5.1,1,.4,1.3.2.4.6.6,1,.8.4.2.9.3,1.5.3s1.1,0,1.5-.3c.4-.2.7-.4.9-.7.2-.3.3-.7.3-1.1s0-.5-.1-.8c0-.2-.2-.4-.4-.6Z"/>
  <path class="st0" d="M76.5,25.2h1.2c.5,0,1,0,1.4-.3.4-.2.7-.5.9-.8.2-.4.3-.8.3-1.2s-.1-.9-.3-1.3c-.2-.4-.5-.6-.9-.8-.4-.2-.8-.3-1.4-.3h-2.8v6.9h1.6v-2.2ZM76.5,21.8h.8c.3,0,.5,0,.7.1.2,0,.3.2.4.4,0,.2.1.3.1.6s0,.4-.1.6c0,.2-.2.3-.4.4-.2,0-.4.1-.6.1h-.9v-2.1Z"/>
  <path class="st0" d="M99.1,33.7c.1.2.3.5.4.8l1.8,2.9h1.8v-6.9h-1.7v3c0,.2,0,.4,0,.7,0,.3,0,.6,0,.9,0,.1,0,.2,0,.3,0-.1-.1-.3-.2-.4-.1-.3-.2-.5-.4-.7-.1-.2-.2-.4-.4-.6l-1.9-3.1h-1.8v6.9h1.7v-2.9c0-.2,0-.4,0-.7,0-.3,0-.6,0-.9,0-.2,0-.3,0-.5,0,.2.2.3.2.5.1.3.3.5.4.8Z"/>
  <path class="st0" d="M82.6,13.1c0-.1,0-.3,0-.5,0-.2,0-.4,0-.7,0-.2,0-.4,0-.6.1.2.2.4.3.6.1.2.3.4.4.6.1.2.2.4.3.5l3,4.4h.8v-6.9h-.7v4.6c0,.1,0,.3,0,.5,0,.2,0,.4,0,.6,0,.1,0,.3,0,.5,0-.1-.2-.3-.2-.4-.1-.2-.2-.4-.3-.6-.1-.2-.2-.3-.3-.5l-3.2-4.7h-.8v6.9h.7v-4.4Z"/>
  <path class="st0" d="M94.4,17.5l2.5-6.9h-.7l-1.6,4.5c0,.2-.2.5-.3.9,0,.3-.2.6-.3,1-.1-.4-.2-.7-.3-1-.1-.3-.2-.6-.3-.9l-1.7-4.5h-.7l2.6,6.9h.8Z"/>
  <path class="st0" d="M22.8.3h-1.2v38.4c0,12.3,10,22.2,22.2,22.2s22.2-10,22.2-22.2V.3H22.8ZM65,38.6c0,11.6-9.5,21.1-21.1,21.1s-21.1-9.5-21.1-21.1V1.4h42.1v37.2Z"/>
  <path class="st0" d="M38.3,34.4l-5.1-3.1c-1,1.1-1.6,2.5-1.6,3.9,0,3.4,3.3,6.2,7.8,7.1,0,3.6-2.1,4.6-2.1,4.6v.2s17.9,0,17.9,0l.8-4.6h-.2c-2.2,2.6-5.7,4-9.9,4.3v-4.5c4.5-.9,7.7-3.8,7.8-7.1,0-2.9-1.9-4.8-3.8-6-1-.7-2.8-1.7-4-2.5v-2.9h4c3.5,0,6.3-3,6.3-6.6s-2.7-6.6-6.3-6.6h-12.6v.2s2.1,1.1,2.1,4.8h0c-.6,0-2.2,0-4.1.9-1,.5-1.9,1.3-2.6,2.3,0,0,0,.1-.1.2-1.9,3.1-1,7.1,2.2,9.2,2.9,1.9,11.2,6.9,12.9,7.9h0c1.1.7,1.8,1.6,1.8,2.7,0,1.5-1.5,2.8-3.6,3.4v-5.5l-6.5-3.9v9.4c-2.2-.6-3.6-1.9-3.7-3.4,0-1.8,1.3-3.2,2.5-4.2ZM45.9,10.9c3.1,0,4.4,2.8,4.4,6.3s-1.3,6.3-4.4,6.3v-12.6ZM39.4,22.8c-1.3-.8-2.1-1.3-2.1-1.3-1.4-.9-1.9-2.8-1-4.2.6-1,1.6-1.5,3.1-1.5v6.9Z"/>
</svg>