<svg xmlns="http://www.w3.org/2000/svg" fill="none" viewBox="0.0 0.0 400.0 400.0" width="316.22776601683796" height="316.22776601683796"><path fill="#000F46" d="M0 0h400v400H0z"/><path fill="#fff" d="m281.271 80.792-26.229-34.063c-3.834 2.396-9.875 4.75-15.959 4.75-6.083 0-10.458-.562-15.583-1.583-6.354-1.271-13.562-2.688-25-2.688s-18.646 1.438-25 2.688c-5.146 1.02-9.5 1.583-15.583 1.583-6.084 0-12.125-2.354-15.959-4.75l-26.27 34.063c3.25 3.125 9.166 10.166 9.166 20.166 0 6.813-1 12.979-2.146 20.125-1.562 9.604-3.312 20.5-3.312 36.709 0 27.791 17.729 51.75 46.25 62.5 20.646 7.77 29.271 13.5 32.833 16.646 3.563-3.167 12.188-8.876 32.834-16.646 28.541-10.75 46.25-34.688 46.25-62.5 0-16.209-1.771-27.105-3.313-36.709-1.167-7.146-2.146-13.312-2.146-20.125 0-10 5.917-17.062 9.167-20.166Z"/><path fill="#000F46" d="m255.042 46.73 26.229 34.062c-3.25 3.125-9.167 10.166-9.167 20.166 0 6.813 1 12.98 2.146 20.125 1.563 9.605 3.313 20.5 3.313 36.709 0 27.791-17.73 51.75-46.25 62.5-20.646 7.771-29.271 13.5-32.834 16.646-3.562-3.167-12.187-8.875-32.833-16.646-28.542-10.75-46.25-34.688-46.25-62.5 0-16.209 1.771-27.104 3.312-36.709 1.167-7.145 2.146-13.312 2.146-20.125 0-9.979-5.916-17.041-9.166-20.166l26.229-34.063c3.833 2.396 9.875 4.75 15.958 4.75s10.458-.562 15.583-1.583c6.355-1.271 13.563-2.688 25-2.688 11.438 0 18.646 1.438 25 2.688 5.146 1.02 9.5 1.583 15.584 1.583 6.125 0 12.146-2.354 16-4.75Zm.479-2.73-1.583.98c-3.438 2.145-9.146 4.437-14.875 4.437-6.188 0-10.396-.584-15.188-1.542-6.458-1.27-13.75-2.73-25.396-2.73s-18.958 1.46-25.396 2.73c-4.791.958-9 1.542-15.187 1.542-5.729 0-11.438-2.292-14.875-4.438L141.438 44l-1.125 1.48-26.23 34.062L112.958 81l1.313 1.27c3.187 3.063 8.542 9.563 8.542 18.688 0 6.646-.98 12.729-2.125 19.792-1.563 9.688-3.355 20.667-3.355 37.042 0 28.666 18.23 53.354 47.584 64.416 20.958 7.896 29.166 13.584 32.208 16.271l1.354 1.209 1.354-1.209c3.021-2.687 11.23-8.375 32.209-16.271 29.354-11.062 47.583-35.729 47.583-64.416 0-16.375-1.771-27.354-3.354-37.042-1.146-7.063-2.125-13.167-2.125-19.792 0-9.125 5.354-15.625 8.542-18.687L284 81l-1.125-1.458-26.208-34.063L255.521 44Z"/><path fill="#000F46" d="M266.792 100.625c0-9 3.896-15.938 7.541-20.458l-20.791-26.98c-3.917 2.084-8.792 3.271-14.459 3.271-6.604 0-11.458-.645-16.625-1.687-6.125-1.209-13.083-2.584-24-2.584-10.916 0-17.875 1.376-24 2.584-5.166 1.02-10.02 1.687-16.625 1.687-5.666 0-10.541-1.187-14.458-3.27l-20.792 26.979c3.646 4.52 7.542 11.458 7.542 20.458 0 7.229-1.021 13.604-2.229 20.979-1.521 9.417-3.25 20.084-3.25 35.854 0 25.521 16.396 47.563 42.812 57.521 16.396 6.167 25.73 11.229 31 14.896 5.271-3.667 14.605-8.729 31-14.896 26.417-9.937 42.813-31.979 42.813-57.521 0-15.791-1.729-26.458-3.25-35.854-1.208-7.375-2.229-13.75-2.229-20.979Z"/><path fill="#000F46" d="M138.542 61.375c-10.313-2.354-15.084-3.833-15.084-3.833 0 6.208 3.188 9.291 3.188 9.291s.687 2.292 2.646 5.709m137.625 21c4.646-2.605 5.875-3.667 7.5-8.355 0 0 3.666-3.187 5.208-5.77 4.208-4.459 5.5-9.938 5.542-9.98 3.271-3.874 4.333-9.229 4.333-9.229 3.292-5.166 3.708-9.77 3.708-9.77s-7.604 2.541-23.812 7.708c-2.354.75-11.042 3.75-11.042 3.75"/><path fill="#fff" d="m144.083 115.083 1.604 4.063 4.271-1.25-2.083 3.771 3.646 2.812-4.375.375.208 4.438-3.187-2.875-3.438 2.875.313-4.229-4.167-.938 3.708-2.604-2.041-3.813 3.916 1.396 1.625-4.021Zm23.479 10.5-3.916-1.291 2.021 3.75-3.709 2.562 4.292.938-.417 4.291 3.396-2.875 3.292 2.875-.271-4.437 4.396-.375-3.584-2.75 2.021-3.813-4.271 1.146-1.562-3.958-1.688 3.937Zm-29.75 25.605-3.916-1.292 1.979 3.708-3.646 2.563 4.167.937-.354 4.271 3.437-2.917 3.188 2.917-.209-4.479 4.375-.375-3.604-2.813 2.042-3.708-4.292 1.188-1.562-4.021-1.605 4.021Zm29.896 1.562-3.75.063 3.125 2.354-1.146 3.812 3.167-2.291 3.188 2.291-1.188-3.812 3.125-2.396h-3.854l-1.25-3.708-1.417 3.687Zm-.312 26.292-3.917-1.354 1.979 3.75L161.75 184l4.229.938-.312 4.27 3.395-2.916 3.23 2.979-.313-4.375 4.438-.521-3.605-2.812 2.042-3.709-4.229 1.209-1.563-4.063-1.666 4.042Zm38.166 10.187c2.376-1.187 3-2.333 3.771-3.812l.063-.125c.166-.334.312-.667.458-1.021.25-.604.542-1.271 1.063-2.083v-.042c-12.834-14.583-21.875-31.667-25-37.625-.021-.042-.084-.021-.084.021-.187 5.166-.083 15.916 3.542 23.021 2.042 3.979 2.375 4.375 7.833 11.083l.854 1.062.605.73c.02.041 0 .083-.042.062-.687-.333-1.771-1.042-1.771-1.042-1.604-.916-5.375-3.875-8.687-8.666-.021-.042-.084-.021-.084.021-.166 7.062 3.459 13.708 5.875 16.312 2.334 2.521 5.667 2.896 7.459 2.896 1.604 0 3.145-.313 4.145-.792Zm23.355 4.459c3.208-.188 7.166-1.438 8.583-3.48.437-.541 1.146-1.291 2.792-2.229 1-.521 1.958-.854 2.812-1.146 2.521-.854 4.188-1.416 4.167-6.02-17.75-10.625-24.959-21.313-24.479-21.375 0 0 3.083 3.125 7.562 6.75 3.917 3.166 12.188 10.083 19.417 13.312.5.25.021 7-4.063 8.833-.354.167-.875.375-1.5.605-2.125.791-5.333 1.979-5 4.145.104.188.792.459 2.23.459 3.187 0 7.333-1.271 8.916-4.084.625-1.125 1.084-2.146 1.5-3.041 1.292-2.813 2.084-4.542 5.75-5.334-1.542-1.645-9.646-10.291-13.396-14.312-3.958-4.25-6.833-9.042-7.146-9.563 0-.02-.645-1.041-1.604-1.687-4.021-3.125-8.375-3.979-12.229-4.729-4.229-.75-6.333-1.542-7.771-2.917-2.416-2.25-2.02-5.854-1.854-7.208 0-.084.021-.167.021-.25-.229.25-.604.854-.771 1.104-.625 1.021-1.583 2.542-3.354 2.542-.188 0-.396-.021-.604-.063-1.396-.25-2.375-.937-3.146-3.646-.208-.708-.604-.937-.771-.958-.229 0-.333.083-.396.146-.625.666-.479 3.104-.25 4.187.063.479-.083.75-.208.896-.167.208-.437.313-.75.313-.375 0-.708-.167-.854-.417a19.686 19.686 0 0 1-1.271-2.125c-.292 1.104-.854 2.292-2.146 2.312-.937 0-1.771-.75-2.666-1.541-1-.896-1.834-1.584-2.542-1.584-.229 0-.438.063-.667.209-.375.25-.771.375-1.167.375-.5 0-.937-.209-1.27-.604-1.209-1.563.333-3.584.937-4.25-.396-.271-1.271-.542-2.354-.542-.813 0-2.771.167-3.625 1.625-.271.896.25 1.917.667 2.75 1.562 3.437 13.895 25.479 26.562 39.458.813.938.896 1.771.292 2.584-1.709 2.395-2.292 4.291-1.729 5.624.708 1.688 2.979 2.063 3 2.063a8.736 8.736 0 0 0 1.708.167c2.5 0 3.312-1.354 4.25-2.917 1.208-2.167 2.396-2.625 3.187-2.625.438 0 .751.125.875.188l.042.02c.292.146.667.584.792 1.146.104.438.125 1.146-.438 1.938l-.021.02c-.52.584-1.458 1.021-2.27 1.417-.813.396-1.73.834-1.688 1.167.125.458 3.271 2.25 7.5 2.25.167.042.292.042.438.042Zm-21.834-40.313c2.229 3.25 8.188 11.917 18.396 23.542 0 0 .709.958-.312 2.896l-.459.687-.333-.729s-.312-.708-.979-1.458c-12.479-14.313-17.834-26.605-17.771-26.646 0 .021.271 0 1.458 1.708Zm30.688 1.188c.521-.375.791-1.375.791-3.021 0-.896 0-1.75.542-2.459a2.883 2.883 0 0 1 2.083-1.166c-.916-.542-2-1.146-3.229-1.813-3.062-1.666-7.583-4.125-13.062-8.166 1.312 1.77 3 3.541 4.916 5.208l.688.604c-.042.063-.792-.187-.792-.187-.062-.021-1.52-.521-2.437-1.105-.021-.02-.063-.041-.104-.062-2.667-1.521-5.209-3.979-7.188-6.979-.021-.042-2.625-4.292-5.792-11.479-.937-2.146-6.02-10.771-7.979-12.605-3.062-.625-6.979-.666-8.104-.666-.604 0-1.125.021-1.458.041-2.334.146-4.084.542-5 .896-4 11.084-5.292 18.875-5.646 23.479l-.042.375a8.184 8.184 0 0 1 3.334-.708c2.145 0 4.062.833 4.458 1.958.312 1.021-.146 1.563-.604 2.084-.271.333-.563.646-.688 1.125a3.192 3.192 0 0 1 1.438-.354c1.562 0 2.896 1.187 3.875 2.062l.021.021c.77.708 1.104.917 1.25 1 .146-.229.52-1.125.729-4.229v-.042c-1.625-9.583 3.375-16.354 3.375-16.354s-3.25 11-.834 17.729c.417-1.667 1.396-2.208 2.209-2.333.125-.021.25-.042.375-.042 1.041 0 2.312.75 2.792 2.417.583 2.041.979 2.104 1.562 2.229a.926.926 0 0 0 .229.021c.583 0 .958-.479 1.667-1.604.583-.938 1.312-2.125 2.625-2.125a2 2 0 0 1 .479.062c.646.146 1.521.813 1.354 2.063-.854 6.625 2.104 7.208 8 8.354 3.25.646 7.271 1.416 11.125 3.771-.437-.896-1.167-1.709-1.687-2.271a8.478 8.478 0 0 1-.521-.604l-.271-.375.458.041c.042 0 3.917.375 4.813 5.271h.021c.041.063.125.021.229-.062Zm4.167-4.813c-.209 0-.417.021-.646.083-.771.188-.834.792-.855 1.896-.02.813-.041 1.792-.562 2.709 2.313-.5 3.771-1.688 3.75-3.105-.021-.52-.25-.979-.625-1.27-.271-.209-.646-.313-1.062-.313Zm-27.48-30.042c.042.063.125.063.188 0 1.667-2 .521-6.25.166-7.854 2.355 1.417 5.584 2.417 7.355 2.584.208-2.021-.313-4.084-1.188-6.5 2.646 1.916 6.583 3.062 7.917 3 .291-2.125-1.271-6.125-1.375-6.688 1 .396 3.354 1.729 5.333 1.958.521-1.291.854-3.395.667-5.437 0 0-3.667.708-5.5.708-.5 0-.959-.021-1.354-.062-1.021-.084-2.896-.438-4.75-.834-1.063-.229-2.146-.416-3.084-.583-.375-.063-.75-.125-1.083-.208a34.995 34.995 0 0 0-3.271-.438c-.5-.041-1.458-.083-1.896-.083-.021 0-.021 0-.021.02-.645 4.022-3 7.584-4.27 9.522-.188.291-.355.541-.48.729v.021c2.48 3.479 6.021 9.166 6.646 10.145Zm-44-25.145c-.916-.813-1.25-1.771-.958-2.709-1.688-.208-4.604-.75-6.938-2.041-1.02.229-4.312.895-8.437.895-.917 0-1.875-.02-2.896-.083.084.063.167.104.25.167.875.562 1.75 1.145 2.625 1.312.354-.062 1.188-.125 3.292-.27.312-.022.646-.042.958-.042 2.208 0 4.625.77 7.375 2.375.229.083 2.479.979 3.667 1.583.187-.25.562-.667 1.062-1.188Zm96.209-3.105c1.875-.5 4-2.416 5.187-4.583-2.375 1.396-4.333 1.958-6.604 1.958-.438 0-.917-.02-1.438-.062-.333.541-.708 1.562-2.541 2.458 1.854.75 4.458.48 5.396.23Zm-30.063.459c.958-.105 1.813-.209 2.563-.292 4.875-.563 5.625-.646 6.375-1.125.104-.063.271-.23.458-.438.604-.604 1.5-1.5 2.521-1.624.146-.021.291-.042.417-.063.124-.02.27-.042.395-.063.438-.062.813-.145 1.146-.395.854-.605 1.646-1.167 2.438-1.209h.041c.625 0 .896.605.959.813.166.312.145 1.062.104 1.604a4.1 4.1 0 0 0 .729-.23c.062-.02.146-.062.25-.103.312-.125.75-.313 1.146-.438.271-.083.479-.125.687-.125.459 0 .729.23 1 .521.438.458.688 1.104.75 1.583 1.334-.375 2.542-1.27 3.063-1.916-2-.563-4.584-1.792-6.146-3.73-.667-.833-.917-1.645-.979-2.25-7.125 2.709-19.292 5.417-23.25 6.25.125.459.125.917 0 1.355a2.689 2.689 0 0 1-.583 1.062c.437.375 1.395 1.313 1.395 1.313s3.938-.438 4.521-.5Zm-63.458-2.146a2.816 2.816 0 0 1-.313-1.104c-4.666-2.813-10-3.667-13.021-3.938.875 1.25 1.938 2.23 3.271 3.063 3.063 1.895 7.917 2.187 8.584 2.229.27-.063.854-.167 1.479-.25Zm-12.896-1.563c-1.146-.979-2.042-2.104-2.833-3.5-1.48.167-2.938.271-4.375.271-4.521 0-8.938-.896-13.459-2.729 2.25 2.292 6.167 5.375 9.5 6.083 1.604.25 3.292.375 5.021.375 2.5 0 4.667-.25 6.146-.5Zm94.875-8.166c.062-.105.417-.563 1-1 .313-.25.646-.459 1-.605l.312-.124c1.271-.563 2.605-1.126 3.375-1.709l.23-.166c.583-.417 1.125-.834 1.541-1.626-2.145-.104-4-.645-5.229-1.124-13.021 2.833-25.437 7.75-29.396 9.395.875.813 1.063 1.896.584 3.292.583.042 1.104.208 1.562.52 2.104-.457 17.688-3.77 25.021-6.853Zm16.646 4.458c1.562-1.146 3.646-2.688 5.417-5.02-4.5 1.874-8.021 2.27-12.792 2.312h-.334c-3.416 0-5.854-.542-7.041-.875-.125.125-.209.229-.25.27-.063.105-.583 1.021.375 2.188 1.604 1.98 4.687 3.125 6.375 3.313a14.21 14.21 0 0 0 1.687.104c1.417.02 3.646-.209 6.563-2.292Zm-115.313-1.708c-.479-1.105-.854-2.23-1.229-3.334l-.062-.145c-.917-2.688-3.25-3.438-3.5-3.5-11.105-2.334-19-5.98-22.959-8.771 1.396 3.229 2.792 6.125 5.042 8.583 2.708 2.98 6.354 5 11.438 6.354h.041c1.563.396 3.104.667 4.583.792 1.146.104 2.292.146 3.396.146a22.765 22.765 0 0 0 3.25-.125ZM225.104 82h.167c1.646-.73 14.479-6.23 28.979-9.688-3.021-1.25-5.854-1.833-8.854-1.833-2.271 0-4.667.334-7.292 1.042-8.396 2.229-13.667 5.562-16.229 7.541.437.105.812.292 1.167.563.875.667 1.333 1.52 1.333 2.438.25-.042.5-.063.729-.063Zm39.5-2.27c2.917 0 7.271-.334 11.313-1.855 3.833-1.5 5.854-5.542 6.583-7.396-5.604 3-10.792 3.854-17.75 4.313-.604 1.875-1.688 2.666-2.542 3.291l-.208.167c-.583.438-1.375.854-2.125 1.208.979.105 2.625.271 4.729.271Zm-88.75 18.562c2.5-2.209 3.625-2.834 6.834-4.209 1.979-2.583 4.708-4.125 7.562-4.312-3.312-2.625-5.5-5.313-5.521-9.459-.021-4.124-2.417-8.354-4.604-9.916-3.5-2.667-8.167-2.896-14.646-3.188-4.375-.208-9.333-.437-15.187-1.458-.084-.02-10.146-2.042-12.959-2.688-.083-.02-7.458-1.52-11.437-2.75.541 1.771 2.083 3.584 4.583 5.417.313.209 7.708 5.188 21.208 8.042l.146.041s.959.209 1.292.271c11.479 2.209 13.896 2.896 14.125 2.959 3.542 1 6.438 2.291 7.521 3.354.5.458 1.083 1.166 1.125 1.208l.5.604-2.209-.833c-2.604-.98-4.666-1.688-7.458-2.375-.083-.02-2.021-.583-10.625-2.27a7.67 7.67 0 0 1 1 1.978l.063.146c.437 1.271.875 2.584 1.458 3.813 2.146.083 8.917.625 14.875 4.062.792-.979 2.042-1.187 2.979-1.187h.146a3.016 3.016 0 0 1 .729-2.167c.792-.917 1.979-1.02 2.792-1.02.187 0 .375 0 .521.02.229-.396.812-.813 1.166-1.042.521-.333 1.584-.583 1.646-.583l.583-.125-.77.958c-1 1.417-.75 2.5-.75 2.521l.083.292-1.021-.125c-.229-.021-.458-.042-.729-.042-.958 0-1.75.188-2 .48-.563.645-.104 1.541-.104 1.562l.771 1.52-.375-.041c-.271-.02-.563-.063-.834-.083-.604-.063-1.229-.146-1.771-.146-.833 0-1.333.166-1.541.52l-.021.063c-.208.375-.479.896 1.417 2.709l.312.312-.437.063c-.021 0-2.75.354-4.084.833-.354.125-.562.312-.604.52-.021.126 0 .542.938 1.084l.979.583s-2.188 1.063-2.229 2.48l4.562 1.604Zm-20.646-29.146c-.021 0 0-.021 0-.021 1.084 0 6.146.896 9.063 1.208 1.5.188 9.146 1.146 11.396 2.5 2.229 1.313 3.312 3.646 4.02 5.521l.375 1.021s-.312 0-1.541-1.292c-.833-1.041-2.063-2.604-3.896-3.52-5.292-2.542-13.938-2.459-19.417-5.417Zm108.188 3.666h.5c4.187-.166 12.5-1.187 17.042-3.895 3.77-2.021 4.895-4.917 5.854-7.521a2.1 2.1 0 0 1-.167.062c-1 .417-2.146.896-3.979 1.521l-.896.292c-2.375.812-5.958 1.896-9.562 2.875-6.042 1.646-11.417 4.146-14.313 5.625 1.229.437 3.25 1.041 5.521 1.041Zm-58.146 7.292c1.458-1.27 1.417-2.27 1.271-2.896-.771-1.916-2.229-3.104-4.334-3.5l-9.687-1.333a1.16 1.16 0 0 0-.104.167c.083.041.187.104.292.145 1.083.542 3.333 1.667 4.145 4.042.25.709.688.75 3.229.896l.771.042c.604.041.875.062 1.334.104 1.083.125 1.895 1.02 2.062 1.187.146.167.604.75.709 1.417l.312-.27Zm24.312 12.98c.167-.042.334-.084.48-.126-1.105-1.229-2.459-2.083-2.459-2.083l.75-.375c.604-.313.979-.667 1.063-1.02.041-.168 0-.313-.104-.543-.271-.541-.813-.812-1.584-.812-.312 0-.604.042-.791.083l-1.75.271.687-1.291c1.188-2.334.542-2.771.25-2.98a2.266 2.266 0 0 0-1.333-.437c-.521 0-.959.166-1.334.312a2.518 2.518 0 0 1-.291.105l-1.792.645s.646-1.395.688-1.479c.416-.896.5-1.52-.25-2.125-.313-.229-.646-.354-1-.354s-.73.125-1.105.375L218 82.396l.083-.48c.292-1.75-1.437-4.187-1.437-4.187s.979.084 2.312.813c.084.041.146.083.209.104 2.395-2.23 7.916-6.271 18.416-9.063 2.813-.75 5.375-1.104 7.813-1.104 3.437 0 6.666.709 10.166 2.23 1.98-1.063 8.542-4.438 16.125-6.5 3.959-1.084 7.813-2.376 9.292-2.876l2.542-.916c2.417-.959 5.333-2.605 6.729-6.959l-30.375 10.167c-4.542 1.813-12.708 2.48-19.938 3.083-3.5.292-6.791.563-9.229.938-13.437 2.333-14.833 8.812-15.583 12.312a4.54 4.54 0 0 1-.146.625c-.604 3.23-1.917 5.771-3.875 7.563.458-.021 1-.021 1.25-.021 1.417.042 2.417.417 3.479.875.375.167.771.333 1.167.52.312.147.646.293.979.438 1.5.667 3.521 1.271 6.688 2.167l.25.063c.791.229 1.416.395 1.958.583.5.166 1.313.5 1.521.583.396-.083.792-.166 1.166-.27Zm-23.604-19.917c.75-.396.813-1.521.709-1.896-.313-1.084-1.125-1.896-2.396-2.417-.688-.25-1.584-.354-2.646-.354-3.292 0-7.5 1.25-8.438 2.458l9.334 1.063c.479.062 1.729.333 3.021 1.25.166-.021.291-.063.416-.104Zm-55.375 20.958c-.521-.52-1.333-.813-1.979-.875-1.333-.083-2.812.458-4.083 1.646 2.875.166 3.312 1.437 4.854.229l1.208-1Zm.792.792-.979 1.104c-1.167 1.416 0 1.854.104 4.542 1.146-1.146 1.687-2.542 1.646-3.771-.042-.625-.292-1.396-.771-1.875Zm-3.646 3.312-.812 1.23c-.938 1.583.291 1.833.771 4.479.958-1.313 1.312-2.75 1.062-3.98-.104-.604-.479-1.333-1.021-1.729Zm-2.625 4.271-.625 1.292c-.708 1.646.5 1.75 1.313 4.229.77-1.375.916-2.833.52-3.979-.187-.563-.625-1.209-1.208-1.542Zm1.479-5.02c-.625-.355-1.5-.418-2.146-.293-1.291.271-2.583 1.23-3.458 2.709 2.813-.625 3.584.458 4.729-1.125l.875-1.292Zm-2.833 4.395c-.708-.229-1.583-.125-2.208.146-1.25.542-2.355 1.75-2.938 3.417 2.688-1.188 3.688-.25 4.521-2.063l.625-1.5Zm-.958 4c-.479.354-.813.979-.938 1.5-.229 1.063.042 2.333.854 3.5.479-2.312 1.542-2.521.75-3.917l-.666-1.083Zm20.125-5.271-.334 1.542c-.354 1.937.979 1.729 2.459 4.208.479-1.666.27-3.25-.417-4.375-.354-.562-1-1.166-1.708-1.375Zm-1.063-.312c-.646-.188-1.458-.063-2.021.187-1.125.521-2.104 1.667-2.583 3.209 2.417-1.167 3.354-.334 4.083-2.021l.521-1.375Zm-1.25 4.75c-.625-.292-1.437-.292-2.021-.104-1.187.354-2.312 1.333-3.041 2.791 2.562-.791 3.375.167 4.333-1.396l.729-1.291Zm-2.562 4.312c-.563-.354-1.355-.458-1.938-.354-1.187.188-2.417 1-3.292 2.313 2.584-.438 3.23.604 4.355-.792l.875-1.167Zm3.708-3.771-.75 1.396c-.875 1.771.458 1.938 1.208 4.709.917-1.48 1.167-3.042.792-4.334-.188-.625-.646-1.375-1.25-1.771Zm-2.667 4.438-1.021 1.25c-1.229 1.583.063 2.042.271 4.958 1.209-1.291 1.771-2.833 1.667-4.187-.063-.667-.375-1.5-.917-2.021Zm-2.979 2.937-1.292-.104c-1.604-.062-1.291 1-3.125 2.479 1.396.188 2.667-.166 3.501-.854.437-.333.833-.937.916-1.521Zm50.771-12.25c.271 2.646.5 4.917-.604 6.959v.021a19.321 19.321 0 0 1-.688 1.541c-3.125-.541-6.562-.583-7.541-.583-.605 0-1.125.021-1.5.042-1.48.083-2.854.291-4 .583.146-.479.395-1.208.854-1.813l.25-.354-.438.021c-.208.021-.416.021-.625.021-1.729 0-2.75-.417-3.541-1.438-.542-.75-.688-1.687-.375-2.5.25-.708.812-1.416 1.333-2.104.458-.604 1.458-2.187 1.792-2.875.208-.416.416-.854.604-1.333.437.583 1.083.979 1.979 1.187a6.06 6.06 0 0 0 1.437.188c.876 0 1.792-.209 2.938-.688-1.521 1.355-5.792 2.209-5.792 2.209-.104.125-.041.291.104.354.042.021.084.021.105.042a6.602 6.602 0 0 0 1.687.208c1.792 0 3.438-.709 5.229-1.563 2.896-1.52 6.438-6.354 6.584-6.562.208-.292.5-.542.791-.709-1.271 2.25-1 4.709-.729 7.292.021.625.083 1.229.146 1.854Zm-2.563 2.834c-.708 1.333-1.458 2.5-4.062 2.604-3.208.146-4.021-2.146-4.021-2.146.188 1 .958 3.958 4.042 3.833 3.937-.166 4.041-4.291 4.041-4.291Zm4.355.75.187-.25c.229-.292.417-.646.438-.709 1.166-2.145 1.354-3.833 1.437-4.562l.021-.104s.167-1.334.688-1.334c3.354 0 7.395.667 10.562 1.292.833.167 1.708.333 2.542.5 1.083.27 2.27.396 3.52.396 1.792 0 3.73-.271 5.73-.813L242 96.292c.333-.084.667-.146 1-.23 1.188-.27 2.333-.562 3.667-.562.375-.02 1.041.083 1.395.083 2.875 0 6.23-1.437 7.209-2.187 1.021-.792 1.208-1.48 1.354-2.292.063-.375.042-.604-.063-.729a.343.343 0 0 0-.25-.104c-.25 0-.666.166-1.208.375-.75.291-4.291 1.27-5.041 1.312.145-.25.666-.75 1.166-1.125.667-.5 1.292-.979 1.375-1.875 0-.166-.125-.229-.229-.229-.063 0-.167.063-.229.084-.271.145-.521.333-.771.52-.604.438-1.229.896-2.063.896h-.083c-.896.084-1.417.604-1.958 1.146-.583.583-1.188 1.188-2.313 1.333l-11.77 1.542c-.896.104-1.771.292-2.605.48-.812.187-1.666.374-2.5.478-1.645-.645-3.521-1.166-5.333-1.666-2.5-.709-4.854-1.355-6.542-2.271-.229-.125-2.396-1.271-4.541-1.271-.5 0-.98.063-1.396.188h-.042c-.25.166-2.521 1.791-2.229 6.25.125 1.812.25 3.104.375 4.145.063.605.125 1.105.167 1.605 0 .104.062 1.041.041 1.77l.084.334Zm-17.125-12.855h-.313c-2.625 0-5.042 1.396-7.208 4.126-2.813 1.187-4.979 2.624-7.542 4.583-.375-.042-3.437-1.188-6.396-2.292-1.791-.666-3.646-1.375-5.062-1.875-2-1.396-4.438-2.25-5.938-2.458a6.333 6.333 0 0 0-.958-.063c-1.583 0-3.542.334-4.146.625-.083.021-.229.105-.25.271 0 .084.021.167.083.23.084.083.209.124.438.124s.542-.041.917-.104c.5-.062 1.125-.166 1.75-.166 1.791 0 2.812.708 3.25 2.229-.646.125-.875.312-1.105.52-.25.23-.479.438-1.312.563l-.208.042h-.021c-.146.041-.25.125-.25.229-.021.146.104.27.146.291.187.146.479.23.833.23s.75-.084 1.062-.23c.334-.166.73-.208 1.146-.25a5.26 5.26 0 0 0 1.98-.624c2.166.916 4.249 2.27 6.229 4.062 1.333 1.208 2.854 2.604 5.791 4.146.188.083.459.167.771.167.5 0 1.063-.209 1.708-.646 1.813-1.063 11.188-6.48 12.125-6.959h.021l.021-.02c1.125-1.084 1.771-3.355 1.854-3.626.042-.145.084-.333.146-.52.229-.813.542-1.917.583-2.5l.021-.105h-.166ZM211.333 77c-.708.688-1.375.896-1.875.896a3.888 3.888 0 0 1-1.521-.334c-.02.23.042.521.125.73.209.541.75.854 1.25.854 1.126 0 2.021-1.021 2.021-2.146Zm-3.604-1.333c.917.583 1.708.729 2.375.437.875-.396 1.25-1.416 1.271-1.541.125-.813-.229-.938-.708-1.084-.417-.146-.917-.312-.959-1.041 0-.271-.083-.438-.229-.521-.25-.167-.708-.042-.937.062-.146 1.604-.98 2.354-1.584 2.709l.771.979Zm-9.187-8.209s-1.104-.5-2.313-.604c-1.479-.125-2.458.188-3.021.459-.916.437-1.354 1.583-.875 2.291 1.417-1.146 3.688-1.812 6.209-2.146Zm9.062 21.667c-.5-.167-.812-.25-1.271-.438-3.312-1.312-2.041-4.541-2.5-7.104-.062-.52-.208-1.041-.875-.833-.312.083-1.5 1.375-3.375.708.729-.229 1.396-.458 1.855-.812.624-.48.833-1.104.52-1.542-.187-.312-.625-.375-.979-.27-.312.103-.667.603-.562 1.103 0 0-.75.084-1.542-.666-.333-.313-.896-.417-1.542-.396-.916.063-1.5-.167-1.833-1.188-.396-1.708-2.208-3.083-3.667-3.854-.375.959-.729 1.605-.708 2.75.104.771 1.479.625 1.979.709 1.417.354-.917 1.354-.896 2.041-.146-.208-.25-.625-.041-.812.354-.5-.396-.459-.584-.709-.041 1.355-1.104 3.25-1.021 3.73.021.125 1.209.208 1.209.208.312.292.104.854.146 1.25 0 .02.041.042.062.042.083.041.5.083.625.083.104.02.208.104.208.208 0 .125-.083.209-.208.209 0 0-.167 0-.354-.042.083.354.062.73.562.938.25.354-.104 1.333.542 1.5 1.792.416 4.125-1.605 6.063-2.959-.292 1.146-1.896 2.375-2.292 3.521 0 0-.063 1.833-.458 3.02-.48 1.438-2.021 1.168-3.167 1.75 0 .084-.021.188-.042.313-.021.167-.062.355-.062.563v.104c0 .042-.021.104-.021.188-.083.75-.313 2.77.979 3.458.417.208.896.312 1.458.312 1.292 0 2.917-.562 4.667-1.625 1.875-1.125 2.854-2 3.917-2.937a20.464 20.464 0 0 1 3.208-2.521Zm27.417 11.271c2.062 3.312 5.229 3.229 7.416 2.604-2.5-.833-3.395-1.271-5.27-3.208.021 0-1.167.375-2.146.604Zm-44.709 8.708c-.708-.208-1.083-.375-1.687-.791-1.917-1.292-3.063-4.063-1.688-6.459.021-.062.105-.208.355-.604-1.042.646-10.125 5.979-10.125 5.979s.041.667.937 1c1.854.584 4.083.063 5.333-.187-.875.937-1.958 2.854-1.375 5 1.834-.459 2.709-.771 4.084-2.854-.042 1.937-.167 5.145 1.542 6.729.291-.854 1.312-4 2.624-7.813Zm48.813-9.833c.938.937 2.354 2.208 5.604 2.771 1.729.271 4.604-.104 5.771-.417-3.229-.771-5.021-2.208-6.813-3.708-.562.104-2.749.666-4.562 1.354Zm7.104-1.98c1.313 1.063 2.959 2.397 5.709 3.105 3.27.792 7.645-1.146 7.895-1.396-2.875-.146-5.041-1.146-7.27-2.563-2.709 1.396-5.313.438-6.334.855Zm8.5-1.916c1.458.792 2.625 1.25 3.979 1.604 3.584 1.084 5.813-1.52 6.834-3.02.041-.063.041-.188-.063-.188-4.646-.021-5.021-.438-6.833-1.209-.271.605-1.209 2.084-3.917 2.813Z"/><path fill="#000F46" d="M198.479 212.708c36.313 0 42.563 29.188 79.813 29.188 22.562 0 23-9.584 23-9.584l-3.813-19.583c4.938-5.896 25.146-5.208 25.146-5.208l-17.521-22.709c-16.292 1.042-29.667 5.251-29.667 12.313v21.042c-21.958 0-36.625-29.063-76.937-29.063-40.313 0-55 29.063-76.938 29.063v-21.042c0-7.042-13.395-11.25-29.666-12.313l-17.521 22.709s20.23-.709 25.146 5.208l-3.813 19.583s.438 9.584 23 9.584c37.209 0 43.48-29.188 79.771-29.188Z"/><path fill="#fff" d="M285.375 205.958c8.667 2.396 9.479 3.938 9.688 4.813.166.896-.042 1.729-.667 2.521-2.208 2.812-8.875 4.708-17.021 4.854v-16.208c1.625 1.666 4.271 3 8 4.02Zm-7.979-8.916c0 3.979 4.146 5.812 8.521 7.021 8.312 2.291 10.479 4 11.125 6.375 3.896-3 10.75-4.271 21.52-4.688l-14.604-19c-5.416.542-11.396 1.375-15.604 2.625-6.542 1.938-10.958 4.688-10.958 7.667Zm18.437 17.666c-3.208 3.834-11.583 5.313-18.437 5.438h-1.979c-9.917 0-18.125-5.375-27.625-11.583-12.146-7.938-25.875-16.917-47.334-17.438H196.5c-21.479.521-35.187 9.5-47.333 17.438-9.5 6.208-17.709 11.583-27.625 11.583h-1.979c-6.855-.125-15.23-1.604-18.438-5.438l-3.438 17.667c.292 1.167 2.688 7.563 20.98 7.563 18.125 0 28.437-7 39.354-14.396 10.333-7.021 21.021-14.25 38.479-14.771h3.958c17.459.521 28.146 7.75 38.48 14.771 10.916 7.396 21.229 14.396 39.354 14.396 18.291 0 20.708-6.417 20.979-7.563l-3.438-17.667Zm-184.25-8.75c-8.666 2.396-9.479 3.938-9.687 4.813-.167.896.042 1.729.667 2.521 2.208 2.812 8.875 4.708 17.02 4.854v-16.208c-1.625 1.666-4.25 3-8 4.02Zm-2.958-16.604c-4.208-1.25-10.188-2.083-15.604-2.625l-14.604 19c10.77.417 17.604 1.709 21.52 4.688.626-2.354 2.792-4.063 11.126-6.375 4.354-1.209 8.52-3.042 8.52-7.021-.02-2.958-4.437-5.708-10.958-7.667Z"/><path fill="#000F46" d="M293.542 231.125s.5 2.229.416 2.354c0 0-.271.104-.375.042-.083-.188-.145-.229-.604-.146 0 0-6.896 1.542-7.021 1.458 0 0-.083-.27 0-.395.479-.167.479-.271.438-.5l-1.896-8.521c-.042-.229-.083-.313-.75-.334 0 0-.063-.27.021-.395l6.687-1.48c.438-.104.48-.187.563-.479 0 0 .25-.104.375-.021 0 0 .521 2.292.437 2.417 0 0-.271.063-.395 0-.084-.146-.146-.208-.584-.104 0 0-4.021.896-4.042.792 0 .02.438 2.041.438 2.354 0 .021 0 .041-.021.041.021 0 2.438-.541 2.438-.541.458-.104.479-.146.562-.438 0 0 .292-.104.396-.062 0 0 .563 2.291.479 2.416 0 0-.292.105-.396.084-.062-.146-.187-.25-.646-.167 0 0-2.145.479-2.354.521.063.292.5 2.229.48 2.521 0 .02-.021.041-.021.041.02 0 4.375-.958 4.375-.958.458-.104.479-.146.562-.458 0 0 .271-.125.396-.063l.042.021Zm-42.355-5.75s.25.125.292.271c0 0-1.375 2.104-1.521 2.125 0 0-.229-.125-.27-.25.083-.188.083-.313-.313-.563 0 0-5.688-3.729-5.708-3.875 0 0 .145-.25.271-.291.374.187.479.146.604-.063l4.77-7.271c.146-.208.167-.312-.208-.75 0 0 .125-.25.271-.27 0 0 2.708 1.77 2.729 1.916 0 0-.104.25-.25.292-.479-.25-.583-.208-.729 0 0 0-4.208 6.417-4.333 6.417l3.583 2.354c.375.229.458.229.812-.042ZM182 207.5s-.146.25-.25.271c-.125-.063-.208-.104-.292-.083-.562.395-.75 1.687-3.021 2.354-2.708.833-5.229-.667-6.125-3.625-1.104-3.604.813-5.959 3.209-6.709 2.021-.562 2.854.292 3.104.021.187-.208.292-.375.417-.354l.229.021-.063.292s-.562 2.625-.666 2.708l-.23-.042s-.041-.312-.291-.583c-.375-.396-1.229-.521-1.917-.313-.854.25-2.75.98-1.729 4.292.542 1.583 1.625 2.979 3.687 2.438.605-.188 1.167-.625 1.417-1.105 0 0 .25-.52-.042-1.145 0 0 .125-.209.25-.209L182 207.5Zm-60.562 18.625c-.813-.854-1.959-1.333-3.251-1.375-1.312-.021-2.458.396-3.312 1.208-1 .938-1.563 2.375-1.604 4.021-.083 3.209 1.791 5.396 4.666 5.479 1.313.021 2.459-.375 3.313-1.208 1-.937 1.562-2.375 1.604-4.042.021-1.625-.479-3.104-1.416-4.083Zm-.771 4.042c-.021 1.271-.355 2.25-.959 2.833-.437.438-1.041.646-1.75.625-1.687-.042-2.583-1.312-2.541-3.562.02-1.292.375-2.251.979-2.834.437-.416 1.021-.625 1.729-.604.708.021 1.292.25 1.708.688.584.604.875 1.583.834 2.854ZM278.5 225.25l-4.292-.021c-.104.104-.125.375-.125.375.417.146.479.25.459.521l-.021 8.708c0 .271-.042.334-.396.396l-.083.375c.104.104 4.02.125 4.02.125 1.709 0 3.021-.437 3.896-1.312.896-.875 1.334-2.188 1.334-3.917.02-3.25-1.771-5.229-4.792-5.25Zm2.646 5.271c-.021 2.562-.834 3.375-3.417 3.375h-1.125c.104-.021.125-6.208.146-6.771.167 0 1.021.021 1.021.021 2.562 0 3.396.833 3.396 3.354v.021h-.021Zm-71.104-33.771s.854.5.979.542c.125.041.271-.042.396-.146l.312.25s-1.771 2.271-1.917 2.292c0 0-.25-.146-.312-.25 0 0 .042-.271.062-.334.105-.5-.854-1.187-2.291-1.354-.542-.083-.959 0-1.25.229-.292.209-.354.459-.375.709-.084.791.937 1.166 2.125 1.583 1.729.625 3.875 1.375 3.583 3.854-.104.792-.521 1.5-1.166 2.021-.667.521-1.876 1.104-3.896.812 0 0-1.98-.354-3.438-1.333 0 0-.042-.042-.437.229l-.271-.208.062-.083s1.5-2.313 1.646-2.355l.271.146s-.021.188-.021.25c-.083.75 1.688 1.354 2.521 1.459.979.125 1.667.02 2.063-.292.187-.167.374-.458.437-.854.125-.854-1-1.25-2.25-1.709-1.667-.604-3.729-1.333-3.458-3.52.187-1.438 1.416-3 4.25-2.646a6.9 6.9 0 0 1 2.375.708Zm17.125 5.167c-.146.062-.25.312-.25.312.333.292.312.354.291.396l-.562.646-6.042 6.125s-.167.167-.354.187c-.104.021-.25.042-.375.042l-.146.333 2.688 1.25.146-.333a.352.352 0 0 1-.126-.125c-.041-.062-.041-.125-.02-.208l.146-.229s1.187-1.271 1.229-1.355c.083.063 3.125 1.459 3.125 1.48-.021.145-.23 1.791-.23 1.791s-.041.188-.062.25a.258.258 0 0 1-.167.125c-.083 0-.146 0-.187-.021l-.146.334 2.688 1.25.145-.334a1.377 1.377 0 0 1-.208-.312c-.104-.146-.063-.396-.063-.396l.751-8.562.104-.792c.021-.063.083-.188.375-.083.125-.063.25-.313.25-.313 0-.146-3-1.458-3-1.458Zm-.021 6.896s-1.938-.896-2.25-1.042a500.55 500.55 0 0 1 2.75-3.021s-.479 3.958-.5 4.063Zm31.708 11.416c-.146.042-.25.292-.25.292.313.312.292.375.271.396l-.583.625s-6.25 5.896-6.25 5.916c0 0-.167.167-.355.188a2.24 2.24 0 0 1-.375.021l-.166.312 2.646 1.333.166-.312a.359.359 0 0 1-.125-.125c-.041-.062-.041-.125 0-.208.042-.063.167-.209.167-.209s1.229-1.229 1.292-1.312c.083.062 3.062 1.562 3.083 1.583-.021.146-.292 1.792-.292 1.792s-.041.187-.083.25c-.042.062-.083.104-.167.104-.083 0-.146 0-.187-.021l-.167.313 2.646 1.333.167-.312c-.084-.125-.146-.23-.209-.334-.083-.146-.062-.396-.062-.396l1.041-8.541.146-.792c.021-.062.084-.187.375-.062.125-.042.25-.313.25-.313-.041-.104-2.979-1.521-2.979-1.521Zm-.271 6.896s-1.896-.958-2.208-1.125c.167-.187 2.542-2.604 2.854-2.937-.021.02-.625 3.958-.646 4.062Zm-57.145-23.167s.083 2.292-.021 2.396c0 0-.292.063-.396-.021-.042-.187-.104-.25-.563-.25 0 0-7.062.23-7.166.125 0 0-.021-.291.062-.395.5-.084.521-.167.521-.417l-.271-8.729c0-.229-.021-.334-.687-.479 0 0 0-.271.104-.375l6.854-.209c.458-.021.521-.104.646-.375 0 0 .271-.041.375.063 0 0 .083 2.354-.021 2.458 0 0-.271.021-.375-.062-.042-.167-.104-.23-.562-.209 0 0-4.105.125-4.126.021 0 .021.063 2.083 0 2.396 0 .021-.02.042-.02.042l2.5-.084c.458-.021.5-.041.625-.333 0 0 .312-.063.395 0 0 0 .125 2.354.021 2.458 0 0-.312.042-.395 0-.042-.166-.126-.291-.605-.271 0 0-2.208.063-2.396.063.021.292.084 2.271.021 2.583 0 .021-.021.021-.021.021l4.48-.146c.458-.021.5-.062.625-.333 0 0 .291-.083.396.021v.041Zm-72.126 19.917s.938.208 1.084.208c.125 0 .25-.125.312-.27l.375.125s-.937 2.645-1.062 2.729c0 0-.292-.063-.375-.146 0 0-.042-.271-.042-.333-.062-.48-1.166-.834-2.541-.563-.521.104-.875.313-1.084.583-.208.271-.187.542-.125.771.167.771 1.209.792 2.459.813 1.791.041 4.02.083 4.499 2.458a3.04 3.04 0 0 1-.458 2.229c-.458.688-1.396 1.604-3.354 1.938 0 0-1.938.271-3.583-.167 0 0-.063-.021-.334.333l-.312-.104.021-.104s.666-2.604.791-2.687l.292.062s.042.188.062.25c.146.729 1.98.729 2.792.563.938-.188 1.542-.5 1.833-.917.126-.208.209-.542.146-.938-.145-.833-1.291-.854-2.625-.895-1.729-.042-3.854-.084-4.291-2.209-.271-1.396.375-3.208 3.125-3.75.854-.083 1.666-.104 2.395.021Zm22.5-2.063s1.25 1.917 1.23 2.063c0 0-.209.208-.334.188-.146-.146-.229-.167-.604.083 0 0-5.917 3.854-6.062 3.833 0 0-.167-.229-.146-.375.396-.333.354-.416.229-.625l-4.771-7.312c-.125-.209-.208-.271-.833-.063 0 0-.146-.229-.125-.375l5.729-3.729c.375-.25.396-.354.354-.646 0 0 .208-.187.354-.146 0 0 1.292 1.959 1.25 2.104 0 0-.229.167-.354.146-.125-.125-.208-.145-.604.105 0 0-3.437 2.25-3.5 2.166 0 .021 1.125 1.75 1.229 2.042v.042c.021 0 2.104-1.355 2.104-1.355.396-.25.396-.291.354-.604 0 0 .23-.208.334-.208 0 0 1.333 1.937 1.292 2.083 0 0-.251.209-.334.209-.125-.125-.271-.167-.646.083 0 0-1.854 1.187-2.021 1.312.167.25 1.25 1.917 1.355 2.188v.042c.02 0 3.75-2.438 3.75-2.438.395-.25.395-.312.375-.625 0 0 .208-.208.354-.188h.041Zm8.563-15.02c-.042.146.083.375.083.375.438-.084.479-.021.479 0l.188.833 1.208 8.521s.042.25-.041.396c-.063.104-.125.208-.209.333l.167.313 2.625-1.396-.167-.313c-.041.021-.104.021-.166.021-.084 0-.146-.042-.167-.104-.042-.063-.083-.25-.083-.25s-.292-1.708-.334-1.813c.084-.02 3.063-1.583 3.063-1.604.104.125 1.291 1.271 1.291 1.271s.126.146.167.208a.19.19 0 0 1 0 .209.351.351 0 0 1-.125.125l.167.312 2.625-1.396-.167-.312c-.146 0-.271 0-.375-.021-.166-.021-.354-.187-.354-.187l-6.354-5.792-.563-.563c-.041-.062-.104-.187.167-.354.042-.146-.104-.396-.104-.396-.167.021-3.021 1.584-3.021 1.584Zm5.479 4.229s-1.875.979-2.187 1.167c-.042-.25-.667-3.584-.75-4.021 0 0 2.854 2.771 2.937 2.854Zm54.5-2.271s-.25.125-.354.083c-.063-.125-.104-.208-.208-.229-.688.021-1.563.979-3.813.292-2.708-.792-4-3.438-3.125-6.417 1.063-3.625 3.979-4.521 6.375-3.812 2 .646 2.229 1.812 2.583 1.729.271-.063.459-.146.542-.063l.188.146-.209.209s-1.916 1.895-2.041 1.895l-.167-.145s.146-.271.083-.646c-.104-.542-.75-1.104-1.437-1.313-.854-.25-2.833-.708-3.813 2.646-.416 1.625-.271 3.375 1.729 4.083.605.167 1.313.125 1.792-.145 0 0 .5-.292.604-.98 0 0 .229-.104.313-.041l.958 2.708ZM109.75 223.458l-4.667-.895c-.125.083-.104.354-.104.354.438.25.458.354.396.604l-1.667 8.562c-.041.25-.125.355-.5.334-.125.083-.146.416-.146.416.021.021 3.126.605 3.126.605l.062-.355c-.354-.187-.417-.291-.417-.458 0-.042 0-.083.021-.125 0 0 .667-3.375.667-3.417 0 .105 2.041.5 2.041.5 2.625.521 3.875-.895 4.167-2.375.313-1.479-.333-3.25-2.979-3.75Zm-1.167 4.23s-1.687-.334-1.708-.334c.104-.312.417-2.187.479-2.479.188.042 1.708.333 1.708.333 1.271.271 1.73.688 1.563 1.605-.188.916-.729 1.125-2.042.875Zm52.75-10.209c-.375.063-.521 0-1.125-.354l-2.979-1.687c1.188-1.292 1.021-2.73.333-3.771-.833-1.271-2.5-2.084-4.77-.625l-3.98 2.583c-.02.146.188.333.188.333.479-.125.562-.062.708.146l4.75 7.313c.146.208.167.354-.146.583-.02.146.188.396.188.396.042 0 2.667-1.729 2.667-1.729l-.23-.375c-.375.104-.5.083-.625-.042-.02-.042-.062-.062-.083-.104 0 0-1.791-2.75-1.812-2.792 0 0 .562-.354 1.041-.666.5.333 3.459 2.02 3.5 2.041.084.063-.125.271-.187.313-.021.062.229.396.229.396.062.02 2.562-1.646 2.562-1.646-.041-.063-.229-.313-.229-.313Zm-9.271-3.729c.167-.104 1.459-.958 1.459-.958 1.104-.688 1.708-.709 2.229.062.5.792.271 1.334-.854 2.042 0 0-1.438.937-1.459.958-.145-.271-1.229-1.854-1.375-2.104Zm39.792-7.583c-.375-.084-.479-.209-.917-.771l-2.104-2.708c1.584-.73 1.979-2.125 1.771-3.334-.271-1.479-1.5-2.896-4.146-2.416l-4.666.854c-.084.125.041.375.041.375.5.083.542.166.605.416l1.562 8.584c.042.25.021.375-.354.479-.084.125 0 .437 0 .437.041.021 3.125-.562 3.125-.562l-.084-.438c-.395-.062-.499-.125-.562-.27-.021-.042-.021-.084-.042-.125 0 0-.583-3.23-.604-3.271 0 0 .646-.104 1.229-.209.334.5 2.417 3.209 2.438 3.23.062.083-.209.187-.292.208-.042.042.063.437.063.437.041.042 3-.52 3-.52.021-.105-.063-.396-.063-.396Zm-7.125-7.021c.188-.042 1.709-.313 1.709-.313 1.27-.208 1.854 0 2.02.917.167.917-.271 1.333-1.583 1.563 0 0-1.688.312-1.708.312 0-.312-.375-2.187-.438-2.479Zm-44.125 30.708c.104.25.188.292.625.25l.167.334-.104.041s-2.417 1.104-2.646 1.188c0 0-.167-.292-.146-.375.062-.042.188-.188.188-.292a.495.495 0 0 0-.084-.25s-3.083-6.667-3.208-7.042l-2.125 1c-.333.167-.417.25-.417.542 0 .042 0 .104.021.167 0 0-.229.187-.375.125 0 0-1.063-2.271-1.021-2.417 0 0 .209-.146.333-.125.126.167.209.208.626 0l6.041-2.75c.396-.188.479-.208.479-.542 0 0 .167-.125.313-.166 0 0 1.146 2.333 1.104 2.458 0 0-.229.167-.354.125-.167-.25-.271-.417-.667-.229 0 0-1.896.896-1.979.896.063.062 3.229 7.062 3.229 7.062Zm125.125 4.542c-2.604-.729-3.562-2.396-2.896-4.917l1.521-5.541c.063-.25-.062-.459-.396-.605 0-.145.084-.395.084-.395s2.125.562 3.062.854c0 0-.062.291-.166.375-.334-.042-.417.083-.48.333l-1.521 5.583c-.166.625-.125 1.188.125 1.625.23.417.626.709 1.188.875.562.146 1.062.084 1.479-.125.438-.25.771-.708.958-1.333l1.605-5.562c.062-.25.062-.396-.23-.542-.062-.125.042-.417.042-.417.938.25 3.063.854 3.063.854s-.042.271-.125.375c-.355-.041-.584.084-.646.313l-1.604 5.521c-.771 2.541-2.48 3.458-5.063 2.729Zm-31.771-17.042c-.041-.041-.104-.062-.146-.104 0 0 1.271-6.792 1.605-7.937.021-.063.02-.125.041-.188-.437.708-3.729 5.896-3.729 5.896a.24.24 0 0 0-.062.167c0 .083.062.208.25.416l-.188.313s-2.271-1.438-2.417-1.542c0 0 .146-.271.23-.292.187.105.395 0 .5-.145l4.791-7.563c.084-.146.104-.25-.125-.542 0 0 .084-.27.25-.312 0 0 3.063 1.917 3.063 1.958 0 0-.146.229-.25.271-.209-.042-.313.104-.354.146-.105.167-1.188 5.896-1.209 5.937.042-.02 4.75-3.458 4.875-3.604.042-.041.104-.208-.021-.375 0-.125.146-.354.146-.354.042-.021 3.063 1.938 3.063 1.938.041.145-.167.354-.167.354-.354-.084-.458-.021-.542.125l-4.791 7.562c-.104.167-.083.396.083.521.021.083-.167.333-.167.333-.166-.083-2.437-1.541-2.437-1.541l.208-.313c.271.083.417.084.48.042.062-.021.083-.063.124-.125 0 0 3.292-5.188 3.75-5.896-.041.042-.104.083-.166.125-.875.792-6.5 4.833-6.5 4.833-.084-.041-.146-.083-.188-.104Z"/><path fill="#fff" d="M49.292 300.75h303.021v1.729H49.292v-1.729ZM87.167 262h-.834l-2.875-.083c-.166 0-.687 0-.687.458 0 .229.187.396.437.396l.938.083c.77.167 1 .479 1.062 1.438l.063 6.166v.605L73.167 271l.041-.562.063-6.167c.062-.979.27-1.333.896-1.438l.666-.083c.25 0 .459-.167.459-.396 0-.291-.23-.458-.688-.458l-2.333.062h-.854l-2.855-.083c-.458 0-.687.146-.687.458 0 .23.188.396.438.396l.916.084c.792.166 1.021.479 1.063 1.437l.062 6.188v5.041c0 2.688 0 5-.146 6.188-.125.854-.25 1.312-.666 1.396l-.813.104c-.312 0-.458.187-.458.396 0 .437.5.437.687.437l2.334-.062h.812l3.188.083c.604 0 .666-.313.666-.438 0-.187-.145-.395-.437-.395l-1.271-.105c-.667-.104-.833-.541-.938-1.395-.145-1.188-.145-3.5-.145-6.188v-3l12.125.042-.063 2.958c0 2.688 0 5-.146 6.188-.104.833-.25 1.312-.666 1.395l-.813.105c-.312 0-.458.208-.458.395 0 .438.5.438.687.438l2.355-.063h.791l3.209.084c.624 0 .687-.313.687-.438 0-.187-.146-.396-.458-.396l-1.271-.104c-.688-.104-.854-.541-.938-1.396-.145-1.187-.145-3.5-.145-6.187v-5.042l.062-6.166c.063-.98.27-1.334.875-1.438l.667-.083c.27 0 .458-.167.458-.396 0-.458-.5-.458-.688-.458l-2.27.062Zm18.375-.146a7.796 7.796 0 0 1-1.188.146l-6.562.021-.396-.021-2.854-.062c-.167 0-.688 0-.688.437 0 .229.188.375.438.396l.916.083c.75.063 1 .479 1.063 1.438l.062 6.166v5.042c0 2.688 0 5-.145 6.188-.126.854-.25 1.312-.667 1.395-.125.021-.813.105-.813.105-.333.02-.437.187-.437.395 0 .438.5.438.666.438l2.334-.063 1.562.021 6 .125c1.125 0 1.521 0 1.75-.896.146-.604.375-2.583.375-2.833 0-.208 0-.646-.395-.646-.355 0-.417.396-.459.604-.187 1.105-.5 1.625-1.166 1.896-.709.292-1.938.292-2.667.292-2.771 0-3.042-.354-3.104-2.146v-7.417c0 .021 4.062.167 4.062.167.979.104 1.25.5 1.292.833.062.334.104.896.104.896.042.313.167.479.417.479.416 0 .416-.52.416-.75l.105-1.812.229-1.625c0-.417-.292-.458-.354-.438-.146 0-.375.292-.584.417-.458.271-.458.292-1.229.354l-4.542.063.042-7.979c.333-.063 3.396-.042 3.854.02 1.563.167 1.729.521 1.854.855l.146.937c0 .521.313.583.459.583.145 0 .333-.083.416-.5l.104-1.458.021-.458.167-.979.062-.375c0-.438-.25-.48-.333-.48-.083 0-.083.105-.333.146Zm38.833 1.334-.021 16.437c0 2.563-.208 3.354-.708 3.438-.5.083-1.104.166-1.104.166-.334.021-.459.188-.459.396 0 .438.48.438.688.438l2.292-.063h.895l2.625.063c.209 0 .73 0 .73-.438 0-.187-.084-.354-.459-.396 0 0-.833-.083-1.375-.166-.541-.084-.896-.709-.958-3.125 0 0-.313-12.063-.354-13.146.708.791 7.083 7.791 7.083 7.791 3.104 3.355 7.188 7.5 7.5 7.792 1.646 1.625 1.917 1.896 2.25 1.896.438 0 .479-.333.479-2.25l.042-16.792c0-1.791.146-2.187.896-2.354l.646-.083c.375-.042.541-.229.541-.417 0-.417-.5-.417-.729-.417l-1.917.063h-1.125l-2.375-.063c-.27 0-.791 0-.791.417 0 .271.104.396.458.417l1.354.146c.688.104.917.562.938 2.52 0 0 .25 11.313.312 14-.562-.604-2.146-2.312-2.146-2.312l-4.354-4.75-9.375-10.104c-.396-.459-.666-.709-.916-.709-.521-.041-.563.605-.563 1.605ZM172.542 262h-.896l-2.458-.062c-.167 0-.667 0-.667.458 0 .229.146.375.437.396l.834.104c.437.062.75.396.812 1.417l.063 6.166v5.042c0 2.687 0 5-.146 6.187-.125.875-.25 1.313-.667 1.396l-.812.104c-.375.042-.459.209-.459.396 0 .438.521.438.688.438l2.354-.063h.792l3.208.084c.625 0 .667-.313.667-.438 0-.187-.125-.375-.438-.396l-1.25-.104c-.687-.104-.854-.542-.937-1.396-.146-1.187-.146-3.5-.146-6.187V270.5l.062-6.167c.063-.979.271-1.333.875-1.437l.688-.083c.292-.021.458-.167.458-.396 0-.459-.521-.459-.687-.459l-2.375.042Zm26.416 0h-1.083l-2.146-.062c-.291 0-.854 0-.854.437 0 .146.063.354.542.396l1.021.104c.229.042.27.271.229.458l-.25 1.021c-.584 1.896-4.125 11.188-5.917 15.396-.354-.958-5.312-14.167-5.312-14.167-.417-1.062-.771-1.979-.771-2.291 0-.146.041-.334.25-.375l1-.125c.5-.042.5-.292.5-.417 0-.417-.625-.417-1-.417l-2.084.063h-1.291l-2.646-.063c-.396 0-.958 0-.958.417 0 .25.125.396.458.417l1.021.104c.854.146 1.291.5 1.916 2.083l7.084 17.75c.541 1.334.687 1.75 1.166 1.75.355 0 .48-.291.896-1.229l.5-1.083 3.542-8.313 1.687-4.104 1.688-4.062c.75-1.896 1.167-2.375 1.5-2.605.479-.312 1.062-.312 1.25-.312.479 0 .562-.271.562-.417 0-.271-.229-.416-.708-.416l-1.792.062Zm43.709 4.917c0 1.958.646 3.791 3.812 6.396l1.292 1.062c2.542 2.083 3.229 3.146 3.229 5 0 1.771-1.333 3.583-3.875 3.583-1.042 0-3.521-.27-4.042-2.75l-.083-1.02c0-.167 0-.542-.417-.542-.375 0-.416.417-.458.646l-.021.291-.125 2.792c0 .771.021 1.021.563 1.292 1.104.541 2.396.791 3.937.791 1.75 0 3.292-.437 4.459-1.25 1.875-1.333 2.541-3.416 2.541-4.937 0-2.25-.708-4.104-4.271-6.917l-.791-.625c-2.75-2.25-3.417-3.166-3.417-4.646 0-1.854 1.333-3.104 3.313-3.104 2.375 0 3.166.979 3.395 1.417.146.292.334 1.021.355 1.354.02.208.062.583.437.583.417 0 .417-.583.417-.875l.104-2.812v-.208c0-.375-.354-.417-.5-.417-.146 0-.958-.146-.958-.146-.813-.208-1.688-.292-2.709-.292-3.708-.041-6.187 2.125-6.187 5.334Zm61.5-4.917h-1.209l-1.437-.062c-.583 0-.688.25-.688.395 0 .292.292.396.563.48.146.062.333.083.333.604 0 .416-.146.875-.458 1.354-.479.812-3.709 6.354-4.583 8.083-.959-1.583-4.646-7.937-5.063-8.708-.208-.396-.333-.708-.333-1.021 0-.125.083-.229.25-.333l.146-.063c.187-.083.395-.146.395-.396 0-.27-.208-.416-.583-.416l-2.021.062h-1.062l-2.167-.062c-.562 0-.604.354-.604.416 0 .25.208.417.5.417.208 0 .708.146 1.104.417.563.375 1.271 1.146 1.875 2.062 1.042 1.521 4.854 7.813 5.042 8.229.375.834.645 1.438.645 2.917v2.458l-.083 2.855c-.041.562-.187 1.27-.708 1.375l-.813.104c-.375.041-.458.187-.458.396 0 .437.5.437.667.437l2.354-.062h.791l3.188.062c.604 0 .667-.312.667-.437 0-.188-.146-.396-.438-.396l-1.271-.104c-.625-.084-.916-.5-.979-1.375l-.083-2.855v-2.458c0-.917 0-1.792.416-2.792.48-1.166 4.48-7.895 5.438-9.062.646-.792.938-1.104 1.479-1.417.396-.25.896-.375 1.208-.375.438 0 .584-.25.584-.458 0-.188-.146-.396-.584-.396l-2.02.125Zm10.562 10.958c0-4.416 3.125-11.437 11.521-11.437 6.875 0 11.479 4.417 11.479 10.979 0 6.917-4.896 11.958-11.646 11.958-7.812 0-11.354-5.958-11.354-11.5Zm3.167-.791c0 6.333 3.687 10.771 8.958 10.771 1.292 0 7.709-.459 7.709-9.625 0-7.125-4.417-10.375-8.5-10.375-5.042.02-8.167 3.541-8.167 9.229Zm33.75-10.188c-.104 0-.333.021-.333.021l-7.042.021-.375-.021-2.854-.062c-.167 0-.688 0-.688.458 0 .229.146.375.459.396l.916.083c.771.104 1.021.479 1.063 1.438l.062 6.187v5.042c0 2.687 0 5-.146 6.187-.125.854-.25 1.313-.666 1.396l-.813.104c-.375.042-.437.188-.437.396 0 .438.521.438.666.438l2.334-.063h.812l3.188.083c.604 0 .687-.312.687-.437 0-.188-.104-.375-.458-.396l-1.25-.104c-.688-.083-.854-.542-.938-1.375-.145-1.188-.145-3.521-.145-6.188v-2.437c1.062-.042 3.645-.021 4.291.042.771.104 1.208.562 1.313.895.104.334.146.73.146.98 0 .27.166.437.416.437.417 0 .417-.5.417-.771l.125-1.896.229-1.625c.042-.395-.271-.437-.354-.437-.208 0-.333.167-.438.312-.25.334-.5.438-1.208.48l-1.271.02-3.666.021.02-7.958c.042-.104 4.438-.021 4.438-.021 1.021.021 1.666.438 1.771.792.083.271.229 1 .229 1 .104.562.354.562.417.562.145 0 .375-.041.437-.479 0 0 .083-1.562.146-1.917.021-.187.167-.979.167-.979l.062-.375c.042-.312-.167-.5-.396-.479-.25-.021-.854.188-1.333.229ZM138.542 262h-.896l-2.646-.062c-.167 0-.667 0-.667.437 0 .229.188.396.438.396l.917.083c.854.104 1.02.542 1.062 1.438l.063 6.187v3.584c0 3.437-.48 5.479-1.605 6.895-1.02 1.23-2.687 1.98-4.333 1.98-1.625 0-2.833-.25-4.187-1.521-1.021-.979-2.084-2.563-2.084-6.917v-4.021l.063-6.187c.062-1 .271-1.354.875-1.438l.687-.083c.292-.021.459-.167.459-.396 0-.437-.5-.437-.688-.437l-2.125.062h-1.312l-2.709-.062c-.166 0-.687 0-.687.437 0 .229.187.396.458.396l.917.083c.75.084 1 .479 1.062 1.438l.063 6.187v4.188c0 4.646 1.375 6.562 2.562 7.708 1.938 1.833 4.625 2.104 6.063 2.104 1.541 0 3.854-.229 6.062-2.187 2.396-2.146 2.709-5.792 2.709-8.729v-3.084l.062-6.187c.063-.979.271-1.313.875-1.438l.667-.083c.291-.021.458-.167.458-.396 0-.437-.5-.437-.667-.437l-1.916.062Zm-91.146.167c-.042.104-.667 2.771-.667 3.125 0 .354.188.479.375.479.292 0 .417-.25.48-.438l.458-.854c.395-.604 1.02-.791 2.75-.812 0 0 3.166-.042 4.02-.063v11.917c0 2.687 0 5-.145 6.187-.125.855-.25 1.313-.667 1.396-.667.104-.813.104-.813.104-.312 0-.437.188-.437.396 0 .438.5.438.667.438l2.354-.063h.791l3.188.084c.604 0 .667-.313.667-.438 0-.187-.146-.396-.438-.396l-1.25-.104c-.687-.104-.854-.542-.937-1.375-.146-1.187-.146-3.521-.146-6.208v-11.917c.396 0 3.396.063 3.396.063 2.75.062 3.229.729 3.312 1.395l.021.313c.02.271.063.687.458.687.063 0 .417-.02.417-.583l.02-.917.063-2.229c0-.166 0-.583-.354-.583l-.354.062c-.396.084-1.167.23-2.5.23h-10.75s-2.02-.105-2.23-.146a29.677 29.677 0 0 1-.916-.229l-.354-.105h-.02c-.25-.02-.355.292-.46.584Zm167.708-.313c-.583.125-1.187.146-1.187.146l-6.563.021-.396-.021-2.854-.062c-.166 0-.687 0-.687.437 0 .229.187.375.437.396l.917.083c.75.063 1 .479 1.062 1.438l.063 6.166v5.042c0 2.688 0 5-.146 6.188-.125.854-.25 1.312-.667 1.395-.125.021-.812.105-.812.105-.333.02-.438.187-.438.395 0 .438.5.438.667.438l2.333-.063 1.563.021 6 .125c1.125 0 1.521 0 1.75-.896.146-.604.375-2.583.375-2.833 0-.208 0-.646-.396-.646-.354 0-.417.396-.458.604-.188 1.105-.5 1.625-1.167 1.896-.708.292-1.937.292-2.667.292-2.77 0-3.041-.354-3.104-2.146v-7.417c0 .021 4.063.167 4.063.167.979.104 1.25.5 1.291.833.063.334.105.896.105.896.041.313.166.479.416.479.417 0 .417-.52.417-.75l.104-1.812.229-1.625c0-.417-.291-.458-.354-.438-.146 0-.375.292-.583.417-.459.271-.459.292-1.229.354l-4.542.063.042-7.979c.333-.063 3.395-.042 3.854.02 1.562.167 1.729.521 1.854.855l.146.937c0 .521.312.583.458.583.146 0 .333-.083.417-.5l.104-1.458.021-.458.166-.979.063-.375c0-.438-.25-.48-.333-.48-.084 0-.084.105-.334.146Zm44.813.146h-.896l-2.458-.062c-.167 0-.667 0-.667.458 0 .229.146.375.437.396l.834.104c.437.062.75.396.812 1.417l.063 6.166v5.042c0 2.687 0 5-.146 6.187-.125.875-.25 1.313-.667 1.396l-.812.104c-.375.042-.459.209-.459.396 0 .438.521.438.688.438l2.354-.063h.792l3.208.084c.625 0 .667-.313.667-.438 0-.187-.125-.375-.438-.396l-1.25-.104c-.687-.104-.854-.542-.937-1.396-.146-1.187-.146-3.5-.146-6.187V270.5l.062-6.167c.063-.979.271-1.333.875-1.437l.688-.083c.291-.021.458-.167.458-.396 0-.459-.521-.459-.687-.459l-2.375.042Zm5.645.167c-.041.104-.666 2.771-.666 3.125 0 .354.187.479.375.479.292 0 .417-.25.479-.438l.458-.854c.396-.604 1.021-.791 2.75-.812 0 0 3.167-.042 4.021-.063v11.917c0 2.687 0 5-.146 6.187-.125.855-.25 1.313-.666 1.396-.667.104-.813.104-.813.104-.312 0-.437.188-.437.396 0 .438.5.438.666.438l2.355-.063h.791l3.188.084c.604 0 .666-.313.666-.438 0-.187-.145-.396-.437-.396l-1.25-.104c-.688-.104-.854-.542-.938-1.375-.146-1.187-.145-3.521-.145-6.208v-11.917c.395 0 3.395.063 3.395.063 2.75.062 3.23.729 3.313 1.395l.021.313c.02.271.062.687.458.687.063 0 .417-.02.417-.583l.021-.917.062-2.229c0-.166 0-.583-.354-.583l-.354.062c-.396.084-1.167.23-2.5.23h-10.75s-2.021-.105-2.23-.146c-.208-.042-.916-.229-.916-.229l-.354-.105h-.021c-.271-.02-.375.292-.459.584Zm-25.354 21.437c0 .438-.541.438-.916.438h-1.084c-1.604 0-2.375-.146-3.166-.563-1.167-.625-2.125-1.875-3.563-3.771 0 0-3.437-4.812-3.562-4.833 0 0-3.667-.062-3.667-.042v.688c0 2.687 0 5 .146 6.208.083.854.25 1.292.937 1.375l1.25.104c.375.021.459.209.459.396 0 .125-.063.438-.688.438l-3.187-.084h-.459l-2.583.084c-.167 0-.687 0-.687-.438 0-.208.083-.354.437-.396l.813-.104c.416-.083.541-.562.666-1.396.146-1.187.146-3.5.146-6.187v-5.042l-.062-6.187c-.063-.959-.313-1.354-1.063-1.438l-.917-.083c-.27-.021-.458-.167-.458-.396 0-.437.5-.437.688-.437l2.854.062 1.333-.021 2.438-.062c1.77 0 3.77.146 5.375 1.291.77.563 2.062 2.042 2.062 4.084 0 2.354-1.083 4.458-3.396 6.646.167.208.563.708.563.708 2.021 2.604 3.771 4.875 5.291 6.458 1.459 1.542 2.625 1.875 3.375 2l.146.021c.271.063.479.271.479.479Zm-9.27-14.791c0-3.459-1.771-5.521-4.75-5.521-.896 0-1.625.104-1.855.166-.062.021-.083.063-.083.146v9.375c0 .063 0 .104.104.167.334.208 1.542.417 2.896.417.604 0 1.396-.063 2.021-.5 1.062-.73 1.667-2.313 1.667-4.25Zm-150.23 50.708s-10.833 22.771-11.833 24.833C68.687 343.958 57 319.833 57 319.833c-.542-1.104-.833-1.416-1.27-1.416-.292 0-.667.208-.855 1.229l-4.333 28.583c-.23 1.604-.625 3.167-1.709 3.375l-1.291.125c-.334.021-.813 0-.813.417 0 .604.646.604.896.604l2.688-.083 1.645-.063 1.396.042 3.209.083c.562 0 1.166-.041 1.166-.604 0-.271-.229-.354-.77-.417l-1.813-.229c-.834-.187-1.23-.625-1.23-1.291l.126-2.042s2-15.271 2.25-17.229c.354.583 2.125 4.354 2.125 4.354l2.416 5.187c.521 1.209 3.917 7.813 5.042 9.959l.125.25c.667 1.25 1.063 2 1.5 2 .48 0 .708-.438 1.73-2.521l9.562-19.896c0 .167 2.604 19.25 2.604 19.25.062.396.083.708.083.958 0 .521-.104.771-.229.813-.292.125-.563.292-.563.583 0 .396.459.521 1.376.584 1.729.125 7.77.27 8.916.27.813 0 1.25-.208 1.25-.604 0-.416-.541-.416-.812-.416-.605 0-1.438-.042-2.688-.438-1.291-.396-1.687-1.708-2.062-4.333l-4-27.084c-.146-.979-.438-1.458-.896-1.458-.459.021-.709.438-1.063 1.146Zm51.105-.083-2.313.062-2.229-.042-3.771-.083c-.521 0-1.062.042-1.062.5 0 .5.437.458.854.5l1.416.125c1.417.125 1.73 1.021 1.792 2.396.083 1.396.083 2.604.083 9.292v7.708c0 4.021 0 7.479-.229 9.312-.187 1.417-.437 2.167-1.187 2.313l-1.563.167c-.416.041-.812.041-.812.458 0 .542.75.542.979.542l3.021-.084 2.5-.041 6.833.166 5.917.084c2.312 0 2.583-.23 2.875-1.271.354-1.292.666-4.563.666-5.063 0-.416 0-.854-.458-.854-.521 0-.562.479-.604.75-.083.813-.604 2.021-1.104 2.563-1.021 1.104-2.584 1.187-5.042 1.187-3.5 0-4.542-.333-5.229-.937-.875-.75-.875-3.813-.875-9.334v-7.708c0-6.688 0-7.896.083-9.292.084-1.604.479-2.208 1.542-2.396l1.687-.125c.459 0 .896-.062.896-.5 0-.437-.5-.5-1.021-.5l-3.645.105Zm27.937 30.708c1.167.479 2.167.521 3.167.521.875 0 5.187-.271 5.187-5.5 0-1.709-.416-5.979-4.208-8.646-.917-.667-1.917-.938-3.583-1.021l-1.875-.042c-.084 0-.146.021-.146.209v10.396c0 2.854.125 3.541 1.458 4.083Zm.271-28.771-1.417.083c-.229.063-.312.167-.312.646v10.834c0 .312.083.354.229.375l2.042.125c1.291 0 2.312-.146 3.083-.813 1.146-.937 1.75-2.521 1.75-4.562 0-2.584-1.458-6.688-5.375-6.688Zm.75-2.021c8.771 0 9.437 5.125 9.437 6.688 0 3.375-1.75 5.5-4.375 7.625 3.834 1.375 7.875 4.541 7.875 9.5 0 4.812-3.645 9.666-11.812 9.666l-1.375-.062-1.708-.083-3.271-.125-2.5.041-3.021.084c-.25 0-.979 0-.979-.542 0-.417.375-.438.812-.458l1.563-.167c.812-.167 1.021-1.146 1.187-2.313.209-1.833.209-5.312.209-9.312v-7.708c0-6.688 0-7.875-.084-9.292-.083-1.375-.25-2.25-1.812-2.396l-1.688-.125c-.5-.042-.854 0-.854-.5 0-.458.563-.5 1.063-.5l4.27.083 1.688.042 3.167-.083 2.208-.063Zm23.687 15.334c0 9.562 5.48 16.25 13.355 16.25 3.02 0 10.062-1.375 10.062-14.063 0-9.312-5.229-15.792-12.729-15.792-4-.02-10.688 1.75-10.688 13.605Zm-6.25 1.354c0-8.334 5.709-17.292 18.209-17.292 11 0 17.812 6.333 17.812 16.5 0 10.646-7.5 18.083-18.25 18.083-12.208 0-17.771-8.958-17.771-17.291Zm68.563-16.584-6.313-.083c-.5 0-1.02.042-1.02.5 0 .5 1.375.521 2.395.625 1.25.125 1.73 1.021 1.813 2.396.083 1.396.083 2.604.083 9.292v5.479c0 4.687-.187 8.479-2.5 10.791-2.104 2.105-4.875 2.334-5.979 2.334-1.521 0-3.5-.209-5.417-1.771-1.75-1.438-3.375-3.729-3.375-10.708v-6.146c0-6.688 0-7.875.084-9.292.104-1.604.479-2.208 1.541-2.396l1.25-.125c.355-.041.813 0 .813-.5 0-.458-.563-.5-1.063-.5l-3.208.084-2.187.062-2.334-.062-4.062-.084c-.521 0-1.063.042-1.063.5 0 .5.459.479.854.5 0 0 .396.021 1.688.125 1.292.104 1.729 1.021 1.791 2.396.084 1.396.084 2.604.084 9.292v6.396c0 5.562 1.25 9.27 3.937 11.687 3.375 3.063 7.875 3.063 9.792 3.063 2.563 0 5.896-.355 9.188-3.188 3.687-3.167 4.208-8.25 4.208-13.271v-4.687c0-6.688 0-7.875.083-9.292.084-1.604.479-2.208 1.542-2.396l1.25-.125c.521-.041.896-.062.896-.5 0-.458-.521-.5-1.021-.5l-3.75.104Zm18.312 16.875c.813.271 2.042.438 3.292.438 1.75 0 2.292-.188 3.042-.729.958-.688 2.541-2.459 2.541-6.479 0-6.25-4.145-7.917-6.604-7.917-1.187 0-1.896.062-2.291.167-.25.062-.313.187-.313.5v13.333c.021.458.104.583.333.687Zm3.125-16.958c2.646 0 5.667.229 8.125 1.896 1.042.708 3.021 2.896 3.021 6.083 0 3.604-1.729 6.542-5.75 9.834.104.145 1.479 1.854 1.479 1.854 3.209 4.041 5.75 7.229 7.979 9.583 2.376 2.458 4.084 2.813 4.792 2.958l.104.021c.5.104.625.375.625.563 0 .541-.645.541-.937.541h-3c-2.396 0-3.563-.208-4.75-.854-1.854-.979-3.479-2.958-6.042-6.479l-2.229-3.146-2.104-2.896c-.188-.229-.396-.27-.708-.27l-3.813-.084c-.188 0-.25.063-.25.25v.604c0 4.042 0 7.542.208 9.375.146 1.375.438 2.167 1.625 2.313l2.125.167c.563 0 .625.312.625.458 0 .542-.75.542-.979.542l-5.021-.105-1.416-.041-1.771.041-3.563.084c-.25 0-.979 0-.979-.542 0-.417.417-.417.813-.458l1.562-.167c.834-.167 1.021-1.146 1.188-2.312.208-1.834.208-5.313.208-9.313v-7.708c0-6.688 0-7.896-.083-9.292-.084-1.396-.375-2.229-1.813-2.396l-1.687-.125c-.271 0-.854 0-.854-.5 0-.458.562-.5 1.062-.5l4.25.084 1.75.041 3.229-.062 2.979-.042Zm27.417.833-.396 25.959c-.041 3.771-.229 5-1.291 5.333a5.435 5.435 0 0 1-1.605.208c-.229 0-.812 0-.812.459 0 .541.625.541 1.062.541l3.667-.104h1.958l3.938.084c.354 0 1.125 0 1.125-.542 0-.458-.604-.458-.854-.458-.646 0-1.209-.042-1.959-.313-.937-.333-1.375-1.75-1.458-4.771 0 0-.479-17.812-.479-18.208.25.208.896.917.896.917 1.854 2.02 5.687 6.229 9.479 10.02l5.812 5.813 7.125 7.062c.5.5 1.042 1 1.563 1 .604 0 .667-.729.667-1.458l.479-27.667c.041-2.458.125-3.416 1.25-3.625l1.291-.125c.688-.041.896-.166.896-.5 0-.5-.666-.5-1.125-.5l-3.208.105-.792.041-1.541-.041-3.48-.084c-.52 0-1.25 0-1.25.5 0 .438.438.5.813.5.604 0 1.354 0 2 .25.917.396 1.375 1.063 1.417 3.854 0 0 .416 18.542.437 19.709l-.104-.125c0-.042-3.084-3.25-3.084-3.25l-6.499-6.729c-6.667-6.625-13.521-14-13.584-14.063l-.416-.437c-.521-.563-.855-.938-1.292-.938-.583 0-.646.896-.646 1.583Zm53.729-.75c-.604.042-7.896.042-10.937.042l-2.23-.062-.52-.021-3.563-.042c-.521 0-1.083.042-1.083.5 0 .5.542.5.854.5l1.688.125c1.541.188 1.729 1.021 1.812 2.396.083 1.396.083 2.604.083 9.292v7.708c0 4.021 0 7.5-.229 9.333-.166 1.167-.354 2.146-1.187 2.313l-1.563.166c-.479.042-.812.042-.812.459 0 .541.729.541.979.541l3.021-.083 2.5-.042 4.562.125 1.271.042 6.313.104c1.645 0 2.145 0 2.479-1.229.229-.896.583-3.854.583-4.896 0-.437 0-.896-.458-.896-.417 0-.521.313-.584.75-.312 1.813-.833 2.667-1.916 3.167-1.125.521-2.979.521-4.084.521-4.541 0-5.062-.729-5.146-3.583v-10.25c0-.334.084-.334.146-.334.98 0 5.375.042 6.209.125 1.395.146 2.125.646 2.354 1.625l.146 1.167.021.396c0 .312.166.5.499.5.5 0 .501-.604.501-.938l.083-1.416.083-1.521.292-2.729.062-.48c0-.291-.145-.458-.416-.458-.25 0-.438.208-.729.542-.417.479-1.063.604-2.084.687-.646.063-3.125.084-7 .084-.146 0-.187-.042-.187-.375v-11.084c0-.333.104-.333.187-.333.854 0 5.459.083 6.209.167 2.208.27 2.562.791 2.854 1.52.25.584.25 1.438.25 1.542 0 .208 0 .729.5.729.437 0 .52-.437.541-.562l.167-2 .063-.896.291-2.417.063-.437c.041-.396-.125-.5-.375-.5-.355-.021-1.75.396-2.563.416Zm-235.708 0c-.604.042-7.896.042-10.938.042l-2.229-.062-.52-.021-3.563-.042c-.521 0-1.084.042-1.084.5 0 .5.542.5.855.5l1.687.125c1.542.188 1.73 1.021 1.813 2.396.083 1.396.083 2.604.083 9.292v7.708c0 4.021 0 7.5-.23 9.333-.166 1.167-.353 2.146-1.187 2.313l-1.562.166c-.48.042-.813.042-.813.459 0 .541.73.541.98.541l3.02-.083 2.5-.042 4.563.125 1.271.042 6.312.104c1.646 0 2.146 0 2.479-1.229.23-.896.584-3.854.584-4.896 0-.437 0-.896-.459-.896-.416 0-.52.313-.583.75-.312 1.813-.833 2.667-1.917 3.167-1.125.521-2.979.521-4.083.521-4.542 0-5.062-.729-5.146-3.583v-10.25c0-.334.084-.334.146-.334.979 0 5.375.042 6.208.125 1.396.146 2.125.646 2.355 1.625l.145 1.167.021.396c0 .312.167.5.5.5.5 0 .5-.604.5-.938l.084-1.416.083-1.521.292-2.729.062-.48c0-.291-.146-.458-.417-.458-.25 0-.437.208-.729.542-.416.479-1.062.604-2.083.687-.646.063-3.125.084-7 .084-.146 0-.188-.042-.188-.375v-11.084c0-.333.105-.333.188-.333.854 0 5.458.083 6.208.167 2.209.27 2.563.791 2.854 1.52.25.584.25 1.438.25 1.542 0 .208 0 .729.5.729.438 0 .521-.437.542-.562l.167-2 .062-.896.292-2.417.062-.437c.042-.396-.125-.5-.375-.5-.354-.021-1.75.396-2.562.416Z"/></svg>