<svg xmlns="http://www.w3.org/2000/svg" width="381" height="100" viewBox="0 0 100.806 26.458" xmlns:v="https://vecta.io/nano"><defs><clipPath ><path d="M43.316 811.68h215.28V616.92H43.316z"/></clipPath></defs><path d="M51.97 25.52l-.916-1.194c.416-.148.688-.472.684-.825h0c-.002-.265-.08-.465-.235-.6-.24-.227-.675-.32-1.32-.286H49.3v.2h.085c.157 0 .233.092.233.282V25.4c0 .25-.124.28-.233.28H49.3v.2h1.246v-.2h-.072c-.168 0-.24-.083-.24-.28v-.99h.13l1.1 1.462h.796v-.2h-.072c-.085 0-.155-.083-.228-.17m-.88-2.018c0 .338-.287.613-.64.613h-.214V22.95c.112-.044.206-.034.214-.033.36 0 .64.257.64.585m14.646-.706h.086c.11 0 .235.032.235.28V25.4c0 .196-.07.28-.235.28h-.086v.19h1.248v-.19h-.07c-.17 0-.24-.083-.24-.28v-2.334c0-.252.137-.28.24-.28h.07v-.19h-1.248zm-19.028-.19h-2.62c-.03 0-.072.034-.072.07l-.028.785h.176l.004-.05c.02-.312.132-.464.347-.464h.586v2.48c0 .183-.076.26-.254.26h-.066v.19h1.235v-.19h-.066c-.176 0-.24-.07-.24-.26v-2.48h.58c.146 0 .316.053.34.464l.002.05h.183l-.036-.783c0-.036-.036-.072-.072-.072m-10.704.19h.138c.105 0 .168.062.168.168v1.855c0 .493-.436.75-.866.75-.42 0-.712-.326-.712-.792v-1.73c0-.128.11-.253.22-.253h.07v-.19H33.81v.14l.008.052h.052c.133 0 .226.133.226.253v1.7c0 .68.538 1.155 1.31 1.155.756 0 1.263-.44 1.263-1.095v-1.855c0-.077.027-.168.154-.168h.15v-.19h-.968zm27.034 2.154c-.128.416-.342.6-.694.6h-.738c-.055 0-.114-.076-.114-.148V23.1c0-.206.074-.294.247-.294h.073v-.19h-1.248v.19h.08c.057 0 .234 0 .234.294v2.314c0 .257-.133.287-.234.287h-.08v.19h2.396l.29-.967h-.2zm-22.665-1.16l-.062-.034c-.213-.12-.336-.286-.337-.457-.001-.137.078-.262.218-.345.15-.092.34-.085.525.017.252.14.414.425.414.723v.052h.196v-1.142h-.186l-.01.042c-.012.052-.03.085-.057.1-.035.017-.1.01-.163-.02-.47-.225-.855-.197-1.175.088a.91.91 0 0 0-.275.742c.028.27.183.502.436.657l.252.152c.284.168.576.342.697.512.16.22.124.434-.103.636-.156.133-.367.155-.578.057-.246-.113-.494-.405-.494-.802v-.052h-.197v1.173h.187l.01-.04c.014-.057.042-.1.08-.117.034-.014.074-.01.116.013.19.1.43.172.67.172.206 0 .412-.053.59-.2.36-.27.477-.75.274-1.116-.184-.353-.653-.61-1.03-.818m17.374 1.657l-1.228-2.834c-.002-.007-.03-.064-.087-.073-.027-.004-.066.001-.108.05l-1.18 2.844c-.055.117-.147.256-.278.256h-.113v.19h.95v-.19h-.092c-.048 0-.096-.025-.122-.062-.02-.027-.02-.057-.01-.087l.286-.673h1.055l.29.67c.017.044.004.077-.01.098-.02.03-.06.052-.095.052h-.138v.19h1.208v-.19h-.085c-.095 0-.176-.08-.245-.243m-1.078-.915h-.773l.388-.9zm16.036 1.158c-.095 0-.175-.08-.245-.242l-1.23-2.835c-.003-.007-.03-.064-.086-.073-.027-.004-.066.001-.11.05l-1.18 2.844c-.054.117-.147.256-.277.256h-.114v.19h.95v-.19h-.092c-.048 0-.097-.025-.122-.062-.018-.027-.022-.057-.01-.087l.285-.673h1.056l.29.67c.017.044.005.077-.01.098a.12.12 0 0 1-.095.052h-.14v.19H72.8v-.19zm-1.322-1.158H70.6l.388-.9zm-40.39.915l-1.23-2.834c-.002-.007-.03-.064-.086-.073-.027-.005-.066.001-.11.05l-1.18 2.844c-.054.117-.147.256-.278.256H28v.19h.95v-.19h-.092c-.048 0-.097-.025-.122-.062-.02-.027-.022-.057-.01-.087l.286-.673h1.056l.29.67c.017.044.004.077-.01.098-.02.03-.058.052-.094.052h-.14v.19h1.208v-.19h-.085c-.095 0-.175-.08-.245-.243m-1.078-.915h-.773l.388-.9zM83.1 4.23l.405.245c.5.293 1.046.626 1.266.924.295.4.234.77-.187 1.132-.276.24-.645.282-1.015.115-.436-.198-.875-.718-.875-1.433v-.078h-.32v2.047h.3l.016-.057c.03-.107.094-.187.172-.22.062-.025.13-.017.196.022.37.2.763.297 1.13.297.395 0 .764-.113 1.052-.338.622-.455.832-1.31.48-1.943-.33-.625-1.16-1.092-1.9-1.48-.363-.206-.576-.496-.585-.797-.008-.25.13-.485.375-.644.28-.162.628-.145.96.046a1.46 1.46 0 0 1 .722 1.264v.078h.295V1.46h-.282l-.01.065c-.014.08-.043.133-.088.157-.065.036-.18.02-.33-.04-.84-.38-1.482-.328-2.023.166a1.58 1.58 0 0 0-.495 1.288c.045.462.313.866.753 1.135m-7.324 1.303h-.33l-.016.055c-.225.712-.604 1.03-1.232 1.03h-1.402c-.116 0-.202-.086-.202-.2V4.438h1.522c.26 0 .33.282.33.45V5h.318V3.302h-.318v.113c0 .173-.1.448-.33.448h-1.522V1.987h1.65c.397 0 .674.324.704.826l.005.072h.298l-.118-1.428h-4.154v.307h.114c.293 0 .425.157.425.506v4.097c0 .355-.127.506-.425.506h-.114v.308h4.267zm13.27 1.342h-.113c-.302 0-.436-.156-.436-.505V2.27c0-.345.138-.506.436-.506h.113v-.307H86.88v.307h.137c.293 0 .423.157.423.506v4.097c0 .355-.126.505-.423.505h-.137v.308h2.163zm-52.916.001h-.114c-.293 0-.424-.156-.424-.506V4.532h2.225v1.836c0 .355-.133.506-.446.506h-.114v.308h2.175v-.308h-.135c-.297 0-.425-.15-.425-.506V2.27c0-.35.13-.506.425-.506h.135V1.46h-2.175v.306h.114c.305 0 .446.16.446.506v1.71H35.59V2.27c0-.34.14-.506.424-.506h.114V1.46h-2.152v.306h.112c.306 0 .425.142.425.506v4.097c0 .37-.115.506-.425.506h-.112v.308h2.152zm8.95-1.342h-.328l-.016.056c-.21.71-.59 1.028-1.233 1.028H42.1c-.115 0-.202-.086-.202-.2V4.438h1.533c.22 0 .32.232.32.45V5h.32V3.302h-.32v.113c0 .186-.1.448-.32.448H41.9V1.987h1.65c.404 0 .673.316.704.825l.004.073h.297l-.105-1.428h-4.166v.307h.113c.297 0 .436.16.436.506v4.097c0 .35-.135.506-.436.506h-.113v.308h4.28zm50.795-3.347l1.692 2.584v1.6c0 .368-.126.518-.436.518h-.113v.308h2.187v-.308H99.1c-.322 0-.447-.14-.447-.494V4.73l1.505-2.57c.158-.248.358-.384.564-.384h.078v-.32h-1.52v.32h.217c.038 0 .08.03.105.076s.042.12.005.18l-1.2 2.062-1.327-2.023c-.05-.098-.02-.174.003-.2.032-.052.085-.085.137-.085h.206v-.32h-2.13v.32h.078c.14 0 .323.046.518.408m-39.805-.28l.196.225.158.184v4.22c0 .227-.214.33-.413.33h-.135v.318h1.707v-.318h-.113c-.216 0-.436-.114-.436-.33v-3.48l3.564 4.13h.23V2.11c0-.225.213-.343.423-.343h.113V1.46h-1.696v.308h.124c.2 0 .412.107.412.343v2.965l-3.12-3.616h-1.538v.308h.078c.218 0 .347.02.444.138m9.317.28L67.5 7.1l.01.018a.22.22 0 0 0 .169.081h.014c.062-.005.112-.037.144-.09l1.928-4.896c.157-.325.277-.446.444-.446h.078v-.307h-1.44v.307h.16c.064 0 .13.036.17.09.027.037.053.098.026.176l-1.308 3.26-1.43-3.26c-.03-.08-.007-.14.018-.176.042-.06.1-.092.156-.092h.263v-.307h-2.045v.307h.078c.174 0 .306.126.442.42M48.822.94v3.805c0 1.49 1.17 2.53 2.844 2.53 1.626 0 2.762-.992 2.762-2.413V.778c0-.282.127-.413.4-.413h.3V0h-2.175v.365h.347c.25 0 .39.147.39.413v4.085c0 1.166-1 1.697-1.93 1.697-.964 0-1.638-.73-1.638-1.778V.94a.58.58 0 0 1 .552-.576h.172V0H48.11v.365h.16c.33 0 .552.298.552.576m15.362 5.933h-.1c-.302 0-.436-.156-.436-.505V2.27c0-.345.138-.506.436-.506h.1v-.307h-2.14v.307h.1c.318 0 .46.157.46.506V6.37c0 .354-.137.505-.46.505h-.1v.308h2.14zm30.5-5.416h-4.6c-.054 0-.112.06-.112.11l-.05 1.365h.283l.004-.074c.032-.555.236-.825.623-.825h1.04v4.37c0 .33-.137.47-.46.47h-.1v.308h2.14v-.308h-.1c-.313 0-.436-.132-.436-.47v-4.37h1.03c.24 0 .568.085.61.825l.004.074h.295l-.062-1.363c0-.053-.06-.112-.112-.112m-16.667.583c.204-.083.38-.065.39-.064.637 0 1.137.458 1.137 1.043 0 .6-.5 1.09-1.137 1.09h-.39zm.548 4.835h-.113c-.3 0-.436-.157-.436-.506V4.614h.245l1.95 2.568H81.6v-.306h-.114c-.155 0-.28-.148-.41-.304l-1.62-2.112c.734-.255 1.215-.823 1.2-1.44-.005-.463-.138-.81-.407-1.063-.42-.395-1.18-.557-2.31-.496h-1.536v.308h.137c.284 0 .423.165.423.506V6.37c0 .35-.13.506-.423.506h-.137v.306h2.163zm-39.458 5.182h-4.412v.308h.114c.3 0 .436.163.436.53v4.085c0 .35-.135.507-.436.507h-.114v.296h2.164v-.296h-.136c-.297 0-.424-.148-.424-.494v-1.954h1.545c.303 0 .318.383.318.46v.1h.31v-1.696h-.31v.113c0 .075-.016.448-.318.448H36.3V12.6h1.917c.39 0 .675.332.706.826l.004.072h.284zm16.936 5.426h-.114v.296h4.28l.503-1.65h-.314l-.017.055c-.227.72-.607 1.043-1.232 1.043h-1.4c-.112 0-.226-.074-.226-.214v-1.977h1.545c.207 0 .33.234.33.46v.1h.295V13.9h-.295v.113c0 .217-.116.448-.33.448h-1.545v-1.864h1.65c.422 0 .696.315.717.823v.075h.287l-.105-1.44H55.94v.308h.114c.302 0 .436.16.436.518v4.096c0 .35-.134.507-.436.507m14.386-5.12h.112c.215 0 .437.128.437.342v2.978l-3.144-3.628h-1.537v.308h.078c.236 0 .36.038.433.138l.083.1.293.33v4.2c0 .235-.22.342-.425.342h-.123v.307h1.696v-.307h-.114c-.21 0-.423-.106-.423-.342v-3.48l3.55 4.128h.23v-5.074c0-.222.213-.342.413-.342h.124v-.308H70.44zm11.316 3.742l-.017.055c-.228.737-.608 1.065-1.233 1.065H79.2c-.106 0-.214-.137-.214-.272v-4.062c0-.366.138-.53.447-.53h.113v-.307h-2.163v.307h.124c.286 0 .425.173.425.53v4.062c0 .464-.243.517-.425.517h-.124v.308h4.186l.502-1.672zm18.023-1.203c0 1.5-.878 2.362-2.408 2.362-.186 0-.295-.008-.47-.052v-4.636c.176-.097.443-.06.458-.058.8-.02 1.417.203 1.835.662.635.697.587 1.7.586 1.722m.292-1.967c-.59-.62-1.5-.915-2.697-.877H95.18v.308h.124c.182 0 .425.055.425.53v4.062c0 .358-.13.518-.425.518h-.124v.306h2.657c1.653 0 2.947-1.257 2.95-2.864.005-.08.067-1.163-.715-1.983m-15.824 2.51l.702-1.61.695 1.61zm3.255 1.6l-2.156-4.976c-.005-.01-.048-.107-.14-.122-.043-.007-.11.002-.18.082l-2.066 4.99c-.096.208-.263.456-.5.456h-.183v.308h1.637v-.308h-.148c-.088 0-.178-.045-.225-.113-.034-.05-.04-.106-.018-.163l.505-1.19h1.87l.516 1.19c.032.082.008.144-.018.18-.04.06-.1.096-.18.096h-.23v.308h2.094v-.308h-.137c-.174 0-.32-.14-.442-.43m5.16-4.68h.077c.215 0 .436.13.436.343v2.977l-3.132-3.627h-1.538v.308h.078c.228 0 .348.038.422.14l.083.1.293.328v4.21c0 .225-.214.343-.425.343h-.112v.307h1.684v-.307h-.1c-.217 0-.436-.106-.436-.343v-3.48l3.55 4.13h.23v-5.074c0-.225.207-.343.412-.343h.136v-.308h-1.66zm-26.964 3.82c-.23.73-.6 1.043-1.234 1.043H63.06c-.1 0-.202-.073-.202-.214v-1.976h1.522c.232 0 .354.23.354.46v.1h.296V13.9h-.296v.113c0 .215-.11.448-.354.448H62.86v-1.864h1.65c.404 0 .674.316.704.825l.004.073h.285l-.104-1.44h-4.143v.308h.102c.293 0 .436.17.436.518v4.096c0 .346-.138.507-.436.507h-.102v.296H65.5l.53-1.65h-.326zM43.61 14.188c.01-1.198.293-2.07.84-2.6.5-.466 1.04-.485 1.127-.485l.016.001c1 0 2.03.95 2.03 3.074 0 1.53-.618 3.074-2 3.074-1.222 0-2.012-1.206-2.012-3.072m5.385 5.225h.078v-.338L49 19.07a2.67 2.67 0 0 1-2.174-1.417c1.374-.487 2.224-1.787 2.224-3.417-.044-2.93-2.28-3.707-3.457-3.71h-.001c-1.976.015-3.4 1.555-3.4 3.66 0 1.84 1.093 3.287 2.723 3.61 1.05 1.073 2.425 1.617 4.1 1.617m5.72-3.486V12.67c0-.198.1-.308.283-.308h.254v-.308H53.58v.308h.23c.2 0 .308.118.308.308v3.256c0 .877-.772 1.335-1.535 1.335-.743 0-1.263-.578-1.263-1.405v-3.035c0-.236.194-.46.4-.46h.114v-.308h-2.106v.23l.012.078h.078c.243 0 .413.242.413.46v3c0 1.186.94 2.014 2.284 2.014 1.317 0 2.202-.767 2.202-1.9M30.54 17.263h-.026c-.414 0-.8-.163-1.115-.472-.548-.54-.866-1.487-.868-2.602-.002-.696.136-2.977 2.007-3.074.735.04 1.975.483 2.016 3.022 0 1.87-.808 3.127-2.013 3.127m.004-6.736c-.072-.002-1.3-.047-2.275.838-.702.636-1.086 1.584-1.144 2.823 0 2.114 1.437 3.65 3.416 3.65s3.417-1.535 3.417-3.65c0-2.127-1.404-3.632-3.414-3.662m45.766 5.04c-.317-.615-1.136-1.065-1.794-1.427l-.116-.064c-.377-.21-.596-.507-.6-.814-.002-.245.14-.468.392-.616.265-.164.606-.154.93.027.447.25.736.754.736 1.283v.078h.32v-1.977h-.305l-.013.062c-.02.094-.055.156-.105.182-.064.033-.166.02-.3-.038-.82-.393-1.49-.343-2.047.154-.345.324-.528.818-.48 1.29.05.467.32.873.76 1.143l.43.26c.504.3 1.025.61 1.242.91.284.39.22.772-.185 1.133-.278.237-.65.275-1.026.103-.436-.2-.876-.718-.876-1.422v-.077h-.32v2.025h.306l.012-.05c.023-.106.077-.182.15-.215.064-.03.138-.022.217.022a2.61 2.61 0 0 0 1.168.299c.358 0 .717-.093 1.026-.33.627-.47.83-1.306.477-1.943M33.132.136c0-.058-.062-.136-.124-.136h-5.685c-.063 0-.124.078-.124.136l-.074 1.76h.33l.004-.075c.023-.504.185-1.104.822-1.104h1.224V6.24c-.001.313-.253.587-.54.587h-.393v.354h3.2v-.354h-.393c-.288 0-.54-.275-.54-.588V.716h1.224c.637 0 .798.6.82 1.104l.004.075h.33zM21.748.552v13.152c0 5.076-4.427 10.257-10.59 12.175C4.98 23.962.552 18.78.552 13.704V.552zM22.3 0H0v13.705c0 5.383 4.624 10.726 10.995 12.703l.163.05.164-.05c6.36-1.98 10.978-7.322 10.978-12.703V.552zM5.594 9.556c-.115 0-.22.12-.26.277h.52c-.04-.158-.144-.277-.26-.277m0 .83c.116 0 .22-.12.26-.276h-.52c.04.157.144.276.26.276m0 2.356c.116 0 .22-.12.26-.276h-.52c.04.157.144.276.26.276m0-.83c-.115 0-.22.12-.26.277h.52c-.04-.158-.144-.277-.26-.277M19.41 4.508c-.77 1.62-1.97 2.67-4.727 3.107.437-2.758 1.487-3.956 3.106-4.727v-.003H4.51v.003c1.62.77 2.67 1.97 3.106 4.727C4.86 7.18 3.66 6.13 2.9 4.508h-.002L2.9 17.79c.77-1.62 1.97-2.67 4.726-3.107C7.18 17.44 6.13 18.64 4.51 19.4v.003l13.28-.003c-1.62-.77-2.67-1.97-3.106-4.727 2.757.437 3.956 1.487 4.727 3.107h.002V4.508zm-7.985 4.325c0-.407.423-.655.98-.655.825 0 1.268.27 1.726.18v4.413h-1.44c-.684 0-.796.025-1.268.222zm-3.26-.49c.457.088.9-.18 1.726-.18.56 0 .98.248.98.655v4.16c-.472-.196-.584-.222-1.268-.222h-1.44zm8.406 3.567c.23 0 .414.186.414.415s-.185.414-.414.414h-1.335v1.076h-2.543c-.514 0-.514 0-.846.137-.18.077-.43.18-.7.18s-.518-.103-.703-.18c-.328-.136-.328-.136-.84-.136H7.063v-1.076H6.036c-.1.168-.26.276-.442.276-.267 0-.5-.237-.542-.552h-.15c-.077 0-.138-.062-.138-.138s.06-.138.138-.138h.15c.05-.316.274-.553.542-.553.18 0 .342.11.442.276h1.026v-1.527H6.036c-.1.168-.26.276-.442.276-.267 0-.5-.237-.542-.552h-.15c-.077 0-.138-.062-.138-.138s.06-.138.138-.138h.15c.05-.316.274-.553.542-.553.18 0 .342.11.442.276h1.026v-.784l.552-.313v4.806h1.992c.623 0 .664.017 1.056.18.11.047.29.138.488.138s.376-.09.488-.138c.392-.163.434-.18 1.057-.18h1.99v-4.74l.552.247v.784h1.335c.23 0 .414.186.414.415s-.185.414-.414.414h-1.335v1.527z" fill="#47166d"/></svg>