<?xml version="1.0" encoding="UTF-8" standalone="no"?>
<!-- Created with Inkscape (http://www.inkscape.org/) -->

<svg
   version="1.1"
   id="svg59"
   width="608.32001"
   height="126.87052"
   viewBox="0 0 608.32001 126.87052"
   sodipodi:docname="Bocconi_University_Logo.png"
   xmlns:inkscape="http://www.inkscape.org/namespaces/inkscape"
   xmlns:sodipodi="http://sodipodi.sourceforge.net/DTD/sodipodi-0.dtd"
   xmlns="http://www.w3.org/2000/svg"
   xmlns:svg="http://www.w3.org/2000/svg">
  <defs
     id="defs63" />
  <sodipodi:namedview
     id="namedview61"
     pagecolor="#ffffff"
     bordercolor="#000000"
     borderopacity="0.25"
     inkscape:showpageshadow="2"
     inkscape:pageopacity="0.0"
     inkscape:pagecheckerboard="0"
     inkscape:deskcolor="#d1d1d1"
     showgrid="false" />
  <g
     inkscape:groupmode="layer"
     inkscape:label="Image"
     id="g65"
     transform="translate(1.2142298,0.37861678)">
    <path
       style="fill:#224993;fill-opacity:1;stroke-width:0.32"
       d="m 145.85586,126.04312 c -8.00933,-1.50781 -14.2019,-4.70981 -20.20181,-10.44576 -6.65563,-6.36281 -10.85177,-13.55536 -12.84615,-22.019371 -1.08196,-4.591782 -1.36862,-13.073766 -0.6002,-17.759229 1.52878,-9.321751 5.58737,-16.813338 13.2757,-24.505066 6.24597,-6.248735 11.67185,-9.690505 18.30904,-11.613891 8.62173,-2.498476 18.76386,-1.556019 26.76383,2.487034 7.56486,3.823155 15.72549,12.428261 19.46792,20.528245 4.3335,9.379294 5.32276,20.040539 2.82936,30.491985 -3.5665,14.949533 -16.44616,28.584943 -30.48192,32.270513 -3.97109,1.04275 -12.44039,1.33276 -16.51577,0.56554 z m 11.19114,-0.80935 c 6.31988,-1.14573 10.84158,-5.81763 13.06865,-13.50278 1.78361,-6.15486 1.94705,-8.46924 1.94865,-27.593001 0.002,-18.692926 -0.14283,-21.210558 -1.58991,-27.720919 -1.8307,-8.236212 -4.98844,-13.17255 -9.92861,-15.520911 -6.14235,-2.919831 -13.83624,-1.602365 -18.28645,3.13128 -3.35274,3.566271 -5.81054,9.780504 -6.97295,17.630181 -0.98054,6.621502 -1.21018,12.440955 -1.04736,26.541323 0.14036,12.154387 0.24055,14.292487 0.81458,17.382937 1.83487,9.87864 5.11923,15.63599 10.40588,18.24108 1.25746,0.61963 2.93429,1.25223 3.72629,1.40576 2.07166,0.4016 5.66111,0.4039 7.86123,0.005 z m 233.46221,0.79038 c -11.33661,-1.90045 -21.68077,-9.41928 -28.29962,-20.57005 -6.68614,-11.264143 -7.72528,-26.513669 -2.65427,-38.951878 3.0319,-7.436708 9.82518,-15.771578 17.00976,-20.869811 17.01267,-12.072329 38.22566,-9.080832 51.80451,7.305577 5.54522,6.691731 8.65818,13.51695 9.98826,21.89954 0.63558,4.005632 0.43373,13.194301 -0.36954,16.820461 -1.28592,5.805098 -3.888,11.715491 -7.25168,16.471551 -4.00461,5.66237 -11.05801,11.92785 -16.56409,14.71378 -2.43712,1.2331 -6.98637,2.71737 -9.86989,3.22022 -3.36653,0.58707 -10.17242,0.56764 -13.79344,-0.0394 z m 13.53075,-1.37856 c 7.93008,-2.80669 11.63478,-10.21193 12.66093,-25.307601 0.4127,-6.071542 0.41085,-24.693664 -0.003,-31.2 -0.76698,-12.053953 -3.02775,-19.606679 -7.22634,-24.141658 -4.03705,-4.360496 -10.71289,-5.833868 -16.7624,-3.699484 -5.7839,2.040678 -9.88742,7.930139 -11.98538,17.201647 -1.51747,6.706185 -2.25948,19.057009 -1.95609,32.559495 0.28835,12.834151 1.04157,18.209111 3.41395,24.362151 1.09242,2.83325 3.53862,6.47518 5.20083,7.74302 1.62893,1.24242 3.90727,2.36151 5.96346,2.92916 2.49894,0.68987 8.14973,0.45382 10.69418,-0.44673 z m -171.97418,0.94919 c -5.72112,-1.2161 -11.22192,-4.11885 -15.76164,-8.31733 -3.09383,-2.86128 -6.67757,-7.7813 -8.71255,-11.96121 -3.08489,-6.336481 -4.37564,-12.300539 -4.37564,-20.218251 0,-13.104742 4.14635,-23.508372 12.93078,-32.444679 5.8219,-5.922569 11.62623,-9.195439 19.11905,-10.780611 4.02599,-0.851734 11.13879,-0.78015 14.56,0.146528 8.29877,2.247834 15.10597,8.191235 17.24152,15.05367 2.60264,8.363389 0.10097,16.225028 -6.14079,19.297841 -1.8979,0.934329 -2.37413,1.032486 -4.99923,1.030393 -2.56423,-0.0019 -3.14339,-0.11583 -4.98242,-0.978905 -6.57627,-3.086311 -9.20329,-10.851169 -5.81565,-17.189668 1.17203,-2.192948 4.11185,-4.807748 6.3655,-5.661757 3.67014,-1.390775 7.91754,-0.803965 11.74364,1.622477 0.84773,0.537612 1.59346,0.92535 1.65717,0.861635 0.37944,-0.379437 -2.67532,-4.647715 -4.98794,-6.969434 -3.07081,-3.082892 -5.25025,-4.385733 -9.10625,-5.443612 -2.98715,-0.819513 -7.75496,-0.969356 -10.41555,-0.327344 -6.90059,1.665143 -11.45835,7.186124 -13.44431,16.285574 -2.07723,9.517665 -2.46058,31.102884 -0.75613,42.575753 1.72093,11.58377 6.29196,17.96455 14.36044,20.04598 2.23624,0.57689 7.33289,0.6729 9.51298,0.17921 5.18382,-1.17389 9.53619,-4.39876 12.82685,-9.50403 3.59251,-5.57357 5.21363,-10.29988 5.55626,-16.199021 0.1602,-2.758438 0.29505,-3.44 0.68062,-3.44 0.70235,0 0.28475,6.214467 -0.71234,10.600611 -2.75031,12.09841 -9.86546,19.4189 -21.14437,21.75458 -3.88886,0.80532 -11.36744,0.79627 -15.2,-0.0184 z m 76.16,0.0135 c -9.07884,-1.99878 -16.21034,-7.12271 -21.99564,-15.80369 -8.90012,-13.354857 -9.413,-33.089443 -1.23978,-47.704519 2.917,-5.216087 8.37881,-11.284903 13.07386,-14.526845 8.74953,-6.041564 20.55631,-8.036313 29.64956,-5.009266 3.96611,1.320278 6.90483,3.169088 10.13171,6.374018 4.56925,4.538182 6.20605,8.385958 6.21556,14.611491 0.01,6.328948 -2.62324,10.911643 -7.54077,13.124932 -1.26371,0.568775 -2.14298,0.705216 -4.4545,0.691216 -3.40378,-0.02061 -4.9865,-0.527552 -7.44701,-2.385254 -6.02905,-4.551968 -6.53329,-13.40994 -1.06054,-18.630062 2.23965,-2.13624 3.83769,-2.973715 6.47145,-3.39144 3.27652,-0.519664 7.16244,0.53745 10.1161,2.751952 0.572,0.428855 1.04,0.672784 1.04,0.542064 0,-0.13072 -0.60006,-1.254048 -1.3335,-2.496285 -1.6177,-2.739968 -5.54723,-6.742386 -7.9465,-8.093874 -5.27091,-2.969072 -12.48138,-3.63224 -17.81111,-1.638134 -4.93133,1.845049 -8.86439,6.983909 -10.6581,13.925672 -2.8144,10.891877 -2.9906,37.464293 -0.32291,48.696694 2.10048,8.84413 6.94303,14.21782 14.16329,15.71674 2.53139,0.52552 7.36128,0.45961 9.59104,-0.13088 4.00931,-1.06174 7.67341,-3.51396 10.36397,-6.93618 4.52624,-5.75702 6.90681,-11.81037 7.35187,-18.694312 0.17187,-2.658736 0.31434,-3.344339 0.69482,-3.344339 1.12896,0 -0.33975,10.389151 -2.18247,15.438341 -1.45193,3.97843 -3.2751,6.78394 -6.52134,10.03522 -2.45859,2.46242 -3.37978,3.14423 -5.94906,4.40317 -4.74541,2.32526 -7.12979,2.83269 -13.92,2.96238 -4.73992,0.0905 -6.2417,0.004 -8.48,-0.48881 z M -1.2142298,122.69799 c 0,-0.62327 0.213334,-0.64 8.1608538,-0.64 h 8.160853 l -0.08085,-58.800002 -0.08085,-58.7999964 -8.08,-0.0855 c -6.88886676,-0.0729 -8.0800008,-0.15544 -8.0800008,-0.56 0,-0.41563 3.384725,-0.47447 27.2800008,-0.47424 15.794544,1.6e-4 28.761994,0.13612 30.800001,0.32295 7.141226,0.65463 13.241146,2.14931 18.28897,4.48141 11.69119,5.4013494 17.32262,14.2060494 16.65612,26.0417294 -0.10016,1.778506 -0.4092,4.097648 -0.68677,5.153648 -0.7476,2.844163 -2.78667,6.760269 -4.76482,9.150972 -3.48513,4.211965 -10.479573,8.499113 -16.061087,9.844416 -2.730835,0.658211 -2.682029,0.838413 0.31096,1.148134 2.567178,0.265655 7.11378,1.824317 10.376967,3.557415 10.10736,5.36809 16.261981,12.130964 18.665371,20.510061 0.598241,2.085671 0.719411,3.291882 0.718191,7.149002 -9.6e-4,2.671587 -0.18159,5.454515 -0.426061,6.56 -3.20956,14.513371 -17.334771,24.218401 -37.477841,25.749981 -2.513642,0.19112 -16.730359,0.32879 -34.000001,0.32924 -29.4669318,7.7e-4 -29.6800068,-0.004 -29.6800068,-0.63922 z m 62.2400018,-1.57394 c 8.038477,-2.65176 12.174538,-7.95437 13.748391,-17.62606 0.859651,-5.282763 1.24328,-13.732852 0.825645,-18.186385 C 74.491107,73.488699 68.933756,65.014634 59.894473,61.363508 56.393644,59.94946 54.195417,59.669514 46.545772,59.663543 l -7.120001,-0.0056 v 31.224718 31.224709 l 9.680001,-0.12222 c 9.069862,-0.11451 9.82119,-0.16879 11.92,-0.86115 z m -5.12,-63.22747 C 65.905526,55.797105 70.623552,47.015976 70.060022,31.552863 69.77718,23.791781 67.649417,17.559641 63.514924,12.382521 61.435196,9.7783316 60.097903,8.5925116 57.425554,6.9828916 c -3.311718,-1.99473 -5.268448,-2.41937 -11.999782,-2.60414 l -6.000001,-0.16469 V 31.296023 58.377988 l 7.120001,-0.0056 c 5.014979,-0.0039 7.782253,-0.144598 9.36,-0.475853 z m 394.080008,64.80141 c 0,-0.61867 0.21335,-0.64 6.40001,-0.64 h 6.4 v -40.000001 -40 h -7.2 c -6.18666,0 -7.20001,-0.06756 -7.20001,-0.48 0,-0.420902 2.18666,-0.48 17.76001,-0.48 h 17.76 l 0.0288,9.039999 0.0288,9.04 0.57616,-2.161152 c 2.1046,-7.894682 8.31212,-14.739196 15.50099,-17.091618 2.27091,-0.743114 3.09069,-0.844288 6.74509,-0.832461 6.93801,0.02246 11.85497,1.765469 16.12025,5.714464 4.09015,3.786847 6.59229,8.44174 8.08042,15.032572 0.71014,3.145021 0.71885,3.486333 0.8353,32.698196 l 0.11766,29.520001 h 7.02317 c 6.80985,0 7.0232,0.0194 7.0232,0.64 0,0.63399 -0.21335,0.64 -22.72,0.64 -22.50666,0 -22.72,-0.006 -22.72,-0.64 0,-0.61247 0.21334,-0.64 4.96,-0.64 h 4.96 l -0.003,-33.040001 c 0,-19.219037 -0.13204,-34.167438 -0.31229,-35.735217 -0.58266,-5.068102 -2.17408,-8.401525 -4.85946,-10.178613 -1.216,-0.80472 -1.60595,-0.88617 -4.24246,-0.88617 -2.58474,0 -3.10909,0.104246 -4.77815,0.94992 -4.6806,2.3716 -8.96467,9.411999 -11.49452,18.890079 -0.66951,2.508278 -0.68544,3.14024 -0.78986,31.280001 l -0.10653,28.720001 h 5.13283 c 4.91952,0 5.13287,0.0266 5.13287,0.64 0,0.63382 -0.21335,0.64 -22.08,0.64 -21.86666,0 -22.08,-0.006 -22.08,-0.64 z m 106.88001,0 c 0,-0.62104 0.21334,-0.64 7.2,-0.64 h 7.2 v -40.000001 -40 h -7.2 c -6.18666,0 -7.2,-0.06756 -7.2,-0.48 0,-0.420954 2.20445,-0.48 17.92,-0.48 h 17.92 v 40.48 40.480001 h 7.2 c 6.98666,0 7.2,0.019 7.2,0.64 0,0.63456 -0.21334,0.64 -25.12,0.64 -24.90666,0 -25.12,-0.005 -25.12,-0.64 z m 20.25594,-98.821399 c -3.24193,-1.1484 -5.87882,-3.5587 -7.41581,-6.7786 -0.74925,-1.56963 -0.84013,-2.14076 -0.84013,-5.279999 0,-4.1393504 0.44941,-5.4108404 2.85248,-8.0702204 3.65456,-4.04438004 10.20963,-5.30958 15.16608,-2.92723004 2.00221,0.96236004 4.58381,3.64779004 5.70829,5.93781004 0.82816,1.68653 0.91315,2.17241 0.91315,5.2196404 0,3.104179 -0.076,3.518359 -0.99834,5.439999 -1.20752,2.51589 -3.46835,4.83038 -5.871,6.01038 -2.34064,1.14955 -6.92516,1.36552 -9.51472,0.44822 z"
       id="path221" />
  </g>
</svg>
