<?xml version="1.0" encoding="utf-8"?>
<!-- Generator: Adobe Illustrator 23.0.1, SVG Export Plug-In . SVG Version: 6.00 Build 0)  -->
<svg version="1.1"
	 id="Livello_1" xmlns:anim="urn:oasis:names:tc:opendocument:xmlns:animation:1.0" xmlns:ooo="http://xml.openoffice.org/svg/export" xmlns:presentation="http://sun.com/xmlns/staroffice/presentation" xmlns:smil="http://www.w3.org/2001/SMIL20/"
	 xmlns="http://www.w3.org/2000/svg" xmlns:xlink="http://www.w3.org/1999/xlink" x="0px" y="0px" width="354px" height="106.202px"
	 viewBox="0 0 354 106.202" enable-background="new 0 0 354 106.202" xml:space="preserve">
<g>
	<g>
		<path fill-rule="evenodd" clip-rule="evenodd" fill="#822433" d="M88.508,53.102c0,29.288-19.853,53.1-44.257,53.1
			C19.843,106.202,0,82.39,0,53.102C0,23.821,19.843,0,44.251,0C68.655,0,88.508,23.821,88.508,53.102"/>
		<path fill-rule="evenodd" clip-rule="evenodd" fill="#FFFFFF" d="M45.095,17c0,1.667,0.01,5.945,0,7.492
			c0,0.694,0.259,1.19,0.587,1.547c0.195,0.199,0.363,0.33,0.529,0.428c0.06,0.053,0.324,0.152,0.418,0.152
			c0.136,0.022,0.312,0.039,0.532,0.03c0.533-0.039,1.059-0.222,1.534-0.74c1.012-1.105,3.157-3.398,4.073-4.383
			c0.27-0.289-0.015-0.335-0.245-0.327c-1.879,0.051-3.89,1.845-5.258,3.072c-0.17-1.845-0.453-5.963-1.816-7.525
			C45.287,16.572,45.095,16.58,45.095,17 M43.367,16.746c-1.371,1.562-1.616,5.681-1.773,7.525c-1.372-1.227-3.385-3.02-5.261-3.072
			c-0.229-0.008-0.521,0.037-0.253,0.327c0.914,0.985,3.059,3.278,4.077,4.383c0.474,0.518,0.998,0.701,1.487,0.731
			c0.27,0.017,0.438,0,0.577-0.022c0.093,0,0.357-0.1,0.42-0.152c0.172-0.098,0.334-0.229,0.496-0.388
			c0.363-0.397,0.622-0.893,0.616-1.587c0-1.547,0.006-5.825,0.006-7.492C43.764,16.58,43.52,16.572,43.367,16.746 M27.43,55.105
			c0.123-1.41-0.83-2.622-2.17-2.88c-0.183-0.014-0.366-0.03-0.539-0.053c-5.808-0.557-11.55-2.219-16.877-5.023
			c-0.123-0.071-0.234,0.061-0.174,0.181c0.331,0.633,1.282,1.365,2.734,2.393c1.656,1.183,7.06,3.797,11.66,4.704
			C23.832,54.778,25.627,55.005,27.43,55.105 M31.8,61.816c0.071-0.519-0.026-1.206-0.283-1.824
			c-0.098-0.457-0.424-0.875-0.841-1.203c-0.673-0.535-1.534-0.853-2.194-0.875c-5.984-0.337-11.813-2.433-16.991-6.071
			c-0.26-0.181-0.357-0.06-0.154,0.192c0.904,1.105,1.795,2.271,2.951,3.171c3.504,2.736,7.579,4.368,11.727,5.1
			c0.888,0.158,1.793,0.274,2.692,0.349c0.201,0.008,0.335,0,0.368,0.061c0.039,0.054,0.042,0.205-0.012,0.397
			c-0.076,0.875-0.122,1.768-0.122,2.659c0,4.125,0.928,8.334,3.049,12.198c0.701,1.273,1.721,2.34,2.673,3.4
			c0.216,0.244,0.343,0.168,0.209-0.108C32.138,73.622,31.069,67.645,31.8,61.816 M36.898,66.465
			c0.012-0.174,0.026-0.359,0.036-0.528c-0.021-1.339-1.061-2.476-2.455-2.606h-0.053c-0.212,1.753-0.306,3.523-0.263,5.3
			c0.087,4.581,1.847,10.252,2.741,12.059c0.777,1.577,1.342,2.628,1.921,3.048c0.116,0.084,0.255,0,0.213-0.129
			C37.162,77.974,36.424,72.161,36.898,66.465 M42.601,67.844c0-0.007,0.076-0.67,0.079-0.679c0.335-2.129-0.404-4.268-1.732-5.776
			c-2.195-2.502-5.854-2.707-7.308-4.293c-1.44-1.593-0.877-5.611-3.094-7.92c-1.393-1.457-3.358-2.379-5.556-2.432l-0.609-0.024
			c-6.307-0.076-12.095-1.251-18.092-3.667C6.08,42.97,5.83,43.161,5.998,43.396c0.55,0.733,1.713,1.786,3.757,2.646
			c6.39,2.707,15.078,3.346,15.103,3.346c3.696,0.184,5.316,3.447,6.16,6.282c0.289,0.968,0.721,1.878,1.22,2.455
			c0.487,0.587,1.306,1.271,2.261,1.738c2.703,1.318,5.971,3.369,5.499,6.967c0,0.015-1.174,8.5,0.406,15.131
			c0.508,2.129,1.266,3.432,1.908,4.087c0.206,0.205,0.439,0,0.389-0.215C41.349,79.639,41.543,73.928,42.601,67.844 M25.172,42.27
			c-0.817,0.19-2.682,0.662-3.902,1.172c-0.198,0.078-0.244,0.428,0.01,0.528c1.368,0.541,4.504,0.892,5.519,0.487
			c1.485-0.58,1.159-3.026,0.388-4.062c-3.38-4.805-5.296-10.559-5.61-16.795c-0.011-0.312-0.159-0.312-0.231,0
			c-0.319,1.381-0.687,2.79-0.687,4.232C20.658,33.175,22.429,38.138,25.172,42.27 M25.992,33.297
			c0.806,1.579,1.723,3.088,2.735,4.537c1.184-0.787,1.55-2.273,0.938-3.461c-0.101-0.147-0.194-0.298-0.294-0.445
			c-3.098-4.786-5.297-10.22-6.343-16.045c-0.025-0.137-0.188-0.145-0.249-0.015c-0.299,0.633-0.289,1.829-0.208,3.567
			C22.658,23.448,23.908,29.22,25.992,33.297 M31.637,32.298c2.109,2.943,0.539,6.212-1.155,8.637
			c-2.076,2.941,0.475,6.671,0.352,4.491c-0.172-3.21,3.882-5.1,4.43-8.905c0.281-1.975-0.184-4.056-1.486-5.771l-0.343-0.474
			c-3.783-4.877-6.391-10.047-8.16-16.138c-0.061-0.205-0.36-0.281-0.442,0c-0.234,0.868-0.346,2.41,0.217,4.52
			C26.836,25.231,31.627,32.283,31.637,32.298 M61.682,40.395c-0.767,1.036-1.095,3.482,0.392,4.062
			c1.015,0.404,4.152,0.054,5.516-0.487c0.253-0.1,0.205-0.45,0.003-0.528c-1.209-0.51-3.08-0.982-3.903-1.172
			c2.754-4.132,4.523-9.096,4.523-14.438c0-1.442-0.37-2.851-0.687-4.232c-0.071-0.312-0.217-0.312-0.233,0
			C66.978,29.836,65.067,35.59,61.682,40.395 M59.205,34.373c-0.618,1.188-0.252,2.674,0.892,3.437
			c1.058-1.425,1.966-2.934,2.775-4.513c2.094-4.077,3.339-9.849,3.426-11.861c0.08-1.738,0.087-2.935-0.211-3.567
			c-0.061-0.13-0.22-0.122-0.242,0.015c-1.052,5.825-3.247,11.259-6.352,16.045L59.205,34.373z M58.029,45.426
			c-0.122,2.18,2.436-1.55,0.355-4.491c-1.699-2.425-3.265-5.694-1.159-8.637c0.015-0.015,4.814-7.067,6.588-13.638
			c0.569-2.111,0.461-3.652,0.217-4.52c-0.076-0.281-0.375-0.205-0.436,0c-1.774,6.091-4.371,11.26-8.168,16.138
			c0,0-0.339,0.474-0.342,0.474c-1.305,1.714-1.766,3.796-1.482,5.771C54.146,40.326,58.207,42.216,58.029,45.426 M44.251,102.744
			c-22.691,0-41.149-22.275-41.149-49.641c0-27.367,18.459-49.634,41.149-49.634s41.149,22.267,41.149,49.634
			C85.401,80.468,66.942,102.744,44.251,102.744 M44.251,1.951c-23.509,0-42.63,22.945-42.63,51.152
			c0,28.204,19.121,51.149,42.63,51.149s42.627-22.945,42.627-51.149C86.878,24.896,67.761,1.951,44.251,1.951 M36.059,52.759
			c-1.08,0-2.007-0.924-2.189-1.32c-0.535,2.501,0.836,3.674,2.835,4.041c-0.342-0.809-0.564-1.663-0.645-2.523V52.759z
			 M36.115,50.822c0.05-0.777,0.062-1.73,0.086-2.469c-1.792-0.199-2.937-1.563-3.174-1.899
			C31.93,48.214,33.181,50.417,36.115,50.822 M52.635,52.918c-0.076,0.853-0.296,1.708-0.648,2.513
			c2.001-0.363,3.282-1.537,2.759-4.038c-0.188,0.396-1.028,1.32-2.11,1.32V52.918z M55.671,46.417
			c-0.24,0.328-1.378,1.692-3.174,1.889c0.029,0.733,0.04,1.701,0.089,2.472C55.516,50.373,56.769,48.17,55.671,46.417
			 M46.484,42.003c5.94,3.415,8.114,0.267,8.114,0.267s2.171,2.591-1.565,3.598c-3.948,1.065-6.621-1.343-7.257-1.807
			C44.599,43.191,44.353,40.783,46.484,42.003 M49.67,38.908c2.279,1.386,3.04,1.425,3.04,1.425s-0.079,2.378-3.481,1.075
			c-1.197-0.465-4.836-2.508-4.22-3.361C46.039,36.613,47.827,37.771,49.67,38.908 M42.219,42.003
			c-5.94,3.415-8.025,0.267-8.025,0.267s-2.261,2.591,1.475,3.598c3.948,1.065,6.621-1.343,7.257-1.807
			C44.103,43.191,44.348,40.783,42.219,42.003 M39.032,38.908c-2.281,1.386-2.948,1.425-2.948,1.425s-0.015,2.378,3.387,1.075
			c1.198-0.465,4.83-2.508,4.222-3.361C42.656,36.613,40.874,37.771,39.032,38.908 M51.209,51.92c-0.1-1.014-0.234-2.843-0.27-3.811
			c-2.795,0-5.758-2.134-6.586-3.47c-0.828,1.336-3.796,3.47-6.589,3.47c-0.039,0.968-0.17,2.797-0.273,3.811
			c-0.191,1.852,0.469,3.774,1.698,5.153c0.637,0.716,1.429,1.411,2.309,1.814c0.071,0.03,0.158,0.061,0.244,0.1l0.42,0.183
			c0.235,0.122,0.374,0.306,0.601,0.472c0.652,0.472,1.563,0.442,1.587,0.442c0.03,0,0.939,0.03,1.59-0.442
			c0.229-0.166,0.364-0.35,0.607-0.472l0.418-0.183c0.089-0.039,0.168-0.069,0.245-0.1c0.878-0.403,1.667-1.098,2.303-1.814
			C50.745,55.694,51.401,53.771,51.209,51.92 M47.621,51.165c-1.594,0-1.929-0.479-1.929-0.479s0.402-1.335,1.926-1.335
			c1.518,0,2.086,1.113,2.086,1.113C49.657,50.632,49.791,51.165,47.621,51.165 M44.386,57.263c-1.339,0-2.428-1.112-2.428-1.432
			c0-0.32,4.859-0.32,4.859,0C46.818,56.151,45.728,57.263,44.386,57.263 M41.079,51.165c-2.163,0-2.032-0.533-2.081-0.701
			c0,0,0.568-1.113,2.093-1.113c1.515,0,1.932,1.335,1.932,1.335S42.677,51.165,41.079,51.165 M44.386,53.208
			c0.697,0,1.257,0.291,1.257,0.526c0,0.237-0.561,0.528-1.257,0.528c-0.688,0-1.249-0.291-1.249-0.528
			C43.137,53.499,43.698,53.208,44.386,53.208 M66.822,54.428c4.582-0.907,9.996-3.522,11.652-4.704
			c1.449-1.028,2.404-1.76,2.718-2.393c0.061-0.12-0.046-0.252-0.168-0.181c-5.326,2.804-11.064,4.466-16.872,5.023
			c-0.179,0.022-0.361,0.039-0.539,0.053c-1.342,0.259-2.297,1.471-2.17,2.88C63.243,55.005,65.037,54.778,66.822,54.428
			 M53.999,79.262c-0.137,0.276,0,0.352,0.208,0.108c0.953-1.059,1.973-2.127,2.674-3.4c2.123-3.864,3.048-8.072,3.048-12.198
			c0-0.89-0.05-1.784-0.122-2.659c-0.05-0.192-0.05-0.343-0.015-0.397c0.035-0.061,0.163-0.053,0.368-0.061
			c0.903-0.075,1.802-0.191,2.696-0.349c4.148-0.733,8.219-2.364,11.728-5.1c1.154-0.9,2.044-2.066,2.943-3.171
			c0.204-0.252,0.112-0.374-0.143-0.192c-5.188,3.638-11.011,5.735-16.996,6.071c-0.658,0.022-1.518,0.341-2.192,0.875
			c-0.422,0.328-0.742,0.746-0.842,1.203c-0.256,0.618-0.353,1.305-0.283,1.824C57.805,67.645,56.737,73.622,53.999,79.262
			 M49.839,83.609c-0.047,0.129,0.096,0.213,0.211,0.129c0.582-0.42,1.144-1.471,1.922-3.048c0.892-1.807,2.648-7.478,2.738-12.059
			c0.044-1.777-0.05-3.547-0.262-5.3h-0.053c-1.396,0.13-2.446,1.267-2.461,2.606c0.015,0.169,0.028,0.353,0.042,0.528
			C52.448,72.161,51.706,77.974,49.839,83.609 M46.169,85.833c-0.046,0.215,0.186,0.42,0.393,0.215
			c0.641-0.655,1.4-1.958,1.901-4.087c1.586-6.631,0.415-15.116,0.415-15.131c-0.482-3.598,2.79-5.649,5.495-6.967
			c0.956-0.467,1.773-1.151,2.261-1.738c0.497-0.577,0.931-1.487,1.219-2.455c0.845-2.835,2.466-6.097,6.16-6.282
			c0.021,0,8.712-0.638,15.102-3.346c2.04-0.86,3.209-1.914,3.758-2.646c0.162-0.235-0.084-0.427-0.289-0.342
			c-5.992,2.417-11.786,3.591-18.097,3.667l-0.605,0.024c-2.201,0.053-4.161,0.975-5.56,2.432c-2.21,2.309-1.647,6.327-3.09,7.92
			c-1.454,1.586-5.113,1.791-7.308,4.293c-1.327,1.508-2.069,3.648-1.734,5.776c0,0.008,0.086,0.672,0.086,0.679
			C47.331,73.928,47.524,79.639,46.169,85.833 M71.662,82.558c-0.079-0.076-0.168-0.061-0.233-0.047
			c-0.231,0.047-0.512,0.069-0.741,0.04c-1.059-0.14-2.027-0.208-3.098-0.337c0.205-0.65,0.241-1.816-0.602-2.594
			c-0.861-0.785-1.997-0.379-2.709,0.442c-0.305,0.353-0.579,0.748-0.884,1.115c-0.177,0.206-0.575,0.618-0.733,0.753
			c-0.122,0.101-0.269,0.199-0.366,0.321c-0.122,0.137-0.162,0.289-0.015,0.428c0.158,0.144,0.28,0.044,0.463-0.161
			c0.31-0.314,0.366-0.267,0.645-0.008l4.717,4.337l0.713-1.051l-2.147-1.975l0.091-0.114c0.132-0.154,0.201-0.229,0.284-0.391
			l2.385,0.259c0.781,0.1,1.375,0.291,1.986-0.42C71.577,82.975,71.738,82.634,71.662,82.558 M66.265,80.751
			c0.579,0.518,1.213,1.342,0.227,2.486c-0.093,0.104-0.144,0.165-0.215,0.226l-2.227-2.041c-0.082-0.076-0.116-0.145,0.004-0.283
			l0.245-0.281C65.042,79.995,65.622,80.162,66.265,80.751 M9.792,69.095c-0.168-0.489-0.302-1.341-0.084-2.203l0.744,0.061
			c-0.265,0.692-0.231,1.55-0.108,1.937c0.306,0.914,0.951,1.41,1.734,1.134c0.391-0.143,0.507-0.586,0.594-1.066
			c0.147-0.746,0.143-1.533,0.438-2.234c0.219-0.555,0.565-1.066,1.346-1.349c1.083-0.381,2.129,0.45,2.543,1.685
			c0.136,0.41,0.233,0.951,0.334,1.654c-0.487,0.205-0.854,0.334-1.148,0.433c-0.147,0.061-0.314,0.101-0.389-0.136
			c-0.048-0.154-0.028-0.284,0.472-0.573c0.211-0.12,0.368-0.503,0.125-1.234c-0.258-0.794-0.805-1.288-1.55-1.03
			c-0.514,0.184-0.587,1.426-0.633,1.907c-0.053,0.535-0.122,1.142-0.368,1.655c-0.226,0.464-0.633,0.861-1.227,1.075
			C11.33,71.266,10.222,70.391,9.792,69.095 M20.269,75.741c-0.061,0.017-0.137,0-0.381,0.032l-0.144-0.517l-0.954-1.991
			l-5.887,2.982l-0.655-1.076l5.999-3.049c-0.259-0.587-0.76-1.608-0.76-1.608c-0.289-0.594-0.366-0.381-0.78-0.259
			c-0.194,0.053-0.391,0.083-0.463-0.062c-0.097-0.212-0.01-0.296,0.181-0.395c0.23-0.122,0.525-0.262,0.817-0.397
			c0.342-0.162,0.454,0,0.564,0.276c0.134,0.305,0.252,0.572,0.44,1.005c0.558,1.296,1.194,2.576,1.8,3.842
			c0.115,0.235,0.283,0.449,0.428,0.655c0.037,0.069,0.084,0.115,0.109,0.169c0.025,0.061,0.089,0.258-0.107,0.359
			C20.377,75.757,20.366,75.75,20.269,75.741 M24.761,82.215c-0.111-0.115-0.294-0.13-0.503-0.071l-6.622,1.87l-0.589-0.633
			c1.431-2.57,2.345-4.254,3.565-6.343c0.1-0.159,0.18-0.244,0.069-0.42c-0.22-0.312-0.194-0.411-0.072-0.51
			c0.138-0.116,0.307-0.078,0.428,0.112c0.145,0.283,0.451,0.712,0.6,0.946c0.183,0.289,0.06,0.519-0.087,0.763L18.5,83.036
			l5.393-1.554c0.345-0.107-0.341-0.748-0.061-0.969c0.137-0.105,0.27-0.044,0.402,0.154c0.156,0.267,0.33,0.533,0.478,0.74
			c0.147,0.198,0.289,0.343,0.487,0.579c0.158,0.176,0.148,0.352,0.01,0.456C25.123,82.511,25.035,82.482,24.761,82.215
			 M29.407,90.263c1.302-1.73,0.841-3.934-0.929-5.351c-0.436-0.35-0.728-0.564-0.985-0.755c-0.211-0.152-0.425-0.305-0.625-0.472
			c-0.215-0.169-0.481-0.413-0.608-0.564c-0.109-0.115-0.216-0.259-0.338-0.359c-0.137-0.108-0.313-0.115-0.429,0.039
			c-0.137,0.173,0.025,0.295,0.209,0.456c0.327,0.298,0.267,0.352,0.044,0.656L21.82,89.12c0.584,0.404,0.95,0.641,1.432,1.129
			c0.215,0.22,0.397,0.428,0.539,0.535C25.814,92.406,28.007,92.125,29.407,90.263 M28.258,89.556
			c-1.13,1.501-2.561,2.104-4.085,0.875c-0.402-0.319-0.691-0.587-0.889-0.86c-0.123-0.162-0.108-0.183,0.06-0.413l3.415-4.522
			c0.154-0.205,0.248-0.205,0.417-0.06l0.748,0.601C29.837,86.704,29.255,88.221,28.258,89.556 M33.518,88.976
			c-0.158-0.054-0.208,0.137-0.276,0.274l-2.799,5.71l-1.144-0.481l2.843-5.801c0.192-0.381,0.165-0.305-0.137-0.533
			c-0.137-0.107-0.338-0.198-0.244-0.381c0.087-0.184,0.244-0.215,0.451-0.091c0.245,0.152,0.673,0.411,0.888,0.518
			c0.215,0.122,0.593,0.283,0.87,0.396c0.208,0.091,0.277,0.244,0.193,0.427C34.092,89.158,33.912,89.104,33.518,88.976
			 M41.868,91.194c-0.172,0.024-0.32,0.115-0.443,0.298L37.3,97.337l-0.849-0.112c-0.432-2.929-0.745-4.743-1.062-7.173
			c-0.018-0.176-0.006-0.298-0.201-0.359c-0.361-0.098-0.399-0.198-0.366-0.352c0.043-0.176,0.198-0.267,0.4-0.183
			c0.288,0.114,0.785,0.251,1.04,0.343c0.31,0.115,0.359,0.367,0.396,0.647l0.727,5.87l3.263-4.695
			c0.204-0.298-0.722-0.359-0.636-0.709c0.047-0.176,0.183-0.205,0.402-0.137c0.281,0.09,1.408,0.183,1.713,0.183
			c0.234,0.007,0.337,0.09,0.307,0.298C42.411,91.103,42.27,91.147,41.868,91.194 M51.645,89.822
			c-0.414,0.198-0.442,0.327-0.295,0.884c0.172,0.665,1.612,6.114,1.612,6.114l-1.307,0.342l-1.422-5.571l-1.443,5.556l-0.595,0.201
			l-3.282-4.865l0.375,5.559l-1.145,0.327l-0.414-6.351c-0.046-0.647-0.141-0.792-0.523-0.823c-0.32-0.03-0.458-0.115-0.482-0.289
			c-0.043-0.269,0.187-0.305,0.303-0.312c0.312-0.01,1.129,0.029,1.399,0.014c0.23-0.007,0.353,0.022,0.536,0.289l3.376,5.145
			l1.53-5.876c0.082-0.289,0.264-0.427,0.475-0.487c0.277-0.071,0.95-0.33,1.241-0.406c0.114-0.03,0.393-0.046,0.429,0.199
			C52.037,89.654,51.915,89.693,51.645,89.822 M62.099,83.539c-0.132,0.26-0.097,0.627-0.046,0.841l1.444,6.632l-0.651,0.572
			c-2.382-1.654-3.965-2.554-5.905-3.957c-0.143-0.108-0.22-0.199-0.392-0.091c-0.314,0.198-0.414,0.168-0.497,0.037
			c-0.1-0.152-0.062-0.327,0.136-0.427c0.274-0.144,0.717-0.42,0.944-0.557c0.296-0.168,0.504-0.024,0.738,0.137l4.751,3.325
			l-1.256-5.581c-0.071-0.359-0.741,0.305-0.929,0.008c-0.097-0.161-0.026-0.276,0.173-0.404c0.35-0.228,0.95-0.856,1.27-1.235
			c0.158-0.176,0.35-0.13,0.453,0.024C62.383,82.953,62.272,83.197,62.099,83.539 M73.797,75.309
			c-0.998-0.649-1.904-0.253-2.594,0.471c0.06-0.738-0.231-1.364-0.902-1.791c-0.756-0.489-1.893-0.107-2.532,0.951
			c-0.216,0.352-0.375,0.717-0.594,1.076c-0.143,0.244-0.402,0.619-0.537,0.778c-0.108,0.122-0.23,0.244-0.306,0.381
			c-0.107,0.168-0.061,0.35,0.086,0.45c0.133,0.076,0.197,0.044,0.403-0.267c0.252-0.374,0.314-0.32,0.626-0.122l0.237,0.161
			l5.199,3.346c0,0,0.443-0.863,0.55-1.029c0.222-0.343,0.442-0.487,0.67-0.878C74.88,77.564,74.886,76.009,73.797,75.309
			 M69.848,75.192c0.595,0.382,1.001,0.917,0.429,1.861l-0.222,0.374l-2.052-1.328c-0.159-0.107-0.217-0.137-0.127-0.281
			l0.097-0.168C68.411,74.926,69.125,74.72,69.848,75.192 M73.24,76.443c0.716,0.458,0.996,1.227,0.535,1.998
			c-0.184,0.312-0.424,0.602-0.658,0.836c-0.072,0.071-0.073,0.071-0.137,0.032l-2.49-1.608l0.204-0.337
			C71.494,76.045,72.396,75.894,73.24,76.443 M70.723,70.322c-0.05,0.168,0.141,0.222,0.27,0.283l5.71,2.743l-0.427,1.198
			l-5.807-2.797c-0.368-0.177-0.292-0.161-0.508,0.168c-0.091,0.144-0.174,0.349-0.359,0.259c-0.18-0.083-0.216-0.244-0.107-0.456
			c0.148-0.262,0.377-0.703,0.483-0.932c0.1-0.237,0.248-0.625,0.355-0.906c0.084-0.23,0.23-0.306,0.406-0.215
			C70.875,69.736,70.835,69.919,70.723,70.322 M78.544,68.865c-0.158,0.487-0.539,1.252-1.219,1.8l-0.55-0.503
			c0.609-0.396,1.083-1.098,1.209-1.487c0.291-0.914,0.072-1.716-0.721-1.973c-0.391-0.138-0.751,0.152-1.097,0.479
			c-0.555,0.504-1.001,1.137-1.652,1.518c-0.499,0.305-1.069,0.496-1.863,0.237c-1.084-0.368-1.439-1.678-1.05-2.929
			c0.136-0.41,0.367-0.897,0.698-1.525c0.511,0.138,0.878,0.26,1.172,0.359c0.156,0.054,0.306,0.122,0.235,0.359
			c-0.051,0.154-0.143,0.244-0.712,0.168c-0.244-0.046-0.589,0.162-0.828,0.9c-0.248,0.794-0.101,1.54,0.64,1.784
			c0.526,0.183,1.306-0.77,1.616-1.122c0.356-0.396,0.767-0.846,1.264-1.088c0.454-0.237,1.012-0.305,1.601-0.108
			C78.583,66.169,78.957,67.562,78.544,68.865"/>
	</g>
	<g>
		<path fill="#822433" d="M169.875,26.299h-4.16l0.694,1.443c0.435,0.877,0.506,1.504,0.118,2.314L152.67,62.138l3.026-0.442
			l5.737-14.07h13.36l5.926,14.638l4.224-0.568l-14.429-34.952C170.372,26.432,170.126,26.299,169.875,26.299z M162.123,46.007
			l6.237-14.509l5.739,14.509H162.123z"/>
		<path fill="#822433" d="M126.548,27.808c0-5.94,6.25-9.197,11.102-9.197c5.042,0,8.276,2,8.715,4.44
			c0.504,3.004,0.687,3.131,1.065,3.131c0.439,0,0.439-0.127,0.439-0.94c0-1.936-0.06-4.437-0.184-6.885
			c-3.218-0.618-7.068-1.116-9.589-1.116c-10.665,0-14.506,6.366-14.395,12.148c0.091,4.751,1.737,7.979,6.563,10.305
			c3.279,1.588,6.867,3.228,10.051,4.569c3.897,1.656,6.957,3.308,6.957,7.359c0,6.251-5.747,9.766-11.853,9.766
			c-2.718,0-9.019-1.626-11.411-3.688l-0.886,1.807c3.396,2.313,9.393,3.256,12.297,3.256c7.743,0,14.994-4.631,14.994-12.508
			C150.413,35.246,126.548,38.687,126.548,27.808z"/>
		<path fill="#822433" d="M201.295,26.596c-2.147,0-5.485,0.249-7.628,0.249c-1.385,0-3.403-0.127-4.416-0.313
			c-1.011-0.187-1.757-0.303-2.148-0.303c-0.377,0-0.62,0.181-0.62,0.616c0,0.317,0.068,0.748,1.19,0.805
			c2.9,0.126,3.031,0.82,3.031,3.304v31.242l4.15-0.5V30.08c0-1.611,0.262-1.919,1.774-1.919c8.384,0,10.902,3.227,10.902,8.97
			c0,4.563-2.081,8.189-8.191,8.189c-1.382,0-2.71-0.749-2.961-0.749c-0.188,0-0.385,0.372-0.385,0.496
			c0,0.625,2.083,1.752,3.66,1.752c7.251,0,12.032-4.436,12.032-10.878C211.684,30.018,206.078,26.596,201.295,26.596z"/>
		<path fill="#822433" d="M349.533,62.406l4.218-0.566l-14.437-34.956c-0.123-0.314-0.377-0.438-0.634-0.438h-4.154l0.687,1.439
			c0.447,0.878,0.512,1.498,0.133,2.318l-12.703,29.392c-5.224-0.525-17.14-0.956-20.933-0.928l20.965-30.737l-0.316-1.129h-19.179
			c-4.152,0-4.728-0.37-4.915-0.37c-0.248,0-0.371,0.247-0.436,0.562l-0.51,2.376c-0.061,0.248,0.126,0.433,0.251,0.433
			c0.193,0,1.334-1.307,3.412-1.307h16.747l-21.644,31.735c-0.191,0.183-0.191,0.312-0.191,0.565c0,0.251,0.132,0.37,0.449,0.37
			c3.12-1.07,22.583-0.198,28.161,0.673l5.808-14.185h13.24L349.533,62.406z M337.18,31.639l5.72,14.409h-11.93L337.18,31.639z"/>
		<path fill="#822433" d="M294.079,26.182c-0.821,0-3.343,0.497-4.353,0.497c-1.077,0-3.968-0.497-4.852-0.497
			c-0.377,0-0.629,0.187-0.629,0.62c0,0.314,0.068,0.757,1.199,0.814c2.896,0.126,3.019,0.814,3.019,3.318v24.636L268.109,27.31
			c-0.183-0.256-0.374-0.443-0.503-0.632c-1.583-0.125-5.611-0.247-7.758-0.497c-0.371-0.065-0.569,0.187-0.569,0.62
			c0,0.314,0,0.757,1.14,0.814c2.904,0.126,3.027,0.814,3.027,3.318v31.262l1.947-0.558V31.433h0.061l22.573,30.763l2.455-0.5
			V30.934c0-2.504,0.127-3.192,3.026-3.318c1.134-0.057,1.205-0.5,1.205-0.814C294.713,26.369,294.45,26.182,294.079,26.182z"/>
		<path fill="#822433" d="M255.358,55.826c-0.312,0-0.753,0.123-1.191,2.497c-0.386,2.314-1.27,2.002-2.144,2.192
			c-1.334,0.242-4.232,0.307-5.995,0.307c-1.767,0-2.833-0.125-4.092-0.307c-1.582-0.255-1.64-0.697-1.64-2.756V44.942h10.724h0.368
			l-0.039-1.383h-0.33h-10.724V28.997c0-0.626,0.375-0.878,1.32-0.878h6.62c0.309,0,1.444,0,2.019,0.127
			c0.881,0.184,1.768-0.066,2.142,2.252c0.442,2.371,0.879,2.501,1.199,2.501c0.381,0,0.381-0.13,0.381-0.752
			c0-1.313-0.065-2.943-0.136-4.567c-0.061-1.248-0.309-1.248-1.444-1.185c-1.64,0.06-2.966,0.122-5.235,0.184
			c-1.954,0.065-6.68,0.123-8.322,0.123c-1.386,0-3.148-0.123-4.16-0.307c-1.008-0.195-1.76-0.313-2.141-0.313
			c-0.378,0-0.627,0.251-0.627,0.685c0,0.309,0,0.692,1.127,0.749c2.898,0.126,3.092,0.814,3.092,3.318v31.262l3.475-0.238
			c1.627,0,5.861,0.058,7.805,0.119c2.268,0.061,5.107,0.187,6.755,0.247c1.137,0.064,1.383,0,1.442-1.249
			c0.065-1.63,0.13-3.193,0.13-4.506C255.738,55.949,255.738,55.826,255.358,55.826z"/>
		<path fill="#822433" d="M226.274,26.554c-1.518,0.125-3.535,0.248-4.731,0.248c-1.198,0-3.595-0.123-5.113-0.248
			c-0.627-0.06-0.748,0.125-0.748,0.5c0,0.313,0.314,0.688,2.399,1.065c1.059,0.191,1.255,1.5,1.255,2.748v31.271l4.164-0.384
			V30.867c0-1.185,0.125-2.556,1.381-2.748c1.636-0.252,2.148-0.752,2.148-1.065C227.029,26.679,226.895,26.495,226.274,26.554z"/>
	</g>
	<path fill="#822433" d="M263.911,88.616c-0.67,0-2.072-0.324-3.199-0.246l-1.521,0.101V75.96c0-0.951,0-1.148-1.07-1.199
		c-0.5-0.025-0.596-0.126-0.596-0.324c0-0.223,0.122-0.35,0.368-0.35c0.277,0,0.605,0.075,0.871,0.127
		c0.403,0.073,1.127,0.122,1.649,0.122c0.5,0,1-0.024,1.497-0.048c0.63-0.025,1.329-0.051,2.403-0.051
		c4.24,0,7.384,2.748,7.384,6.897C271.698,85.57,268.782,88.616,263.911,88.616 M263.763,74.96h-1.852
		c-0.569,0-0.814,0.226-0.814,0.878v10.935c0,0.771,0.022,0.821,0.546,0.972c0.647,0.197,1.447,0.249,2.447,0.249
		c3.966,0,5.513-2.771,5.513-6.568C269.603,78.104,268.678,74.96,263.763,74.96"/>
	<path fill="#822433" d="M278.347,74.96c-0.456,0.073-0.456,0.576-0.456,0.978v12.354l-1.896,0.151V75.938
		c0-0.424-0.025-0.904-0.4-0.978c-0.799-0.123-1.051-0.148-1.051-0.397c0-0.227,0.109-0.349,0.429-0.327
		c0.6,0.051,1.547,0.1,2.022,0.1c0.474,0,1.275-0.048,1.872-0.1c0.328-0.022,0.431,0.1,0.431,0.327
		C279.298,74.784,278.966,74.863,278.347,74.96"/>
	<path fill="#822433" d="M301.026,88.769c-0.098,0.098-0.749,0.15-1.173,0.076c-0.924-0.154-1.525-0.352-2.174-1.328l-1.072-1.595
		l-3.396-5.466c-0.523,0.098-0.647,0.15-1.698,0.15h-0.669v7.639l-2.001,0.276V72.716c0-1.201-0.024-1.45-1.399-1.523
		c-0.573-0.025-0.695-0.05-0.695-0.301c0-0.323,0.195-0.374,0.417-0.374c0.223,0,0.605,0.078,1.105,0.147
		c0.499,0.078,1.619,0.176,2.293,0.176c1.123,0,2.275-0.15,3.396-0.15c2.5,0,4.643,1.476,4.643,4.094
		c0,2.526-1.922,4.671-3.473,5.168l3.098,5.067c0.9,1.45,1.397,2.421,2.75,3.375c0.172,0.125,0.195,0.273,0.047,0.399V88.769z
		 M292.584,71.342h-1.098c-0.421,0-0.641,0.325-0.641,0.85v7.664c0.396,0.048,0.569,0.078,1.07,0.078c3.94,0,4.545-2.8,4.545-4.775
		C296.46,72.84,295.533,71.342,292.584,71.342"/>
	<path fill="#822433" d="M310.042,88.615c-4.265,0-7.434-3.045-7.434-7.264c0-4.444,3.742-7.265,7.434-7.265
		c3.872,0,7.444,2.622,7.444,7.265C317.485,85.57,314.315,88.615,310.042,88.615 M310.042,74.785c-2.994,0-5.339,2.199-5.339,6.541
		c0,3.822,1.793,6.596,5.339,6.596c3.824,0,5.345-2.774,5.345-6.596C315.387,76.884,312.786,74.785,310.042,74.785"/>
	<path fill="#822433" d="M337.805,74.76c-1.22,0.053-1.199,0.525-1.076,1.649c0.151,1.32,1.428,11.858,1.428,11.858l-2.122,0.202
		l-1.252-11.612l-4.668,10.76l-0.871,0.152l-5.269-10.961l-0.897,11.458l-1.802,0.224c1.1-14.358,0.975-11.986,1.029-12.554
		c0.097-0.906,0-1.126-1.079-1.179c-0.523-0.025-0.6-0.22-0.6-0.393c0-0.28,0.202-0.305,0.403-0.28c0.601,0.075,2,0.126,2.525,0.176
		c0.346,0.024,0.5,0.104,0.748,0.601l5.466,11.304l4.796-11.259c0.195-0.472,0.497-0.623,0.845-0.647
		c0.548-0.05,1.924-0.075,2.497-0.152c0.226-0.024,0.5,0.051,0.5,0.299C338.405,74.588,338.331,74.735,337.805,74.76"/>
	<path fill="#822433" d="M352.076,88.492l-2.346-5.744h-5.142l-2.249,5.52l-1.503,0.202l5.571-12.784
		c0.127-0.298,0.104-0.475-0.051-0.799l-0.346-0.753h1.842c0.155,0,0.306,0.101,0.378,0.253L354,88.243L352.076,88.492z
		 M347.254,76.507l-2.268,5.495h4.368L347.254,76.507z"/>
	<path fill="#822433" d="M138.457,71.416c-0.579,0.098-0.579,0.824-0.604,1.273c0,0.176-0.126,6.44-0.497,9.362
		c-0.277,2.072-1.177,6.64-6.266,6.64c-5.117,0-6.445-3.99-6.787-6.689c-0.205-1.447-0.277-5.841-0.277-8.114
		c0-0.721-0.048-1.199-0.048-1.199c-0.025-0.551-0.025-1.197-0.5-1.273c-1.148-0.201-1.3-0.224-1.3-0.399
		c0-0.301,0.176-0.327,0.497-0.301c0.752,0.051,1.771,0.101,2.375,0.101c0.593,0,1.419-0.05,2.166-0.101
		c0.334-0.026,0.503,0,0.503,0.301c0,0.174-0.226,0.249-1.148,0.399c-0.525,0.098-0.626,0.65-0.597,1.273
		c0,0,0.072,5.742,0.22,8.562c0.252,4.394,2.127,6.669,4.897,6.669c3.415,0,4.988-2.799,5.24-6.467
		c0.202-2.896,0.202-5.545,0.202-8.211v-0.554c0-0.551-0.026-1.197-0.503-1.273c-1.148-0.201-1.298-0.224-1.298-0.399
		c0-0.301,0.174-0.327,0.503-0.301c0.745,0.051,1.516,0.101,2.122,0.101c0.601,0,1-0.05,1.749-0.101
		c0.323-0.026,0.497,0,0.497,0.301C139.602,71.192,139.379,71.267,138.457,71.416"/>
	<path fill="#822433" d="M155.426,74.76c-1.069,0.053-1.069,0.249-1.069,1.201v1.221v11.061l-1.149,0.249l-8.785-11.881v11.606
		l-1.028,0.302v-12.11v-0.449c0-0.951,0-1.148-1.075-1.201c-0.522-0.025-0.572-0.126-0.572-0.299c0-0.226,0.1-0.399,0.378-0.374
		c0.843,0.101,2.073,0.148,2.739,0.199l8.443,11.559v-8.664v-1.221c0-0.951,0-1.148-1.076-1.201
		c-0.497-0.025-0.598-0.098-0.598-0.299c0-0.248,0.148-0.374,0.375-0.374c0.346,0,1.498,0.199,1.925,0.199
		c0.397,0,1.395-0.199,1.723-0.199c0.226,0,0.374,0.126,0.374,0.374C156.031,74.662,155.931,74.735,155.426,74.76"/>
	<path fill="#822433" d="M162.321,74.96c-0.445,0.073-0.445,0.576-0.445,0.978v12.354l-1.904,0.151V75.938
		c0-0.424-0.026-0.904-0.399-0.978c-0.799-0.123-1.048-0.148-1.048-0.397c0-0.227,0.101-0.349,0.42-0.327
		c0.602,0.051,1.552,0.1,2.026,0.1c0.475,0,1.275-0.048,1.875-0.1c0.325-0.022,0.421,0.1,0.421,0.327
		C163.267,74.784,162.95,74.863,162.321,74.96"/>
	<path fill="#822433" d="M178.651,74.864c-0.454,0.073-0.704,0.447-0.875,0.87l-4.991,12.559l-1.328,0.151l-5.016-12.459
		c-0.125-0.277-0.231-0.699-0.399-0.951c-0.101-0.169-0.253-0.248-0.577-0.273c-0.5-0.024-0.596-0.098-0.596-0.299
		c0-0.226,0.15-0.399,0.399-0.374c0.595,0.075,1.594,0.101,2.119,0.148c0.548,0.051,0.699,0.45,0.852,0.875l4.293,11.36
		l4.268-10.763c0.126-0.296-0.072-0.698-0.422-0.746c-0.95-0.148-1.073-0.299-1.073-0.421c0-0.204,0.071-0.325,0.424-0.305
		c0.598,0.051,1.224,0.101,1.696,0.101c0.478,0,0.87-0.05,1.472-0.101c0.352-0.021,0.424,0.101,0.424,0.305
		C179.319,74.685,179.171,74.76,178.651,74.864"/>
	<path fill="#822433" d="M189.364,87.921c-0.022,0.572-0.198,0.622-0.699,0.598c-1.922-0.075-3.843-0.276-5.769-0.15l-1.494,0.101
		V75.939c0-0.953-0.025-1.155-1.107-1.203c-0.49-0.026-0.571-0.101-0.571-0.298c0-0.224,0.127-0.35,0.381-0.35
		c0.27,0,0.595,0.073,0.871,0.126c0.4,0.073,1.097,0.122,1.624,0.122c1.799,0,3.57-0.048,5.363-0.122
		c0.503-0.025,0.673,0,0.701,0.571c0.024,0.652,0.05,1.303,0.05,1.8c0,0.377-0.078,0.424-0.271,0.424
		c-0.428,0-0.328-1.523-0.755-1.796c-0.32-0.202-1.246-0.274-1.449-0.274h-2.541c-0.377,0-0.399,0.072-0.399,0.222v5.821h2.664
		c0.328,0,1.029-0.026,1.102-0.45c0.176-0.922,0.251-1.098,0.474-1.098c0.277,0,0.301,0.176,0.277,0.424
		c-0.048,0.572-0.102,0.997-0.102,1.449c0,0.447,0.054,0.897,0.102,1.469c0.024,0.251,0,0.429-0.277,0.429
		c-0.223,0-0.298-0.179-0.474-1.1c-0.073-0.425-0.676-0.474-1.102-0.474H183.3v5.091c0,0.796,0.022,0.899,0.547,0.974
		c0.478,0.078,0.903,0.126,1.6,0.126c0.449,0,2.617-0.024,2.918-0.226c0.427-0.271,0.324-1.871,0.773-1.871
		c0.205,0,0.274,0.048,0.274,0.421C189.412,86.644,189.391,87.271,189.364,87.921"/>
	<path fill="#822433" d="M203.259,88.741c-0.904,0-1.576-0.32-2.101-1.072l-0.877-1.274l-2.814-4.292
		c-0.42,0.097-0.569,0.097-1.047,0.097h-0.526v6.068l-1.899,0.224V75.96c0-0.926-0.024-1.148-1.095-1.199
		c-0.5-0.025-0.577-0.126-0.577-0.299c0-0.248,0.151-0.375,0.375-0.375c0.27,0,0.598,0.075,0.877,0.127
		c0.397,0.073,1.546,0.122,2.07,0.122c0.9,0,1.822-0.1,2.718-0.1c2,0,3.869,1.154,3.869,3.27c0,2.324-1.893,3.745-2.995,4.149
		c3.198,4.765,2.495,3.718,3.727,5.589c0.174,0.273,0.544,0.677,0.848,0.949c0.174,0.148,0.346,0.177,0.346,0.377
		C204.158,88.741,203.611,88.741,203.259,88.741 M197.27,74.888h-0.724c-0.5,0-0.651,0.244-0.651,0.597v6.02
		c0.299,0.022,0.45,0.05,0.849,0.05c3.121,0,3.468-2.124,3.468-3.698C200.211,76.007,199.611,74.888,197.27,74.888"/>
	<path fill="#822433" d="M210.178,88.616c-0.926,0-2.497-0.276-3.668-1.07l0.375-0.875c0.871,0.751,2.466,1.251,3.293,1.251
		c1.9,0,3.371-0.953,3.371-2.824c0-0.994-0.872-1.573-1.647-2.022c-1.251-0.724-2.595-1.223-3.668-2.223
		c-0.827-0.748-1.473-1.642-1.473-3.243c0-2.095,1.972-3.522,4.372-3.522c0.792,0,1.792,0.148,2.914,0.374
		c0.054,0.875,0.054,1.648,0.054,2.246c0,0.276,0,0.427-0.251,0.427c-0.249,0-0.325-0.151-0.476-1.073
		c-0.122-0.672-0.845-1.224-2.368-1.224c-1.654,0-3.073,0.776-3.073,2.545c0,0.55,0.32,0.875,0.726,1.249
		c0.623,0.6,1.645,1.022,2.418,1.4c0.951,0.446,1.925,0.949,2.653,1.692c0.644,0.676,1.069,1.655,1.069,2.849
		C214.797,87.144,212.676,88.616,210.178,88.616"/>
	<path fill="#822433" d="M221.311,74.96c-0.445,0.073-0.445,0.576-0.445,0.978v12.354l-1.906,0.151V75.938
		c0-0.424-0.019-0.904-0.396-0.978c-0.796-0.123-1.05-0.148-1.05-0.397c0-0.227,0.102-0.349,0.425-0.327
		c0.601,0.051,1.545,0.1,2.021,0.1c0.481,0,1.275-0.048,1.879-0.1c0.324-0.022,0.418,0.1,0.418,0.327
		C222.258,74.784,221.941,74.863,221.311,74.96"/>
	<path fill="#822433" d="M236.652,75.311l-0.798-0.152h-4.463v13.134l-1.907,0.199V75.159c-1.172-0.026-3.517,0-3.517,0
		c-1.044,0-1.174,0.23-1.269,0.751c-0.051,0.251,0,1.098-0.375,1.098h-0.051c-0.249,0-0.301-0.15-0.301-0.424
		c0-0.497,0-1.148,0.025-1.799c0.026-0.572,0.199-0.597,0.702-0.572c0.649,0.022,1.198,0.05,2.095,0.073
		c2.67,0.101,5.395,0.048,8.065,0.048c0.695,0,1.489-0.248,1.84-0.248c0.104,0,0.276,0.047,0.276,0.248
		C236.975,74.709,236.85,74.76,236.652,75.311"/>
	<path fill-rule="evenodd" clip-rule="evenodd" fill="#822433" d="M244.352,73.197h0.706l-2.941-2.94
		c-0.325-0.321-0.54-0.457-0.764-0.457c-0.363,0-0.705,0.259-0.705,0.742c0,0.298,0.147,0.46,0.866,0.904L244.352,73.197z
		 M243.356,76.507l-2.277,5.495h4.376L243.356,76.507z M248.17,88.493l-2.346-5.744h-5.142l-2.248,5.52l-1.5,0.202l5.568-12.784
		c0.125-0.298,0.1-0.475-0.048-0.799l-0.349-0.753h1.847c0.145,0,0.298,0.101,0.379,0.253l5.765,13.855L248.17,88.493z"/>
</g>
</svg>
