<?xml version="1.0" encoding="UTF-8" standalone="no"?>
<svg
   id="Layer_1"
   viewBox="0 0 740.00001 215.55556"
   version="1.1"
   sodipodi:docname="uob-logo-new.svg"
   width="333"
   height="97"
   inkscape:version="1.2.2 (732a01da63, 2022-12-09)"
   xmlns:inkscape="http://www.inkscape.org/namespaces/inkscape"
   xmlns:sodipodi="http://sodipodi.sourceforge.net/DTD/sodipodi-0.dtd"
   xmlns="http://www.w3.org/2000/svg"
   xmlns:svg="http://www.w3.org/2000/svg">
  <sodipodi:namedview
     id="namedview4813"
     pagecolor="#ffffff"
     bordercolor="#000000"
     borderopacity="0.25"
     inkscape:showpageshadow="2"
     inkscape:pageopacity="0.0"
     inkscape:pagecheckerboard="0"
     inkscape:deskcolor="#d1d1d1"
     showgrid="false"
     inkscape:zoom="1.7700789"
     inkscape:cx="370.04001"
     inkscape:cy="107.05738"
     inkscape:window-width="1920"
     inkscape:window-height="1001"
     inkscape:window-x="-9"
     inkscape:window-y="-9"
     inkscape:window-maximized="1"
     inkscape:current-layer="Layer_1" />
  <defs
     id="defs4758">
    <style
       id="style4756">.cls-1{fill:#1d1d1b;}.cls-1,.cls-2{stroke-width:0px;}.cls-2{fill:#b01c2e;}</style>
  </defs>
  <path
     class="cls-1"
     d="m 264.73,133.52 c 3.16,-0.13 8.34,-0.38 11.11,-0.38 15.53,0 20.83,8.08 20.83,16.92 0,9.85 -6.06,14.65 -18.18,14.65 h -13.77 v -31.19 z m -10.48,64.14 c 0,7.96 -2.02,10.36 -12.37,10.36 h -2.91 v 2.4 h 46.22 c 20.33,0 27.27,-14.02 27.27,-23.99 0,-9.97 -6.94,-17.55 -18.81,-21.09 v -0.25 c 8.46,-1.52 14.39,-8.21 14.39,-15.4 0,-6.06 -2.52,-10.36 -7.7,-14.02 -4.55,-3.29 -14.27,-4.93 -25.38,-4.93 -2.4,0 -12,0.12 -18.95,0.38 -3.66,0.13 -12.37,0.63 -15.91,0.75 v 2.4 h 4.42 c 8.84,0 9.73,3.79 9.73,10.98 v 52.4 z m 10.48,-30.56 h 13.64 c 14.77,0 22.23,9.98 22.23,19.7 0,9.72 -4.8,20.2 -21.47,20.2 -10.61,0 -14.4,-3.41 -14.4,-13 z"
     id="path4760" />
  <path
     class="cls-1"
     d="m 440.36,134.28 v -2.4 h -30.69 v 2.4 c 7.07,0.38 9.47,2.27 9.47,9.09 v 53.79 c 0,8.21 -1.56,10.34 -8.79,10.82 -9.63,-0.51 -13.72,-4.28 -20.63,-11.19 l -9.97,-9.98 c -5.93,-5.94 -9.72,-9.48 -14.39,-13.13 10.35,-3.03 16.79,-10.99 16.79,-20.46 0,-12.88 -10.48,-22.48 -33.84,-22.48 -8.21,0 -10.74,0.12 -15.91,0.38 -5.18,0.25 -12.88,0.75 -15.91,0.75 v 2.4 h 2.78 c 7.32,0 9.47,2.27 9.47,10.1 v 53.16 c 0,8.46 -2.65,10.48 -10.1,10.48 h -2.15 v 2.4 h 35.74 v -2.4 h -2.91 c -7.07,0 -10.1,-1.9 -10.1,-9.47 V 177.2 c 2.02,0.13 3.66,0.26 6.44,0.26 3.41,0 5.43,-0.13 8.59,-0.26 3.03,2.02 7.46,5.68 13.01,11.24 l 8.33,8.34 c 10.92,10.92 15.57,14.38 36.14,13.63 h 28.63 v -2.4 c -8.71,0 -10.73,-2.53 -10.73,-9.98 v -53.54 c 0,-8.46 2.78,-10.23 10.73,-10.23 z m -93.3,40.79 c -2.91,0 -4.8,0.13 -7.83,-0.25 V 133.4 c 2.27,-0.25 3.91,-0.25 6.31,-0.25 19.46,0 24.75,9.1 24.75,20.84 0,15.15 -9.21,21.09 -23.24,21.09 z"
     id="path4762" />
  <path
     class="cls-1"
     d="m 448.95,191.23 c 2.66,11.24 11.49,17.8 21.34,17.8 8.46,0 17.42,-4.92 17.42,-14.9 0,-18.19 -40.53,-23.74 -40.53,-45.84 0,-10.49 9.6,-18.31 22.48,-18.31 10.6,0 12.75,3.16 17.17,3.16 1.01,0 1.51,-0.25 2.27,-1.26 h 2.02 l 2.15,16.04 h -2.15 c -3.54,-9.09 -11.62,-14.9 -20.33,-14.9 -8.71,0 -14.14,4.79 -14.14,11.87 0,17.93 40.54,22.73 40.54,45.96 0,12.38 -10.99,21.6 -25.76,21.6 -6.95,0 -15.78,-3.41 -17.55,-3.41 -1.14,0 -2.03,0.63 -2.53,1.39 h -2.15 l -2.65,-19.19 h 2.4 z"
     id="path4764" />
  <path
     class="cls-1"
     d="m 545.8,198.8 c 0,6.82 2.27,9.22 9.97,9.22 h 4.68 v 2.4 h -39.78 v -2.4 h 4.68 c 7.7,0 9.97,-2.4 9.97,-9.22 v -62.38 h -21.97 c -5.05,0 -7.32,2.9 -9.22,14.01 h -2.27 l 2.02,-20.46 h 2.4 c 0.13,0.76 0.63,1.27 1.39,1.52 0.76,0.26 1.64,0.38 2.53,0.38 h 60.74 c 1.77,0 3.66,-0.38 3.92,-1.89 h 2.4 l 2.02,20.46 H 577 c -1.89,-11.11 -4.16,-14.01 -9.21,-14.01 h -21.97 v 62.38 z"
     id="path4766" />
  <path
     class="cls-1"
     d="m 659.85,173.17 c 0,17.93 -9.85,36.11 -30.43,36.11 -20.58,0 -36.37,-16.66 -36.37,-40.28 0,-15.16 8.83,-35.86 31.06,-35.86 20.84,0 35.73,16.55 35.73,40.03 z m 11.87,-4.16 c 0,-22.73 -20.46,-39.02 -44.32,-39.02 -26.89,0 -46.22,17.8 -46.22,42.93 0,23.62 20.84,39.53 45.59,39.53 24.75,0 44.95,-17.93 44.95,-43.44 z"
     id="path4768" />
  <path
     class="cls-1"
     d="m 730.39,210.42 h -56.44 v -2.4 h 4.17 c 5.81,0 7.95,-1.9 7.95,-8.34 v -55.94 c 0,-6.69 -2.02,-9.47 -9.97,-9.47 h -1.77 v -2.4 h 37.25 v 2.4 h -4.68 c -8.2,0 -10.35,0.88 -10.35,8.71 v 58.21 c 0,3.41 1.39,4.68 5.05,4.68 h 18.56 c 7.45,0 9.72,-2.91 17.68,-13.89 h 2.27 l -9.72,18.43 z"
     id="path4770" />
  <path
     class="cls-2"
     d="m 140.51,95.78 c -0.09,-7.35 -2.59,-22.37 -20.17,-30.9 17.86,5.67 26.44,20.76 27.32,32.01 18.75,3.74 35.38,12.56 62.39,3.24 l 0.09,-0.06 c 0,0 -35.54,0.32 -50.41,-10.43 7.68,0.29 16.51,-1.45 19.41,-5.79 3.09,-4.63 3.41,-9.41 11.01,-9.66 4.27,-0.14 18.76,0.94 20.28,-20.33 -4.63,7.82 -9.66,11.06 -17.24,9.13 -4.84,-1.23 -13.67,-4.94 -19.99,2.61 -5.21,6.23 -10.81,9.46 -19.75,8.5 3.59,-4.82 56.84,-73.96 56.84,-73.96 0,0 -68.22,54.75 -71.99,57.94 -0.72,-9.99 2.27,-13.66 6.28,-18.06 3.28,-3.59 8.98,-8.46 4.44,-18.73 -3.67,-8.3 -3.19,-13.33 6.81,-21.29 -7.97,0.58 -20.12,5.94 -18.69,20.57 0.87,8.84 -5.39,9.6 -7.68,10.86 -5.94,3.28 -6.71,12.84 -6.9,20.28 -0.68,-2.41 -9.32,-39.57 -12.36,-51.59 0,0 0,99.97 0,99.97 h 0.23 c 11.58,-4.56 21.21,-5.26 30.08,-4.3 z"
     id="path4772" />
  <path
     class="cls-2"
     d="m 209.99,110.36 c -45.05,14.77 -60.4,-16.51 -99.8,0 -0.02,0 0,100.09 0,100.09 42.87,-15.93 44.47,13.47 99.8,0 0,0 0,-100.09 0,-100.09 z m -81.7,51.25 c -0.23,0.11 -0.35,0.34 -0.42,0.47 -0.42,0.87 -1.69,5.38 -2.03,6.64 -0.34,1.25 -0.7,1.45 -1.4,1.66 -0.58,0.18 -0.66,1.57 -0.12,1.74 1.64,0.51 1.28,1.55 1.16,1.8 0,0.3 -0.55,3.18 -2.59,5.22 -1.06,-2.07 -1.32,-4.15 -1.51,-4.63 -0.19,-0.48 -0.27,-1.11 -0.22,-1.59 0.05,-0.48 -0.11,-2.56 -0.16,-3.09 -0.05,-0.53 0.19,-1 0.41,-1.4 0.41,-0.75 3.21,-6.04 4.47,-9.27 0.47,-1.2 3.26,-2.39 3.93,-2.1 0.76,0.32 1.67,1.42 5.72,3.07 0.1,1.11 0.34,3.33 0.92,4.25 -0.92,0.38 -2.41,0.53 -2.41,0.53 0,0 -3.35,-2.71 -3.99,-3.36 -0.1,-0.11 -0.44,-0.3 -0.62,-0.27 -0.36,0.06 -0.79,0.18 -1.15,0.34 z m 37.97,32.53 c -0.68,-0.55 -1.77,0.4 -1.21,1.28 0.68,1.07 0.63,1.69 0.63,1.69 0,0 -2.17,2.56 -5.21,3.04 -0.29,-0.29 0.77,-4.27 1.88,-6.47 0.91,-1.8 1.3,-2.15 2.53,-2.73 1.23,-0.58 6.16,-3.07 7.75,-4.37 1.59,-1.3 2.25,-3.24 2.25,-3.24 0,0 1.47,1.93 3.4,3.84 -0.43,0.7 -9.92,6.73 -10.36,7.1 -0.43,0.36 -1.15,0.28 -1.67,-0.14 z m 21.77,-5.09 c -0.36,0.65 -4.61,7.87 -5.7,10.45 -0.58,1.37 -1.23,1.09 -1.59,1.16 -0.36,0.07 -1.52,0.29 -1.4,1.57 0.09,0.91 -0.08,1.29 -0.08,1.29 h -7.31 c 0.31,-1.06 1.03,-2.43 3.87,-3.95 0.91,-0.48 1.98,-1.49 2.8,-2.7 0.43,-0.63 2.94,-5.14 3.38,-6.18 0.35,-0.84 0.24,-2.12 -0.19,-2.85 -0.44,-0.72 -1.11,-1.98 -2.08,-2.75 -3.24,-2.59 -5.17,-4.64 -7.89,-9.92 -0.45,-0.87 0.09,-1.85 -4.61,-0.6 -11.25,2.99 -19.43,-1.13 -19.8,-1.45 0.36,-2.15 1.23,-3.96 -0.04,-4.9 -0.69,1.38 -1.38,2.35 -2.57,3.69 -0.39,0.44 -0.87,0.29 -1.74,0.22 -0.87,-0.07 -6.52,-0.83 -7.46,-1.05 -0.39,-0.09 -1.99,0.4 -1.05,2.24 0.16,0.31 1.44,2.58 2.79,4.6 0.72,1.09 -0.04,1.77 0.15,2.61 0.18,0.81 0.58,1.09 0.87,1.01 0.29,-0.07 1.49,-1.51 2.44,-0.51 0.92,0.97 1.55,3.86 1.74,6.8 -0.8,0.07 -1.93,-0.29 -2.95,-1.08 -0.95,-0.74 -1.8,-2.13 -2.82,-2.9 -1.01,-0.76 -1.48,-0.73 -2.21,-1.38 -0.65,-0.59 -1.3,-1.02 -1.52,-2.83 -0.22,-1.81 -2.85,-7.7 -3.26,-8.37 -0.58,-0.94 0.53,-2.83 1.01,-3.41 0.43,-0.51 1.32,-0.57 2.38,-0.81 1.58,-0.36 4.25,-1.49 5.15,-1.8 -3.51,-6.65 0.69,-10.71 1.2,-11.04 1.18,-5.75 3.4,-8.91 4.27,-10.14 2.08,-0.44 4.14,-0.67 5.14,-4.85 0.56,-2.35 -0.51,-4.85 -1.3,-5.65 0.43,2.17 0.31,4.57 -0.87,6.34 -1.67,2.5 -4.47,2.16 -5.05,2.16 -0.58,0 -1.15,-0.11 -1.59,0.36 -0.39,0.41 -1.67,1.57 -2.53,2.05 -0.67,0.38 -0.56,0.72 -0.63,1.33 -0.07,0.58 -0.14,1 -0.79,1.1 -0.69,0.11 -1.72,-0.4 -2.26,-0.4 -1.04,0 -0.41,-0.56 0.18,-1.36 0.56,-0.76 0.72,-0.32 1.23,-0.44 0.65,-0.14 1.05,-0.35 1.56,-1.12 0.77,-1.17 -1.12,-1.37 -1.67,-0.8 -0.6,0.64 -1.41,1.74 -1.92,2.32 -0.51,0.58 -0.97,0.81 -1.23,0.11 -0.2,-0.52 -0.4,-1.52 -0.43,-2.03 -1.59,-0.44 -0.18,-2.17 -0.18,-2.17 l 4.67,-5.7 c 0,0 -1.05,-0.67 -0.29,-1.91 0.4,-0.65 3.22,-4.02 5.21,-5.43 -0.4,-1.12 -0.91,-2.24 -2.06,-3.37 1.77,0.33 3.22,0.25 5.98,3.15 0.71,0.75 1.49,0.52 1.23,-0.22 -0.29,-0.82 -0.76,-1.38 -1.74,-2.57 8.71,-2.31 12.92,5.36 13.54,6.23 -1.63,-0.11 -2.93,0.15 -3.72,0.4 -0.68,0.22 -0.63,0.51 0.39,0.63 2.89,0.34 3.33,0.46 4.16,0.71 1.2,1.37 1.85,4.75 1.77,4.89 -1.21,0.07 -2.75,-0.19 -4.44,0.05 -1.29,0.18 -0.85,0.76 -0.34,0.82 1.93,0.24 3.77,0.77 5.21,1.4 0.48,2.66 0.36,4.47 0.36,4.47 0,0 -3.38,-0.36 -4.27,-0.29 -0.89,0.07 -0.45,0.78 0.43,1.09 0.82,0.29 2.51,0.92 3.62,1.93 -0.01,0.79 -0.34,2.7 -0.68,3.67 -0.33,0.94 -0.07,1.77 1.47,2.08 4.21,0.84 7.8,1.39 14.27,1.26 11.39,-0.24 15.21,12.89 10.09,19.26 -2.4,2.98 -2.51,4.73 -2.32,5.79 0.49,2.66 1.93,5.05 4.39,6.5 1.3,0.77 -0.02,2.51 -0.39,3.16 z m 12.65,-48.33 c -3.42,2.89 0.21,8.43 -2.99,12.7 -1.74,2.9 -6.59,5.89 -11.3,2.99 2.75,-1.01 5.55,-3.32 3.98,-7.75 -2,-5.67 -4.66,-5.77 -7.8,-10.6 -2.4,-3.7 -3.72,-13.3 5.19,-16.42 -7.31,4.56 -2.97,12.89 -0.29,15.28 -4.66,-10.84 2.63,-15.86 7.03,-15.86 2.41,0 5.38,0.24 7.15,3.43 2.51,4.54 -1.16,7.87 -3.09,8.02 3.09,-1.45 2.94,-4.29 1.88,-5.75 -1.93,-2.66 -7.05,-1.45 -7.97,1.79 -1.4,4.94 2.46,7.72 3.84,10.91 1.95,-2.75 6.83,-3.09 8.91,-0.14 -2.08,0.1 -3.62,0.63 -4.54,1.4 z"
     id="path4774" />
  <path
     class="cls-2"
     d="m 125.46,173.99 c 0,0 0.01,-0.02 0.03,-0.06 0,-0.05 0,-0.04 -0.03,0.06 z"
     id="path4776" />
  <path
     class="cls-1"
     d="m 310.2,41.82 v 1.78 c -6.27,0.09 -8.52,2.62 -8.52,8.61 v 25.28 c 0,11.61 -7.4,24.06 -27.72,24.06 -17.88,0 -27.06,-10.21 -27.06,-23.6 V 50.61 c 0,-5.99 -1.69,-6.93 -8.05,-7.02 v -1.78 h 24.06 v 1.78 h -0.84 c -5.15,0 -7.4,1.41 -7.4,6.84 v 26.03 c 0,12.64 7.4,20.23 21.35,20.23 10.58,0 21.35,-4.4 21.35,-20.32 V 54.55 c 0,-8.99 -1.4,-10.58 -9.18,-10.96 v -1.78 h 22 z"
     id="path4778" />
  <path
     class="cls-1"
     d="m 322.51,91.91 c 0,5.15 1.22,6.37 6.27,6.37 v 1.78 h -18.82 v -1.78 c 4.12,0 6.27,-2.25 6.27,-5.9 V 72.72 c 0,-3.46 -0.38,-4.12 -2.81,-4.59 l -3.18,-0.65 v -1.5 l 10.77,-3.93 h 1.5 v 7.3 c 6.27,-3.93 11.52,-7.4 16.11,-7.4 6.37,0 10.02,4.68 10.02,14.05 0,12.45 -0.65,14.89 -0.75,18.54 -0.09,2.53 1.4,3.75 5.24,3.75 h 2.06 v 1.78 h -20.13 v -1.78 c 2.71,-0.09 4.31,-0.75 5.34,-1.78 1.78,-1.78 1.97,-8.61 1.97,-21.07 0,-7.49 -3.65,-9.83 -7.4,-9.83 -3,0 -7.58,2.62 -12.45,5.99 v 20.32 z"
     id="path4780" />
  <path
     class="cls-1"
     d="m 373.1,92.94 c 0,3.28 1.78,5.34 6.74,5.34 v 1.78 h -20.79 v -1.78 c 5.71,0 7.77,-1.87 7.77,-6.84 V 72.62 c 0,-3.65 -0.47,-4.12 -2.9,-4.59 l -4.4,-0.84 v -1.5 l 12.17,-4.21 h 1.41 z m -3.84,-52.53 c 2.25,0 4.12,1.59 4.12,3.56 0,1.97 -1.87,3.56 -4.12,3.56 -2.25,0 -4.03,-1.59 -4.03,-3.56 0,-1.97 1.78,-3.56 4.03,-3.56 z"
     id="path4782" />
  <path
     class="cls-1"
     d="M 401.22,100.9 387.64,69.81 c -1.4,-3.28 -2.62,-4.4 -4.12,-4.68 l -2.91,-0.47 v -1.69 h 19.11 v 1.69 c -5.71,0.19 -7.49,0.94 -5.25,5.34 l 9.93,23.31 9.55,-21.63 c 1.69,-3.84 0.84,-6.55 -5.99,-7.02 v -1.69 h 16.29 v 1.69 c -3.55,0.65 -5.62,2.71 -7.39,6.84 l -12.92,29.4 z"
     id="path4784" />
  <path
     class="cls-1"
     d="m 432.12,73.84 c 2.16,-8.71 6.84,-10.11 9.93,-10.11 4.49,0 8.24,4.03 9.27,10.11 z m 27.06,2.44 v -2.15 c -3.09,-3.09 -2.81,-12.17 -15.45,-12.17 -11.42,0 -18.07,10.11 -18.07,20.04 0,10.86 7.11,19.2 16.29,19.2 6.84,0 12.73,-4.68 16.67,-9.64 l -1.03,-1.12 c -3.56,4.21 -7.21,6.09 -11.89,6.09 -7.4,0 -14.23,-6.55 -14.23,-16.29 0,-1.22 0.19,-2.53 0.38,-3.93 h 27.34 z"
     id="path4786" />
  <path
     class="cls-1"
     d="m 477.24,93.22 c 0,3.84 1.4,5.06 6.09,5.06 h 3.56 v 1.78 H 464.7 v -1.78 c 4.78,-0.09 6.28,-2.06 6.28,-7.02 V 69.63 l -6.28,-2.25 v -1.59 l 10.68,-3.75 h 1.87 v 9.93 h 0.19 c 4.68,-7.68 5.8,-9.46 8.89,-9.46 1.13,0 1.41,0.09 3.18,0.84 0.94,0.37 2.62,0.75 4.87,1.4 l -2.25,5.62 c -1.4,-0.19 -3.18,-0.65 -4.96,-1.5 -1.03,-0.47 -2.15,-0.94 -3.28,-0.94 -1.69,0 -2.72,1.12 -3.65,2.43 -1.22,1.69 -2.25,3.28 -3,4.68 v 18.17 z"
     id="path4788" />
  <path
     class="cls-1"
     d="m 500.84,90.6 c 1.12,5.62 4.68,8.8 8.9,8.8 3.74,0 6.65,-2.81 6.65,-6.18 0,-1.97 -0.47,-3.18 -3,-5.71 -6.65,-6.65 -14.04,-7.3 -14.04,-15.08 0,-6.18 4.87,-10.49 11.99,-10.49 2.53,0 5.15,0.56 7.49,1.5 l 0.19,8.52 h -1.59 c -0.66,-4.78 -3.75,-7.77 -7.49,-7.77 -3.09,0 -5.71,2.15 -5.71,5.24 0,8.24 17.41,9.64 17.41,21.07 0,6.09 -5.05,10.67 -11.61,10.67 -1.78,0 -3.09,-0.28 -4.12,-0.66 -1.03,-0.28 -1.78,-0.56 -2.53,-0.56 -0.56,0 -1.12,0.38 -1.59,1.12 h -1.4 l -1.03,-10.49 h 1.5 z"
     id="path4790" />
  <path
     class="cls-1"
     d="m 541.41,92.94 c 0,3.28 1.78,5.34 6.74,5.34 v 1.78 h -20.79 v -1.78 c 5.71,0 7.77,-1.87 7.77,-6.84 V 72.62 c 0,-3.65 -0.47,-4.12 -2.9,-4.59 l -4.4,-0.84 v -1.5 L 540,61.48 h 1.41 z m -3.84,-52.53 c 2.25,0 4.12,1.59 4.12,3.56 0,1.97 -1.87,3.56 -4.12,3.56 -2.25,0 -4.02,-1.59 -4.02,-3.56 0,-1.97 1.78,-3.56 4.02,-3.56 z"
     id="path4792" />
  <path
     class="cls-1"
     d="m 574.83,62.98 -1.5,4.12 h -11.89 v 21.82 c 0,5.9 4.21,7.86 6.18,7.86 1.97,0 3.93,-1.59 5.71,-4.68 l 1.5,1.4 c -2.25,4.87 -5.9,7.68 -10.21,7.68 -5.53,0 -9.46,-4.59 -9.46,-10.86 V 67.1 h -4.31 v -1.5 c 3.65,-1.78 6.84,-6.09 8.99,-11.89 h 1.59 v 9.27 h 13.39 z"
     id="path4794" />
  <path
     class="cls-1"
     d="m 611.87,73.37 c 2.81,-7.12 1.03,-8.52 -4.5,-8.71 v -1.69 h 15.54 v 1.69 c -3.84,0.47 -5.99,3.09 -7.77,7.49 l -15.92,39.7 c -2.81,6.93 -4.96,10.02 -8.24,10.02 -2.25,0 -3.84,-1.4 -3.84,-3.28 0,-3.84 5.43,-2.9 7.77,-5.24 1.03,-1.03 2.43,-3.46 3.18,-5.34 l 2.81,-7.02 -14.51,-30.81 c -1.78,-3.84 -3.46,-5.43 -7.4,-5.52 v -1.69 h 18.82 v 1.69 c -5.71,0.09 -6.37,1.78 -4.49,5.71 l 10.58,22.85 7.96,-19.85 z"
     id="path4796" />
  <path
     class="cls-1"
     d="m 650.96,78.61 c 0,-8.05 5.71,-14.42 11.89,-14.42 7.87,0 14.42,9.08 14.42,19.76 0,9.36 -6.27,14.98 -11.8,14.98 -8.05,0 -14.51,-8.99 -14.51,-20.32 z m -7.02,3.18 c 0,10.96 8.89,19.38 20.5,19.38 11.61,0 19.85,-8.52 19.85,-19.57 0,-11.05 -8.71,-19.66 -20.13,-19.66 -9.74,0 -20.22,6.93 -20.22,19.85 z"
     id="path4798" />
  <path
     class="cls-1"
     d="m 711.44,67.1 h -10.11 v 25.66 c 0,4.31 1.69,5.52 6.93,5.52 h 3.56 v 1.78 h -23.13 v -1.78 c 5.43,0 6.37,-1.22 6.37,-6.46 V 67.1 h -6.93 v -1.59 c 2.62,-0.56 4.87,-1.4 6.93,-2.53 0,-7.77 1.69,-13.67 7.21,-19.2 4.59,-4.59 8.99,-6.65 13.29,-6.65 5.24,0 9.65,3 9.65,4.4 0,0.75 -1.78,4.49 -2.53,4.49 -1.31,0 -4.78,-4.59 -10.96,-4.59 -6.74,0 -10.39,5.34 -10.39,14.42 v 7.12 h 9.46 l 0.65,4.12 z"
     id="path4800" />
  <path
     class="cls-2"
     d="M 79.35,0.11 V 10.9 H 67.23 c 0,0 -0.48,0 -0.48,0 V 0.11 H 55.16 V 10.9 H 43.57 c 0,0 0,-10.79 0,-10.79 H 32.08 V 10.9 c 0,0 -0.43,0 -0.43,0 H 20.4 V 0.11 H 0.02 c 0,0 0,100.42 0,99.97 42.83,14.87 59.58,-15.84 99.8,0 V 0.11 Z m -2.12,33.6 c -4.06,8.11 -4.44,16.32 -3.67,20.47 -8.59,-2.22 -11.49,0 -11.49,0 0,0 0.19,-9.17 15.16,-20.47 z M 35.32,23.72 c 3.41,-1.42 3.28,-0.63 3.09,0.34 -0.19,0.97 -0.84,2.65 1.06,2.22 5.22,-1.17 9.81,-4.42 10.24,-4.73 v 6.28 c -0.76,0.36 -6.19,2.77 -10.91,3.09 -4.35,0.29 -2.41,-4.59 -2.41,-4.59 -0.36,0.24 -5.94,3.09 -10.53,2.85 -5.55,-0.29 -5.79,-3.43 -5.21,-4.1 0,0.48 0.72,4.44 14.68,-1.35 z M 17.74,88.76 C 36.09,93.88 48.83,80.45 61.39,78.72 47.73,78.53 40.29,84.18 35.8,84.71 33.48,83.02 30.88,78.84 30.01,74.28 29.29,70.51 25.52,69.89 25.52,69.89 l -0.58,-2.85 c 0,0 10.77,1.59 12.7,1.79 2.51,4.01 7.24,4.97 9.56,4.97 0,0 0.06,-6.79 0.05,-7.19 0.54,-0.76 2.46,-1.45 2.46,-1.45 l 0.1,8.54 c 5.89,0 10.43,-3.77 10.33,-7.34 -0.11,-4.06 -4.61,-7.58 -11.78,-7.44 -7.19,0.14 -9.75,3.67 -10.53,4.92 -8.55,-8.52 -4.64,-18.93 -4.64,-18.93 0,0 -7.39,4.97 -0.72,17.58 -7,-1.88 -12.75,1.79 -12.65,4.73 -0.05,2.7 2.08,4.78 6.33,4.93 -15.06,2.99 -18.44,-5.6 -11.2,-10.24 q 3.38,0.58 5.7,1.06 c -7.34,-7.34 -3.78,-16.33 2.13,-20.18 8.5,-1.54 12.75,-2.17 12.75,-2.17 0,0 4.13,-5.94 7.73,-8.06 5.21,-0.48 23.37,-3.09 23.37,-3.09 0,0 -16.97,15.5 -0.7,31.96 6.69,0 14.65,0.01 14.65,0.01 0,0 -0.34,2.45 -0.82,4.86 -1.45,0.14 -2.22,0.2 -2.8,0.24 C 76.77,74.07 72.23,79 72.23,79 c 0,0 8.5,1.06 14.19,4.54 -36.5,-6.95 -39.49,15.16 -68.66,5.21 z"
     id="path4802" />
  <path
     class="cls-2"
     d="m 138.2,136.09 c 0,0 -0.48,-0.24 0.43,-1 0.11,-0.09 0.29,0.11 0.81,0.12 0.71,0 1.08,-0.24 1.67,-0.95 0.89,-1.08 -0.97,-1.49 -1.57,-0.97 -0.66,0.57 -1.14,1.15 -1.7,1.67 0,0 -0.95,0.85 0.36,1.12 z"
     id="path4804" />
  <path
     class="cls-2"
     d="m 99.82,207.1 c -31.83,-20.88 -56.31,10.62 -99.8,-11.2 0,0 0,14.55 0,14.55 55.33,13.47 56.93,-15.93 99.8,0 z"
     id="path4806" />
  <path
     class="cls-2"
     d="M 44.75,187.68 C 17.1,187.88 0.02,171.15 0.02,171.15 c 0,0 0,13.13 0,13.13 39.66,27.07 65.64,-3.56 99.8,19.46 v -3.53 c -8.2,-6.38 -18.77,-12.79 -55.08,-12.53 z"
     id="path4808" />
  <path
     class="cls-2"
     d="m 70.25,183.82 c 3.7,0.75 6.9,1.56 9.69,2.4 7.24,2.38 13.94,5.96 19.87,10.49 v -86.35 c -10.5,-4.4 -19.29,-5.39 -27.39,-4.78 v 46.41 L 61.61,141.15 50.8,151.99 v -41.95 c -14.03,3.8 -28.91,7.5 -50.8,0.32 0.02,0.9 0.02,23.58 0.02,43.34 0,0 11.39,24.23 42.15,26.52 11.72,0.87 20.85,2.13 28.08,3.6"
     id="path4810" />
</svg>
